<?xml version="1.0" encoding="UTF-8" standalone="no"?>
<svg
   version="1.1"
   width="22.299501mm"
   height="53.939503mm"
   viewBox="0 0 22.299502 53.939504"
   id="svg8357"
   sodipodi:docname="rhobot_v2_photomask_B_Cu.svg"
   inkscape:version="1.2.2 (732a01da63, 2022-12-09)"
   xml:space="preserve"
   inkscape:export-filename="rhobot_v2_photomask_B_Cu.pdf"
   inkscape:export-xdpi="96"
   inkscape:export-ydpi="96"
   xmlns:inkscape="http://www.inkscape.org/namespaces/inkscape"
   xmlns:sodipodi="http://sodipodi.sourceforge.net/DTD/sodipodi-0.dtd"
   xmlns="http://www.w3.org/2000/svg"
   xmlns:svg="http://www.w3.org/2000/svg"
   xmlns:rdf="http://www.w3.org/1999/02/22-rdf-syntax-ns#"
   xmlns:cc="http://creativecommons.org/ns#"
   xmlns:dc="http://purl.org/dc/elements/1.1/"><defs
     id="defs8361" /><sodipodi:namedview
     id="namedview8359"
     pagecolor="#ffffff"
     bordercolor="#999999"
     borderopacity="1"
     inkscape:showpageshadow="0"
     inkscape:pageopacity="0"
     inkscape:pagecheckerboard="0"
     inkscape:deskcolor="#d1d1d1"
     inkscape:document-units="mm"
     showgrid="false"
     inkscape:zoom="5.7190226"
     inkscape:cx="36.020141"
     inkscape:cy="29.900214"
     inkscape:window-width="1858"
     inkscape:window-height="1057"
     inkscape:window-x="54"
     inkscape:window-y="94"
     inkscape:window-maximized="1"
     inkscape:current-layer="layer6" /><title
     id="title7983">SVG Image created as rhobot_circuit_v2-B_Cu.svg date 2024/02/15 13:03:24 </title><desc
     id="desc7985">Image generated by PCBNEW </desc><metadata
     id="metadata8480"><rdf:RDF><cc:Work
         rdf:about=""><dc:title>SVG Image created as rhobot_circuit_v2-B_Cu.svg date 2024/02/15 13:03:24 </dc:title></cc:Work></rdf:RDF></metadata><g
     inkscape:groupmode="layer"
     id="layer4"
     inkscape:label="Layer 1"
     transform="translate(0,-5.0849995)"><g
       style="fill:#000000;fill-opacity:1;stroke:#000000;stroke-width:0.0212;stroke-linecap:round;stroke-linejoin:round;stroke-opacity:1"
       id="g8327"><g
         id="g7995"
         style="fill:#000000;stroke:#000000" /><g
         style="fill:#000000;fill-opacity:1;stroke:#000000;stroke-width:0;stroke-linecap:round;stroke-linejoin:round;stroke-opacity:1"
         id="g8003"><path
           style="fill:#000000;fill-opacity:1;fill-rule:evenodd;stroke:#000000;stroke-width:0;stroke-linecap:round;stroke-linejoin:round;stroke-opacity:1"
           d="m 14.15,20.875 h -1.7 v -1.7 h 1.7 z"
           id="path7997" /><circle
           cx="15.84"
           cy="20.025"
           r="0.85000002"
           id="circle7999"
           style="fill:#000000;stroke:#000000" /><circle
           cx="18.379999"
           cy="20.025"
           r="0.85000002"
           id="circle8001"
           style="fill:#000000;stroke:#000000" /></g><g
         id="g8005"
         style="fill:#000000;stroke:#000000" /><g
         style="fill:#000000;fill-opacity:1;stroke:#000000;stroke-width:0;stroke-linecap:round;stroke-linejoin:round;stroke-opacity:1"
         id="g8015"><path
           style="fill:#000000;fill-opacity:1;fill-rule:evenodd;stroke:#000000;stroke-width:0;stroke-linecap:round;stroke-linejoin:round;stroke-opacity:1"
           d="m 12.82,40.375 h -1.7 v -1.7 h 1.7 z"
           id="path8007" /><circle
           cx="14.51"
           cy="39.525002"
           r="0.85000002"
           id="circle8009"
           style="fill:#000000;stroke:#000000" /><circle
           cx="17.049999"
           cy="39.525002"
           r="0.85000002"
           id="circle8011"
           style="fill:#000000;stroke:#000000" /><circle
           cx="19.59"
           cy="39.525002"
           r="0.85000002"
           id="circle8013"
           style="fill:#000000;stroke:#000000" /></g><g
         id="g8017"
         style="fill:#000000;stroke:#000000" /><g
         style="fill:#000000;fill-opacity:1;stroke:#000000;stroke-width:0;stroke-linecap:round;stroke-linejoin:round;stroke-opacity:1"
         id="g8025"><path
           style="fill:#000000;fill-opacity:1;fill-rule:evenodd;stroke:#000000;stroke-width:0;stroke-linecap:round;stroke-linejoin:round;stroke-opacity:1"
           d="m 13.86,54.375 h -1.7 v -1.7 h 1.7 z"
           id="path8019" /><circle
           cx="15.55"
           cy="53.525002"
           r="0.85000002"
           id="circle8021"
           style="fill:#000000;stroke:#000000" /><circle
           cx="18.09"
           cy="53.525002"
           r="0.85000002"
           id="circle8023"
           style="fill:#000000;stroke:#000000" /></g><g
         id="g8027"
         style="fill:#000000;stroke:#000000" /><g
         style="fill:#000000;fill-opacity:1;stroke:#000000;stroke-width:0;stroke-linecap:round;stroke-linejoin:round;stroke-opacity:1"
         id="g8035"><path
           style="fill:#000000;fill-opacity:1;fill-rule:evenodd;stroke:#000000;stroke-width:0;stroke-linecap:round;stroke-linejoin:round;stroke-opacity:1"
           d="m 13.86,47.625 h -1.7 v -1.7 h 1.7 z"
           id="path8029" /><circle
           cx="15.55"
           cy="46.775002"
           r="0.85000002"
           id="circle8031"
           style="fill:#000000;stroke:#000000" /><circle
           cx="18.09"
           cy="46.775002"
           r="0.85000002"
           id="circle8033"
           style="fill:#000000;stroke:#000000" /></g><g
         id="g8037"
         style="fill:#000000;stroke:#000000" /><g
         style="fill:#000000;fill-opacity:1;stroke:#000000;stroke-width:0;stroke-linecap:round;stroke-linejoin:round;stroke-opacity:1"
         id="g8045"><path
           style="fill:#000000;fill-opacity:1;fill-rule:evenodd;stroke:#000000;stroke-width:0;stroke-linecap:round;stroke-linejoin:round;stroke-opacity:1"
           d="m 14.11,33.625 h -1.7 v -1.7 h 1.7 z"
           id="path8039" /><circle
           cx="15.8"
           cy="32.775002"
           r="0.85000002"
           id="circle8041"
           style="fill:#000000;stroke:#000000" /><circle
           cx="18.34"
           cy="32.775002"
           r="0.85000002"
           id="circle8043"
           style="fill:#000000;stroke:#000000" /></g><g
         id="g8047"
         style="fill:#000000;stroke:#000000" /><g
         style="fill:#000000;fill-opacity:1;stroke:#000000;stroke-width:0;stroke-linecap:round;stroke-linejoin:round;stroke-opacity:1"
         id="g8055"><path
           style="fill:#000000;fill-opacity:1;fill-rule:evenodd;stroke:#000000;stroke-width:0;stroke-linecap:round;stroke-linejoin:round;stroke-opacity:1"
           d="m 14.11,27.375 h -1.7 v -1.7 h 1.7 z"
           id="path8049" /><circle
           cx="15.8"
           cy="26.525"
           r="0.85000002"
           id="circle8051"
           style="fill:#000000;stroke:#000000" /><circle
           cx="18.34"
           cy="26.525"
           r="0.85000002"
           id="circle8053"
           style="fill:#000000;stroke:#000000" /></g><g
         id="g8057"
         style="fill:#000000;stroke:#000000" /><g
         style="fill:#000000;fill-opacity:1;stroke:#000000;stroke-width:0;stroke-linecap:round;stroke-linejoin:round;stroke-opacity:1"
         id="g8065"><path
           style="fill:#000000;fill-opacity:1;fill-rule:evenodd;stroke:#000000;stroke-width:0;stroke-linecap:round;stroke-linejoin:round;stroke-opacity:1"
           d="m 14.8,12.275 h 3.5 v 3.5 h -3.5 z"
           id="path8059" /><path
           style="fill:#000000;fill-opacity:1;fill-rule:evenodd;stroke:#000000;stroke-width:0;stroke-linecap:round;stroke-linejoin:round;stroke-opacity:1"
           d="m 17.55,6.525 0.1517,0.0155 0.1653,0.0548 0.1482,0.0914 0.1231,0.1231 0.0914,0.1482 0.0548,0.1653 L 18.3,7.275 v 1.5 L 18.2845,8.9267 18.2297,9.092 18.1383,9.2402 18.0152,9.3633 17.867,9.4547 17.7017,9.5095 17.55,9.525 h -2 L 15.3983,9.5095 15.233,9.4547 15.0848,9.3633 14.9617,9.2402 14.8703,9.092 14.8155,8.9267 14.8,8.775 v -1.5 L 14.8155,7.1233 14.8703,6.958 14.9617,6.8098 15.0848,6.6867 15.233,6.5953 15.3983,6.5405 15.55,6.525 Z"
           id="path8061" /><path
           style="fill:#000000;fill-opacity:1;fill-rule:evenodd;stroke:#000000;stroke-width:0;stroke-linecap:round;stroke-linejoin:round;stroke-opacity:1"
           d="m 12.725,9.275 0.1181,0.008 0.1836,0.0457 0.1695,0.084 0.1475,0.1186 0.1186,0.1475 0.084,0.1695 0.0457,0.1836 0.008,0.1181 v 1.75 l -0.008,0.1181 -0.0457,0.1836 -0.084,0.1695 -0.1186,0.1475 -0.1475,0.1186 -0.1695,0.084 -0.1836,0.0457 -0.1181,0.008 h -1.75 L 10.8569,12.767 10.6733,12.7213 10.5038,12.6373 10.3563,12.5187 10.2377,12.3712 10.1537,12.2017 10.108,12.0181 10.1,11.9 v -1.75 l 0.008,-0.1181 0.0457,-0.1836 0.084,-0.1695 0.1186,-0.1475 0.1475,-0.1186 0.1695,-0.084 0.1836,-0.0457 0.1181,-0.008 z"
           id="path8063" /></g><g
         id="g8067"
         style="fill:#000000;stroke:#000000" /><g
         style="fill:#000000;fill-opacity:1;stroke:#000000;stroke-width:0;stroke-linecap:round;stroke-linejoin:round;stroke-opacity:1"
         id="g8149"><path
           style="fill:#000000;fill-opacity:1;fill-rule:evenodd;stroke:#000000;stroke-width:0;stroke-linecap:round;stroke-linejoin:round;stroke-opacity:1"
           d="m 4.7,56.875 v -1.7 h 1.7 v 1.7 z"
           id="path8069" /><circle
           cx="3.01"
           cy="56.025002"
           r="0.85000002"
           id="circle8071"
           style="fill:#000000;stroke:#000000" /><circle
           cx="5.5500002"
           cy="53.485001"
           r="0.85000002"
           id="circle8073"
           style="fill:#000000;stroke:#000000" /><circle
           cx="3.01"
           cy="53.485001"
           r="0.85000002"
           id="circle8075"
           style="fill:#000000;stroke:#000000" /><circle
           cx="5.5500002"
           cy="50.945"
           r="0.85000002"
           id="circle8077"
           style="fill:#000000;stroke:#000000" /><circle
           cx="3.01"
           cy="50.945"
           r="0.85000002"
           id="circle8079"
           style="fill:#000000;stroke:#000000" /><circle
           cx="5.5500002"
           cy="48.404999"
           r="0.85000002"
           id="circle8081"
           style="fill:#000000;stroke:#000000" /><circle
           cx="3.01"
           cy="48.404999"
           r="0.85000002"
           id="circle8083"
           style="fill:#000000;stroke:#000000" /><circle
           cx="5.5500002"
           cy="45.865002"
           r="0.85000002"
           id="circle8085"
           style="fill:#000000;stroke:#000000" /><circle
           cx="3.01"
           cy="45.865002"
           r="0.85000002"
           id="circle8087"
           style="fill:#000000;stroke:#000000" /><circle
           cx="5.5500002"
           cy="43.325001"
           r="0.85000002"
           id="circle8089"
           style="fill:#000000;stroke:#000000" /><circle
           cx="3.01"
           cy="43.325001"
           r="0.85000002"
           id="circle8091"
           style="fill:#000000;stroke:#000000" /><circle
           cx="5.5500002"
           cy="40.785"
           r="0.85000002"
           id="circle8093"
           style="fill:#000000;stroke:#000000" /><circle
           cx="3.01"
           cy="40.785"
           r="0.85000002"
           id="circle8095"
           style="fill:#000000;stroke:#000000" /><circle
           cx="5.5500002"
           cy="38.244999"
           r="0.85000002"
           id="circle8097"
           style="fill:#000000;stroke:#000000" /><circle
           cx="3.01"
           cy="38.244999"
           r="0.85000002"
           id="circle8099"
           style="fill:#000000;stroke:#000000" /><circle
           cx="5.5500002"
           cy="35.705002"
           r="0.85000002"
           id="circle8101"
           style="fill:#000000;stroke:#000000" /><circle
           cx="3.01"
           cy="35.705002"
           r="0.85000002"
           id="circle8103"
           style="fill:#000000;stroke:#000000" /><circle
           cx="5.5500002"
           cy="33.165001"
           r="0.85000002"
           id="circle8105"
           style="fill:#000000;stroke:#000000" /><circle
           cx="3.01"
           cy="33.165001"
           r="0.85000002"
           id="circle8107"
           style="fill:#000000;stroke:#000000" /><circle
           cx="5.5500002"
           cy="30.625"
           r="0.85000002"
           id="circle8109"
           style="fill:#000000;stroke:#000000" /><circle
           cx="3.01"
           cy="30.625"
           r="0.85000002"
           id="circle8111"
           style="fill:#000000;stroke:#000000" /><circle
           cx="5.5500002"
           cy="28.084999"
           r="0.85000002"
           id="circle8113"
           style="fill:#000000;stroke:#000000" /><circle
           cx="3.01"
           cy="28.084999"
           r="0.85000002"
           id="circle8115"
           style="fill:#000000;stroke:#000000" /><circle
           cx="5.5500002"
           cy="25.545"
           r="0.85000002"
           id="circle8117"
           style="fill:#000000;stroke:#000000" /><circle
           cx="3.01"
           cy="25.545"
           r="0.85000002"
           id="circle8119"
           style="fill:#000000;stroke:#000000" /><circle
           cx="5.5500002"
           cy="23.004999"
           r="0.85000002"
           id="circle8121"
           style="fill:#000000;stroke:#000000" /><circle
           cx="3.01"
           cy="23.004999"
           r="0.85000002"
           id="circle8123"
           style="fill:#000000;stroke:#000000" /><circle
           cx="5.5500002"
           cy="20.465"
           r="0.85000002"
           id="circle8125"
           style="fill:#000000;stroke:#000000" /><circle
           cx="3.01"
           cy="20.465"
           r="0.85000002"
           id="circle8127"
           style="fill:#000000;stroke:#000000" /><circle
           cx="5.5500002"
           cy="17.924999"
           r="0.85000002"
           id="circle8129"
           style="fill:#000000;stroke:#000000" /><circle
           cx="3.01"
           cy="17.924999"
           r="0.85000002"
           id="circle8131"
           style="fill:#000000;stroke:#000000" /><circle
           cx="5.5500002"
           cy="15.385"
           r="0.85000002"
           id="circle8133"
           style="fill:#000000;stroke:#000000" /><circle
           cx="3.01"
           cy="15.385"
           r="0.85000002"
           id="circle8135"
           style="fill:#000000;stroke:#000000" /><circle
           cx="5.5500002"
           cy="12.845"
           r="0.85000002"
           id="circle8137"
           style="fill:#000000;stroke:#000000" /><circle
           cx="3.01"
           cy="12.845"
           r="0.85000002"
           id="circle8139"
           style="fill:#000000;stroke:#000000" /><circle
           cx="5.5500002"
           cy="10.305"
           r="0.85000002"
           id="circle8141"
           style="fill:#000000;stroke:#000000" /><circle
           cx="3.01"
           cy="10.305"
           r="0.85000002"
           id="circle8143"
           style="fill:#000000;stroke:#000000" /><circle
           cx="5.5500002"
           cy="7.7649999"
           r="0.85000002"
           id="circle8145"
           style="fill:#000000;stroke:#000000" /><circle
           cx="3.01"
           cy="7.7649999"
           r="0.85000002"
           id="circle8147"
           style="fill:#000000;stroke:#000000" /></g><g
         id="g8151"
         style="fill:#000000;stroke:#000000" /><g
         style="fill:#000000;fill-opacity:1;stroke:#000000;stroke-width:0;stroke-linecap:round;stroke-linejoin:round;stroke-opacity:1"
         id="g8155"><circle
           cx="14.8"
           cy="56.775002"
           r="1"
           id="circle8153"
           style="fill:#000000;stroke:#000000" /></g><g
         style="fill:#000000;fill-opacity:1;stroke:#000000;stroke-width:0.0212;stroke-linecap:round;stroke-linejoin:round;stroke-opacity:1"
         id="g8157" /><g
         style="fill:#000000;fill-opacity:1;stroke:#000000;stroke-width:0;stroke-linecap:round;stroke-linejoin:round;stroke-opacity:1"
         id="g8161"><circle
           cx="11.05"
           cy="14.525"
           r="1"
           id="circle8159"
           style="fill:#000000;stroke:#000000" /></g><g
         style="fill:#000000;fill-opacity:1;stroke:#000000;stroke-width:0.0212;stroke-linecap:round;stroke-linejoin:round;stroke-opacity:1"
         id="g8163" /><g
         style="fill:#000000;fill-opacity:1;stroke:#000000;stroke-width:0;stroke-linecap:round;stroke-linejoin:round;stroke-opacity:1"
         id="g8167"><circle
           cx="8.8000002"
           cy="57.025002"
           r="1"
           id="circle8165"
           style="fill:#000000;stroke:#000000" /></g><g
         style="fill:#000000;fill-opacity:1;stroke:#000000;stroke-width:0.0212;stroke-linecap:round;stroke-linejoin:round;stroke-opacity:1"
         id="g8169" /><g
         style="fill:#000000;fill-opacity:1;stroke:#000000;stroke-width:0;stroke-linecap:round;stroke-linejoin:round;stroke-opacity:1"
         id="g8173"><circle
           cx="11.3"
           cy="57.334999"
           r="1"
           id="circle8171"
           style="fill:#000000;stroke:#000000" /></g><g
         style="fill:#000000;fill-opacity:1;stroke:#000000;stroke-width:0.0212;stroke-linecap:round;stroke-linejoin:round;stroke-opacity:1"
         id="g8175" /><g
         style="fill:#000000;fill-opacity:1;stroke:#000000;stroke-width:0;stroke-linecap:round;stroke-linejoin:round;stroke-opacity:1"
         id="g8179"><circle
           cx="13.01"
           cy="50.485001"
           r="1"
           id="circle8177"
           style="fill:#000000;stroke:#000000" /></g><g
         style="fill:#000000;fill-opacity:1;stroke:#000000;stroke-width:0.0212;stroke-linecap:round;stroke-linejoin:round;stroke-opacity:1"
         id="g8181" /><g
         style="fill:#000000;fill-opacity:1;stroke:#000000;stroke-width:0;stroke-linecap:round;stroke-linejoin:round;stroke-opacity:1"
         id="g8185"><circle
           cx="13.8"
           cy="29.775"
           r="1"
           id="circle8183"
           style="fill:#000000;stroke:#000000" /></g><g
         style="fill:#000000;fill-opacity:1;stroke:#000000;stroke-width:0.0212;stroke-linecap:round;stroke-linejoin:round;stroke-opacity:1"
         id="g8187" /><g
         style="fill:#000000;fill-opacity:1;stroke:#000000;stroke-width:0;stroke-linecap:round;stroke-linejoin:round;stroke-opacity:1"
         id="g8191"><circle
           cx="13.05"
           cy="43.525002"
           r="1"
           id="circle8189"
           style="fill:#000000;stroke:#000000" /></g><g
         style="fill:#000000;fill-opacity:1;stroke:#000000;stroke-width:0.0212;stroke-linecap:round;stroke-linejoin:round;stroke-opacity:1"
         id="g8193" /><g
         style="fill:#000000;fill-opacity:1;stroke:#000000;stroke-width:0;stroke-linecap:round;stroke-linejoin:round;stroke-opacity:1"
         id="g8197"><circle
           cx="8.8000002"
           cy="7.2750001"
           r="1"
           id="circle8195"
           style="fill:#000000;stroke:#000000" /></g><g
         style="fill:#000000;fill-opacity:1;stroke:#000000;stroke-width:0.0212;stroke-linecap:round;stroke-linejoin:round;stroke-opacity:1"
         id="g8199" /><g
         style="fill:#000000;fill-opacity:1;stroke:#000000;stroke-width:0;stroke-linecap:round;stroke-linejoin:round;stroke-opacity:1"
         id="g8203"><circle
           cx="13.05"
           cy="17.025"
           r="1"
           id="circle8201"
           style="fill:#000000;stroke:#000000" /></g><g
         style="fill:#000000;fill-opacity:1;stroke:#000000;stroke-width:0.0212;stroke-linecap:round;stroke-linejoin:round;stroke-opacity:1"
         id="g8205" /><g
         id="g8207"
         style="fill:#000000;stroke:#000000" /><g
         style="fill:#000000;fill-opacity:1;stroke:#000000;stroke-width:0.0212;stroke-linecap:round;stroke-linejoin:round;stroke-opacity:1"
         id="g8209" /><g
         style="fill:#000000;fill-opacity:1;stroke:#000000;stroke-width:0.5;stroke-linecap:round;stroke-linejoin:round;stroke-opacity:1"
         id="g8211" /><g
         style="fill:#000000;fill-opacity:0;stroke:#000000;stroke-width:0.5;stroke-linecap:round;stroke-linejoin:round;stroke-opacity:1"
         id="g8233"><path
           d="m 14.51,38.795 v 0.73"
           id="path8213"
           style="fill:#000000;stroke:#000000" /><path
           d="m 10.8,37.585 h 2.5"
           id="path8215"
           style="fill:#000000;stroke:#000000" /><path
           d="m 13.3,37.585 1.21,1.21"
           id="path8217"
           style="fill:#000000;stroke:#000000" /><path
           d="m 9.05,39.335 1.75,-1.75"
           id="path8219"
           style="fill:#000000;stroke:#000000" /><path
           d="M 9.05,56.775 V 39.335"
           id="path8221"
           style="fill:#000000;stroke:#000000" /><path
           d="m 8.8,57.025 0.25,-0.25"
           id="path8223"
           style="fill:#000000;stroke:#000000" /><path
           d="M 10.5312,56.5662 11.3,57.335"
           id="path8225"
           style="fill:#000000;stroke:#000000" /><path
           d="M 10.5312,41.6038 V 56.5662"
           id="path8227"
           style="fill:#000000;stroke:#000000" /><path
           d="m 11.97,40.165 -1.4388,1.4388"
           id="path8229"
           style="fill:#000000;stroke:#000000" /><path
           d="m 11.97,39.525 v 0.64"
           id="path8231"
           style="fill:#000000;stroke:#000000" /></g><g
         style="fill:#000000;fill-opacity:0;stroke:#000000;stroke-width:1;stroke-linecap:round;stroke-linejoin:round;stroke-opacity:1"
         id="g8279"><path
           d="m 18.34,35.125 1.25,1.25"
           id="path8235"
           style="fill:#000000;stroke:#000000" /><path
           d="m 19.59,36.375 v 3.15"
           id="path8237"
           style="fill:#000000;stroke:#000000" /><path
           d="m 18.34,32.775 v 2.35"
           id="path8239"
           style="fill:#000000;stroke:#000000" /><path
           d="m 17.05,36.835 v 2.69"
           id="path8241"
           style="fill:#000000;stroke:#000000" /><path
           d="m 15.8,35.585 1.25,1.25"
           id="path8243"
           style="fill:#000000;stroke:#000000" /><path
           d="m 15.8,32.775 v 2.81"
           id="path8245"
           style="fill:#000000;stroke:#000000" /><path
           d="m 15.55,56.025 v -2.5"
           id="path8247"
           style="fill:#000000;stroke:#000000" /><path
           d="m 14.8,56.775 0.75,-0.75"
           id="path8249"
           style="fill:#000000;stroke:#000000" /><path
           d="m 15.55,53.525 v -6.75"
           id="path8251"
           style="fill:#000000;stroke:#000000" /><path
           d="m 19.59,45.275 -1.5,1.5"
           id="path8253"
           style="fill:#000000;stroke:#000000" /><path
           d="m 14.85,8.025 -3,3"
           id="path8255"
           style="fill:#000000;stroke:#000000" /><path
           d="m 11.05,11.825 0.8,-0.8"
           id="path8257"
           style="fill:#000000;stroke:#000000" /><path
           d="m 18.34,26.525 v 6.25"
           id="path8259"
           style="fill:#000000;stroke:#000000" /><path
           d="m 18.09,46.775 v 6.75"
           id="path8261"
           style="fill:#000000;stroke:#000000" /><path
           d="m 11.05,14.525 v -2.7"
           id="path8263"
           style="fill:#000000;stroke:#000000" /><path
           d="m 16.55,8.025 2.68,2.68"
           id="path8265"
           style="fill:#000000;stroke:#000000" /><path
           d="m 19.59,39.525 v 5.75"
           id="path8267"
           style="fill:#000000;stroke:#000000" /><path
           d="m 16.55,8.025 h -1.7"
           id="path8269"
           style="fill:#000000;stroke:#000000" /><path
           d="m 19.23,10.705 v 8.47"
           id="path8271"
           style="fill:#000000;stroke:#000000" /><path
           d="m 18.38,26.485 -0.04,0.04"
           id="path8273"
           style="fill:#000000;stroke:#000000" /><path
           d="m 18.38,20.025 v 6.46"
           id="path8275"
           style="fill:#000000;stroke:#000000" /><path
           d="m 19.23,19.175 -0.85,0.85"
           id="path8277"
           style="fill:#000000;stroke:#000000" /></g><g
         style="fill:#000000;fill-opacity:0;stroke:#000000;stroke-width:0.5;stroke-linecap:round;stroke-linejoin:round;stroke-opacity:1"
         id="g8299"><path
           d="m 13.01,50.485 v 3.04"
           id="path8281"
           style="fill:#000000;stroke:#000000" /><path
           d="m 13.26,30.315 0.54,-0.54"
           id="path8283"
           style="fill:#000000;stroke:#000000" /><path
           d="m 13.26,32.775 v -2.46"
           id="path8285"
           style="fill:#000000;stroke:#000000" /><path
           d="m 13.05,43.525 -0.04,0.04"
           id="path8287"
           style="fill:#000000;stroke:#000000" /><path
           d="m 13.01,43.565 v 3.21"
           id="path8289"
           style="fill:#000000;stroke:#000000" /><path
           d="m 8.8,7.275 v 14.79"
           id="path8291"
           style="fill:#000000;stroke:#000000" /><path
           d="m 8.8,22.065 4.46,4.46"
           id="path8293"
           style="fill:#000000;stroke:#000000" /><path
           d="m 13.05,19.775 0.25,0.25"
           id="path8295"
           style="fill:#000000;stroke:#000000" /><path
           d="m 13.05,17.025 v 2.75"
           id="path8297"
           style="fill:#000000;stroke:#000000" /></g><g
         style="fill:#000000;fill-opacity:0;stroke:#000000;stroke-width:1;stroke-linecap:round;stroke-linejoin:round;stroke-opacity:1"
         id="g8313"><path
           d="m 15.84,20.025 v 6.46"
           id="path8301"
           style="fill:#000000;stroke:#000000" /><path
           d="m 16.55,14.025 -0.75,0.75"
           id="path8303"
           style="fill:#000000;stroke:#000000" /><path
           d="m 15.8,14.775 v 5.21"
           id="path8305"
           style="fill:#000000;stroke:#000000" /><path
           d="m 15.8,19.985 0.04,0.04"
           id="path8307"
           style="fill:#000000;stroke:#000000" /><path
           d="m 15.8,26.525 v 6.25"
           id="path8309"
           style="fill:#000000;stroke:#000000" /><path
           d="m 15.84,26.485 -0.04,0.04"
           id="path8311"
           style="fill:#000000;stroke:#000000" /></g><g
         id="g8315"
         style="fill:#000000;stroke:#000000" /><g
         style="fill:#000000;fill-opacity:0;stroke:#000000;stroke-width:1;stroke-linecap:round;stroke-linejoin:round;stroke-opacity:1"
         id="g8325"><g
           id="g8317"
           style="fill:#000000;stroke:#000000" /><g
           style="fill:#000000;fill-opacity:1;stroke:#000000;stroke-width:0;stroke-linecap:round;stroke-linejoin:round;stroke-opacity:1"
           id="g8323"><path
             style="fill:#000000;fill-opacity:1;fill-rule:evenodd;stroke:#000000;stroke-width:0;stroke-linecap:round;stroke-linejoin:round;stroke-opacity:1"
             d="m 22.2425,5.1047 0.0458,0.0528 0.0112,0.0515 v 53.6915 l -0.0197,0.067 -0.0528,0.0458 -0.0515,0.0112 H 11.7429 l -0.067,-0.0197 -0.0457,-0.0528 -0.01,-0.0691 0.029,-0.0636 0.0535,-0.0361 0.0915,-0.0314 0.1106,-0.038 0.2187,-0.1183 0.1962,-0.1528 0.1685,-0.1829 0.136,-0.2082 0.0999,-0.2277 0.061,-0.2411 0.0057,-0.0689 0.0148,-0.1789 v 0 l -0.0205,-0.2478 v 0 l -0.061,-0.2411 -0.0999,-0.2277 -0.136,-0.2082 -0.0518,-0.0562 -0.1167,-0.1267 -0.1962,-0.1528 v 0 0 l -0.2187,-0.1183 v 0 l -0.2352,-0.0808 -0.2453,-0.0409 h -0.0186 l -0.067,-0.0197 -0.0458,-0.0528 -0.0112,-0.0515 v -4.9432 l 0.0197,-0.067 0.0528,-0.0458 0.0692,-0.0099 0.0635,0.029 0.0378,0.0588 0.0012,0.0045 0.06,0.237 0.0999,0.2277 0.136,0.2082 v 0 l 0.1685,0.1829 0.1962,0.1528 0.008,0.0043 0.0496,0.0492 0.0154,0.0599 v 0.1916 l -0.0197,0.067 -0.0528,0.0458 -0.0515,0.0112 h -0.0234 v 0 l -0.0596,0.0064 -0.1348,0.0503 v 0 l -0.1152,0.0863 v 0 l -0.0863,0.1152 v 0 l -0.0503,0.1348 -0.0064,0.0596 v 0 1.7958 0 l 0.0064,0.0596 0.0503,0.1348 v 0 l 0.0863,0.1152 v 0 l 0.1152,0.0863 v 0 l 0.1348,0.0503 v 0 l 0.0069,7e-4 0.0527,0.0057 h 1.7958 l 0.0596,-0.0064 0.1348,-0.0503 0.1152,-0.0863 0.0863,-0.1152 0.0055,-0.0148 0.0419,-0.0559 0.0655,-0.0244 0.0682,0.0148 0.0494,0.0494 0.0152,0.0595 v 0.5446 l -0.0197,0.0671 -0.0528,0.0457 -0.0311,0.0095 -0.0155,0.0026 -0.2352,0.0808 v 0 l -0.2187,0.1183 -0.1962,0.1528 -0.1685,0.1829 -0.136,0.2082 -0.0999,0.2277 -0.061,0.2411 v 0 l -0.0205,0.2478 v 0 l 0.0205,0.2478 v 0 l 0.061,0.2411 0.0999,0.2277 0.136,0.2082 v 0 l 0.1685,0.1829 0.1962,0.1528 0.2187,0.1183 0.2352,0.0808 0.2453,0.0409 h 0.2486 l 0.2453,-0.0409 0.2352,-0.0808 0.2187,-0.1183 0.1962,-0.1528 0.1685,-0.1829 0.136,-0.2082 0.0999,-0.2277 0.061,-0.2411 0.0031,-0.0369 0.0174,-0.2109 v 0 l -0.0025,-0.0309 0.0141,-0.0684 0.0077,-0.0126 0.0219,-0.0315 0.0056,-0.0075 0.0373,-0.0457 0.0141,-0.027 0.0081,-0.0134 0.0174,-0.0249 v -1e-4 l 0.0233,-0.0542 0.004,-0.0084 0.0273,-0.0524 0.0084,-0.0292 0.0052,-0.0148 0.012,-0.0279 v 0 l 0.0119,-0.0579 0.0022,-0.009 0.0163,-0.0568 0.0023,-0.0303 0.0022,-0.0156 0.0061,-0.0298 v -0.0589 l 4e-4,-0.0095 0.0044,-0.0588 -0.0038,-0.0302 -0.001,-0.0156 v -1.4679 l 0.0197,-0.0671 0.0166,-0.0206 0.0017,-0.0017 0.1302,-0.186 0.0546,-0.0436 0.0695,-0.0072 0.0624,0.0315 0.0167,0.0193 0.13,0.1857 0.167,0.167 0.1935,0.1355 0.2141,0.0998 v 0 l 0.2135,0.0572 v -0.8951 l 0.1077,0.0492 0.1065,0.0153 h 0.0716 l 0.1065,-0.0153 0.1077,-0.0492 v 0.8951 l 0.2135,-0.0572 v 0 l 0.2141,-0.0998 0.1935,-0.1355 0.167,-0.167 0.1355,-0.1935 0.0998,-0.2141 v 0 L 19.4206,53.775 H 18.5237 L 18.5495,53.7348 18.59,53.5969 V 53.4531 L 18.5495,53.3152 18.5237,53.275 h 0.8969 v 0 l -0.0572,-0.2135 v 0 l -0.0998,-0.2141 v 0 l -0.1355,-0.1935 v 0 l -0.167,-0.167 -0.1935,-0.1355 -0.2141,-0.0998 v 0 L 18.34,52.1944 v 0.8951 L 18.2323,53.0403 18.1258,53.025 h -0.0716 l -0.1065,0.0153 -0.1077,0.0492 v -0.8951 0 l -0.2135,0.0572 v 0 l -0.2141,0.0998 v 0 l -0.1935,0.1355 v 0 l -0.167,0.167 v 0 l -0.13,0.1857 -0.0546,0.0436 -0.0695,0.0072 -0.0623,-0.0315 -0.0168,-0.0193 -0.1302,-0.186 -0.0017,-0.0017 -5e-4,-9e-4 -0.0013,-0.0016 3e-4,-2e-4 -0.032,-0.0586 -0.0028,-0.0264 v -4.8284 l 0.0197,-0.0671 0.0166,-0.0206 0.0017,-0.0017 0.1302,-0.186 0.0546,-0.0436 0.0695,-0.0072 0.0624,0.0315 0.0167,0.0193 0.13,0.1857 0.167,0.167 0.1935,0.1355 0.2141,0.0998 v 0 l 0.2135,0.0572 v -0.8951 l 0.1077,0.0492 0.1065,0.0153 h 0.0716 l 0.1065,-0.0153 0.1077,-0.0492 v 0.8951 l 0.2135,-0.0572 v 0 l 0.2141,-0.0998 0.1935,-0.1355 0.167,-0.167 0.1355,-0.1935 0.0998,-0.2141 v 0 L 19.4206,47.025 H 18.5237 L 18.5495,46.9848 18.59,46.8469 V 46.7031 L 18.5495,46.5652 18.5237,46.525 h 0.8969 v 0 l -0.0572,-0.2135 v 0 l -0.0998,-0.2141 v 0 l -0.1355,-0.1935 v 0 l -0.167,-0.167 -0.1935,-0.1355 -0.2141,-0.0998 v 0 L 18.34,45.4444 v 0.8951 L 18.2323,46.2903 18.1258,46.275 h -0.0716 l -0.1065,0.0153 -0.1077,0.0492 v -0.8951 0 l -0.2135,0.0572 v 0 l -0.2141,0.0998 v 0 l -0.1935,0.1355 v 0 l -0.167,0.167 v 0 l -0.13,0.1857 -0.0546,0.0436 -0.0695,0.0072 -0.0623,-0.0315 -0.0168,-0.0193 -0.1302,-0.186 -0.1671,-0.1671 v 0 L 16.2278,45.601 v 0 0 l -0.2141,-0.0999 v 0 0 l -0.2283,-0.0612 v 0 L 15.55,45.4193 v 0 l -0.2354,0.0206 v 0 l -0.2283,0.0612 v 0 l -0.2141,0.0999 v 0 l -0.1936,0.1355 -0.1219,0.1219 -0.0613,0.0335 -0.0697,-0.005 -0.056,-0.0418 -0.0169,-0.031 -0.049,-0.1314 v 0 l -0.0863,-0.1152 v 0 l -0.1152,-0.0863 v 0 l -0.1348,-0.0503 v 0 l -0.0596,-0.0064 v 0 0 0 h -0.0234 l -0.067,-0.0197 -0.0458,-0.0528 -0.0112,-0.0515 v -0.38 l 0.0197,-0.067 0.0453,-0.042 0.048,-0.026 v 0 0 l 0.1962,-0.1528 0.1685,-0.1829 0.136,-0.2082 0.0999,-0.2277 0.061,-0.2411 0.0176,-0.2124 0.0029,-0.0354 v 0 l -0.0205,-0.2478 v 0 l -0.061,-0.2411 -0.0999,-0.2277 -0.136,-0.2082 -0.0216,-0.0235 -0.1469,-0.1594 -0.1962,-0.1528 v 0 0 l -0.2187,-0.1183 v 0 l -0.2352,-0.0808 -0.2453,-0.0409 h -0.2486 l -0.2453,0.0409 -0.2352,0.0808 v 0 l -0.2187,0.1183 -0.1962,0.1528 -0.1685,0.1829 -0.136,0.2082 -0.0999,0.2277 -0.061,0.2411 v 0 l -0.0205,0.2478 v 0 l 0.0205,0.2478 v 0 l 0.061,0.2411 0.0999,0.2277 0.136,0.2082 v 0 l 0.1685,0.1829 v 0 0 l 0.1814,0.1412 0.0408,0.0567 0.007,0.0412 v 0.4287 l -0.0197,0.067 -0.0528,0.0458 -0.0515,0.0112 h -0.0234 v 0 l -0.0596,0.0064 -0.1348,0.0503 v 0 l -0.1152,0.0863 v 0 l -0.0863,0.1152 v 0 l -0.0503,0.1348 -0.0064,0.0596 v 0 1.7958 0 l 0.0064,0.0596 0.0503,0.1348 v 0 l 0.0863,0.1152 v 0 l 0.1152,0.0863 v 0 l 0.1348,0.0503 v 0 l 0.0069,7e-4 0.0527,0.0057 h 1.7958 l 0.0596,-0.0064 0.1348,-0.0503 0.1152,-0.0863 0.0863,-0.1152 0.0055,-0.0148 0.0419,-0.0559 0.0655,-0.0244 0.0682,0.0148 0.0494,0.0494 0.0152,0.0595 v 1.7856 l -0.0197,0.067 -0.0528,0.0458 -0.0691,0.0099 -0.0636,-0.029 -0.0226,-0.0259 -0.1235,-0.1891 -0.1075,-0.1167 -0.061,-0.0662 -0.1962,-0.1528 v 0 0 l -0.2187,-0.1183 v 0 l -0.2352,-0.0808 -0.2453,-0.0409 h -0.2486 l -0.2453,0.0409 -0.2352,0.0808 v 0 l -0.2187,0.1183 -0.1962,0.1528 -0.1685,0.1829 -0.136,0.2082 -0.0999,0.2277 -0.06,0.237 -0.0355,0.0602 -0.0624,0.0314 -0.0695,-0.0074 -0.0545,-0.0437 -0.0222,-0.0663 -10e-5,-0.0046 V 41.966 l 0.0197,-0.067 0.0166,-0.0207 0.9665,-0.9665 0.0614,-0.0335 0.0263,-0.0028 h 0.4957 v 0 l 0.0596,-0.0064 0.1348,-0.0503 0.1152,-0.0863 0.0863,-0.1152 0.049,-0.1314 0.0419,-0.0559 0.0654,-0.0244 0.0683,0.0148 0.0283,0.0212 0.1219,0.1219 0.0968,0.0678 0.0968,0.0677 v 0 0 l 0.2141,0.0999 0.2283,0.0612 0.1883,0.0164 0.0471,0.0042 v 0 0 l 0.0392,-0.0035 0.1962,-0.0171 0.2283,-0.0612 0.2141,-0.0999 0.1936,-0.1355 0.1671,-0.1671 0.1299,-0.1856 0.0546,-0.0436 0.0695,-0.0072 0.0624,0.0315 0.0167,0.0193 0.1297,0.1853 2e-4,3e-4 0.1671,0.1671 0.0968,0.0678 0.0968,0.0677 v 0 0 l 0.2141,0.0999 0.2283,0.0612 0.1883,0.0164 0.0471,0.0042 v 0 0 l 0.0392,-0.0035 0.1962,-0.0171 0.2283,-0.0612 0.2141,-0.0999 0.1936,-0.1355 0.1671,-0.1671 0.1302,-0.186 0.0546,-0.0436 0.0695,-0.0072 0.0624,0.0315 0.0167,0.0193 0.13,0.1857 0.167,0.167 0.1935,0.1355 0.2141,0.0998 v 0 l 0.2135,0.0572 v -0.8951 l 0.1077,0.0492 0.1065,0.0153 h 0.0716 l 0.1065,-0.0153 0.1077,-0.0492 v 0.8951 l 0.2135,-0.0572 v 0 l 0.2141,-0.0998 0.1935,-0.1355 0.167,-0.167 0.1355,-0.1935 0.0998,-0.2141 v 0 L 20.9206,39.775 H 20.0237 L 20.0495,39.7348 20.09,39.5969 V 39.4531 L 20.0495,39.3152 20.0237,39.275 h 0.8969 v 0 l -0.0572,-0.2135 v 0 l -0.0998,-0.2141 v 0 l -0.1355,-0.1935 v 0 l -0.167,-0.167 -0.1935,-0.1355 -0.2141,-0.0998 v 0 L 19.84,38.1944 v 0.8951 L 19.7323,39.0403 19.6258,39.025 h -0.0716 l -0.1065,0.0153 -0.1077,0.0492 v -0.8951 0 l -0.2135,0.0572 v 0 l -0.2141,0.0998 v 0 l -0.1935,0.1355 v 0 l -0.167,0.167 v 0 l -0.13,0.1857 -0.0546,0.0436 -0.0695,0.0072 -0.0623,-0.0315 -0.0168,-0.0193 -0.1302,-0.186 -0.0017,-0.0017 -5e-4,-9e-4 -0.0013,-0.0016 3e-4,-2e-4 -0.032,-0.0586 -0.0028,-0.0264 v -1.7149 -0.0032 l 0.0023,-0.0875 v 0 0 l -0.0105,-0.058 -0.0013,-0.0094 -0.0059,-0.0586 -0.0091,-0.0291 -0.0038,-0.0152 -0.0053,-0.03 -0.0219,-0.0547 -0.0032,-0.0089 -0.0176,-0.0563 v 0 0 l -0.0148,-0.0266 -0.0067,-0.0142 -0.0113,-0.0282 v 0 L 17.9089,36.3201 17.904,36.3121 17.8754,36.2605 17.8556,36.2374 17.8461,36.2249 17.8294,36.1995 17.7877,36.1578 17.7813,36.1509 17.7429,36.1061 17.7188,36.0875 17.707,36.0771 16.8368,35.2069 16.8033,35.1456 16.8005,35.1192 v -1.3834 l 0.0197,-0.0671 0.0166,-0.0206 0.0017,-0.0017 0.1302,-0.186 0.0546,-0.0436 0.0695,-0.0072 0.0624,0.0315 0.0167,0.0193 0.13,0.1857 0.167,0.167 0.1935,0.1355 0.2141,0.0998 v 0 l 0.2135,0.0572 v -0.8951 l 0.1077,0.0492 0.1065,0.0153 h 0.0716 l 0.1065,-0.0153 0.1077,-0.0492 v 0.8951 l 0.2135,-0.0572 v 0 l 0.2141,-0.0998 0.1935,-0.1355 0.167,-0.167 0.1355,-0.1935 0.0998,-0.2141 v 0 L 19.6706,33.025 H 18.7737 L 18.7995,32.9848 18.84,32.8469 V 32.7031 L 18.7995,32.5652 18.7737,32.525 h 0.8969 v 0 l -0.0572,-0.2135 v 0 l -0.0998,-0.2141 v 0 l -0.1355,-0.1935 v 0 l -0.167,-0.167 -0.1935,-0.1355 -0.2141,-0.0998 v 0 L 18.59,31.4444 v 0.8951 L 18.4823,32.2903 18.3758,32.275 h -0.0716 l -0.1065,0.0153 -0.1077,0.0492 v -0.8951 0 l -0.2135,0.0572 v 0 l -0.2141,0.0998 v 0 l -0.1935,0.1355 v 0 l -0.167,0.167 v 0 l -0.13,0.1857 -0.0546,0.0436 -0.0695,0.0072 -0.0623,-0.0315 -0.0168,-0.0193 -0.1302,-0.186 -0.0017,-0.0017 -5e-4,-9e-4 -0.0013,-0.0016 3e-4,-2e-4 -0.032,-0.0586 -0.0028,-0.0264 v -4.3284 l 0.0197,-0.0671 0.0166,-0.0206 0.0017,-0.0017 0.1302,-0.186 0.0546,-0.0436 0.0695,-0.0072 0.0624,0.0315 0.0167,0.0193 0.13,0.1857 0.167,0.167 0.1935,0.1355 0.2141,0.0998 v 0 l 0.2135,0.0572 v -0.8951 l 0.1077,0.0492 0.1065,0.0153 h 0.0716 l 0.1065,-0.0153 0.1077,-0.0492 v 0.8951 l 0.2135,-0.0572 v 0 l 0.2141,-0.0998 0.1935,-0.1355 0.167,-0.167 0.1355,-0.1935 0.0998,-0.2141 v 0 L 19.6706,26.775 H 18.7737 L 18.7995,26.7348 18.84,26.5969 V 26.4531 L 18.7995,26.3152 18.7737,26.275 h 0.8969 v 0 l -0.0572,-0.2135 v 0 l -0.0998,-0.2141 v 0 l -0.1355,-0.1935 v 0 l -0.167,-0.167 -0.1935,-0.1355 -0.2141,-0.0998 v 0 L 18.59,25.1944 v 0.8951 L 18.4823,26.0403 18.3758,26.025 h -0.0716 l -0.1065,0.0153 -0.1077,0.0492 v -0.8951 0 l -0.2135,0.0572 v 0 l -0.2141,0.0998 v 0 l -0.1935,0.1355 v 0 l -0.167,0.167 v 0 l -0.13,0.1857 -0.0546,0.0436 -0.0695,0.0072 -0.0623,-0.0315 -0.0168,-0.0193 -0.1058,-0.1511 -0.0223,-0.0662 -10e-5,-0.0049 v -4.6316 l 0.0197,-0.0671 0.0166,-0.0206 0.0017,-0.0017 0.1302,-0.186 0.0546,-0.0436 0.0695,-0.0072 0.0624,0.0315 0.0167,0.0193 0.13,0.1857 0.167,0.167 0.1935,0.1355 0.2141,0.0998 v 0 l 0.2135,0.0572 v -0.8951 l 0.1077,0.0492 0.1065,0.0153 h 0.0716 l 0.1065,-0.0153 0.1077,-0.0492 v 0.8951 l 0.2135,-0.0572 v 0 l 0.2141,-0.0998 0.1935,-0.1355 0.167,-0.167 0.1355,-0.1935 0.0998,-0.2141 v 0 L 19.7106,20.275 H 18.8137 L 18.8395,20.2348 18.88,20.0969 V 19.9531 L 18.8395,19.8152 18.8137,19.775 h 0.8969 v 0 l -0.0572,-0.2135 v 0 l -0.0998,-0.2141 v 0 l -0.1355,-0.1935 v 0 l -0.167,-0.167 -0.1935,-0.1355 -0.2141,-0.0998 v 0 L 18.63,18.6944 v 0.8951 L 18.5223,19.5403 18.4158,19.525 h -0.0716 l -0.1065,0.0153 -0.1077,0.0492 v -0.8951 0 l -0.2135,0.0572 v 0 l -0.2141,0.0998 v 0 l -0.1935,0.1355 v 0 l -0.167,0.167 v 0 l -0.13,0.1857 -0.0546,0.0436 -0.0695,0.0072 -0.0624,-0.0315 -0.0167,-0.0193 -0.1302,-0.186 -0.0417,-0.0417 -0.0335,-0.0613 -0.0028,-0.0264 v -2.6247 l 0.0197,-0.067 0.0528,-0.0458 0.0515,-0.0112 h 1.4234 v 0 l 0.0596,-0.0064 0.1348,-0.0503 0.1152,-0.0863 0.0863,-0.1152 0.0503,-0.1348 0.0064,-0.0596 v -3.5958 l -0.0064,-0.0596 -10e-5,-3e-4 -0.0502,-0.1345 v 0 l -0.0863,-0.1152 v 0 l -0.1152,-0.0863 v 0 l -0.1348,-0.0503 v 0 l -0.0596,-0.0064 v 0 0 0 h -3.5958 v 0 l -0.0596,0.0064 -0.1348,0.0503 v 0 l -0.1152,0.0863 v 0 l -0.0863,0.1152 v 0 l -0.0182,0.0488 -0.0419,0.0559 -0.0654,0.0245 -0.0683,-0.0149 -0.0494,-0.0494 -0.015,-0.066 0.002,-0.038 v 0 -0.7186 h -1.75 v -0.5 h 1.75 v -0.7186 0 L 14.0972,10.0038 14.0528,9.774 13.9701,9.555 13.8517,9.3532 v 0 l -0.1509,-0.179 v 0 l -0.179,-0.1509 v 0 L 13.32,8.9049 13.101,8.8222 12.8712,8.7778 12.8186,8.775 v 0 H 12.1 V 9.5913 L 12.0598,9.5655 11.9219,9.525 H 11.7781 L 11.6402,9.5655 11.6,9.5913 V 8.775 h -0.7186 v 0 L 10.8288,8.7778 10.599,8.8222 10.38,8.9049 10.1782,9.0233 v 0 l -0.179,0.1509 v 0 l -0.1509,0.179 v 0 L 9.7814,9.4672 9.7305,9.515 9.6618,9.5277 9.5972,9.5013 9.557,9.4441 9.5505,9.4044 V 8.6489 L 9.5702,8.5818 9.6155,8.5398 9.6235,8.5355 9.8197,8.3827 9.9882,8.1998 10.1242,7.9916 10.2192,7.775 H 14.3 15.1163 L 15.0905,7.8152 15.05,7.9531 v 0.1438 l 0.0405,0.1379 0.0258,0.0402 H 14.3 v 0.5642 l 0.0104,0.1321 0.055,0.2182 0.093,0.2049 v 0 l 0.1282,0.1849 v 0 l 0.1591,0.1591 v 0 l 0.1849,0.1282 v 0 l 0.2049,0.093 0.2182,0.055 0.1321,0.0104 H 16.3 v 0 -1.5 h 0.5 v 1.5 h 0.8142 v 0 l 0.1321,-0.0104 0.2182,-0.055 0.2049,-0.093 v 0 l 0.1849,-0.1282 v 0 l 0.1591,-0.1591 v 0 l 0.1282,-0.1849 v 0 L 18.7346,9.1895 18.7896,8.9713 18.8,8.8392 v 0 V 8.275 H 17.9837 L 18.0095,8.2348 18.05,8.0969 V 7.9531 L 18.0095,7.8152 17.9837,7.775 H 18.8 v -0.5642 0 L 18.7896,7.0787 18.7346,6.8605 18.6416,6.6556 v 0 L 18.5134,6.4707 v 0 L 18.3543,6.3116 v 0 L 18.1694,6.1834 v 0 L 17.9645,6.0904 17.7463,6.0354 17.6142,6.025 H 16.8 v 1.5 h -0.5 v -1.5 h -0.8142 v 0 l -0.1321,0.0104 -0.2182,0.055 -0.2049,0.093 v 0 l -0.1849,0.1282 v 0 l -0.1591,0.1591 v 0 l -0.1282,0.1849 v 0 L 14.3654,6.8605 14.3104,7.0787 14.3,7.2108 V 7.775 h -4.0808 l 0.0049,-0.0111 0.061,-0.2411 0.0184,-0.2215 0.0021,-0.0263 v 0 L 10.2851,7.0272 v 0 L 10.2241,6.7861 10.1242,6.5584 9.9882,6.3502 9.9526,6.3116 9.8197,6.1673 9.6235,6.0145 v 0 0 L 9.4048,5.8962 v 0 L 9.1696,5.8154 8.9243,5.7745 H 8.6757 L 8.4304,5.8154 8.1952,5.8962 v 0 L 7.9765,6.0145 7.7803,6.1673 7.6118,6.3502 7.4758,6.5584 7.3759,6.7861 7.3149,7.0272 v 0 L 7.2944,7.275 v 0 l 0.0205,0.2478 v 0 l 0.061,0.2411 0.0999,0.2277 0.136,0.2082 v 0 l 0.1685,0.1829 0.1962,0.1528 0.008,0.0043 0.0496,0.0492 0.0154,0.0599 v 13.3524 l -0.0013,0.018 -0.0035,0.0237 0.0043,0.0494 5e-4,0.0108 v 0.0055 l 0.0036,0.0308 4e-4,0.0036 0.0065,0.0747 0.0015,0.0071 h -10e-5 l 0.0016,0.0073 h 10e-5 l 0.0017,0.007 0.0256,0.0705 0.0012,0.0034 0.0236,0.0712 0.003,0.0066 v 0 l 0.0033,0.0068 v 0 l 0.0033,0.0064 0.0412,0.0627 0.0019,0.003 0.0311,0.0504 0.0083,0.0135 0.0045,0.0056 -10e-5,10e-5 0.0048,0.0058 v 0 l 0.0047,0.0055 0.0545,0.0514 0.0026,0.0026 3.5949,3.5948 0.0335,0.0614 0.0028,0.0263 v 1.1357 0 l 0.0064,0.0596 0.0503,0.1348 v 0 l 0.0863,0.1152 v 0 l 0.1152,0.0863 v 0 l 0.1348,0.0503 v 0 l 0.0069,7e-4 0.0527,0.0057 h 1.7958 l 0.0596,-0.0064 0.1348,-0.0503 0.1152,-0.0863 0.0863,-0.1152 0.0055,-0.0148 0.0419,-0.0559 0.0655,-0.0244 0.0682,0.0148 0.0494,0.0494 0.0152,0.0595 v 0.7558 l -0.0197,0.067 -0.0528,0.0458 -0.0691,0.0099 -0.0414,-0.0137 -0.2117,-0.1145 v 0 0 0 0 l -0.2352,-0.0808 -0.2453,-0.0409 h -0.2486 l -0.2453,0.0409 -0.2352,0.0808 v 0 l -0.2187,0.1183 -0.1962,0.1528 -0.1685,0.1829 -0.136,0.2082 -0.0999,0.2277 -0.061,0.2411 v 0 l -0.0205,0.2478 v 0 l 0.0205,0.2478 v 0 l 0.061,0.2411 0.0999,0.2277 0.0135,0.0206 0.0202,0.0669 v 0.001 0.7204 l -0.0197,0.067 -0.0528,0.0458 -0.0515,0.0112 h -0.0234 v 0 l -0.0596,0.0064 -0.1348,0.0503 v 0 l -0.1152,0.0863 v 0 l -0.0863,0.1152 v 0 l -0.0503,0.1348 -0.0064,0.0596 v 0 1.7958 0 l 0.0064,0.0596 0.0503,0.1348 v 0 l 0.0863,0.1152 v 0 l 0.1152,0.0863 v 0 l 0.1348,0.0503 v 0 l 0.0069,7e-4 0.0527,0.0057 h 1.7958 l 0.0596,-0.0064 0.1348,-0.0503 0.1152,-0.0863 0.0863,-0.1152 0.0055,-0.0148 0.0419,-0.0559 0.0655,-0.0244 0.0682,0.0148 0.0494,0.0494 0.0152,0.0595 v 1.6748 0.0032 l -0.0023,0.0875 v 0 l 0.0104,0.058 0.0014,0.0093 0.0059,0.0587 v 0 l 0.0091,0.0291 0.0038,0.0152 0.0053,0.03 v 0 l 0.0219,0.0547 0.0032,0.0089 0.0176,0.0563 v 0 0 l 0.0148,0.0266 0.0067,0.0142 0.0113,0.0282 v 0 l 0.0325,0.0493 0.0049,0.008 0.0286,0.0516 v 0 0 l 0.0198,0.0231 0.0095,0.0125 0.0167,0.0254 0.0417,0.0417 0.0064,0.0069 0.0384,0.0448 0.0241,0.0186 0.0118,0.0104 0.8702,0.8702 0.0335,0.0613 0.0028,0.0264 v 1.2634 l -0.0197,0.0671 -0.0166,0.0206 -0.0017,0.0017 -0.1299,0.1856 -0.0546,0.0436 -0.0695,0.0072 -0.0624,-0.0315 -0.0167,-0.0193 -0.1299,-0.1856 -0.1671,-0.1671 v 0 L 15.3727,38.4804 15.3425,38.4593 15.1878,38.351 v 0 l -0.0903,-0.0421 -0.0327,-0.0222 -0.0305,-0.0289 -0.0026,-0.0025 -1.156,-1.1559 -0.0118,-0.0137 -0.0143,-0.0192 -0.0379,-0.0319 -0.008,-0.0073 -0.0039,-0.0039 -0.0244,-0.0192 -0.0028,-0.0023 -0.0574,-0.0482 -0.006,-0.004 v 0 l -0.0063,-0.0041 -10e-5,1e-4 -0.0061,-0.0038 v 0 0 l -0.068,-0.0317 -0.0033,-0.0016 -0.0367,-0.0185 -0.0303,-0.0151 v 0 0 l -0.0068,-0.0025 10e-5,-1e-4 -0.0072,-0.0024 v 0 l -0.0068,-0.0023 -0.0735,-0.0151 -0.0035,-8e-4 -0.073,-0.0173 -0.0072,-8e-4 10e-5,-1e-4 -0.0075,-8e-4 -1e-4,1e-4 -0.0071,-6e-4 -0.075,0.0021 -0.0036,10e-5 h -2.4236 l -0.018,-0.0013 -0.0237,-0.0035 -0.0452,0.004 -0.0042,3e-4 -0.0108,5e-4 h -0.0055 l -0.0308,0.0036 -0.0036,4e-4 -0.0747,0.0065 -0.0071,0.0015 v -10e-5 l -0.0073,0.0016 v 1e-4 l -0.0071,0.0017 -0.0705,0.0256 -0.0033,0.0012 -0.0391,0.0129 -0.0321,0.0107 -0.0066,0.003 v 0 l -0.0068,0.0033 v 0 l -0.0064,0.0033 -0.0627,0.0412 -0.003,0.0019 -0.0639,0.0394 -0.0056,0.0045 -10e-5,-1e-4 -0.0058,0.0048 v 0 l -0.0055,0.0047 v 0 0 l -0.0236,0.025 -0.0279,0.0295 -0.0025,0.0026 -1.6959,1.696 -0.0137,0.0118 -0.0192,0.0143 -0.0319,0.0379 -0.0073,0.008 -0.0039,0.0039 -0.0192,0.0243 -0.0023,0.0028 -0.0482,0.0575 -0.004,0.006 v 0 l -0.0041,0.0063 10e-5,1e-4 -0.0038,0.0061 -0.0317,0.068 -0.0016,0.0032 -0.0336,0.0671 -0.0025,0.0068 -10e-5,-10e-5 -0.0024,0.0071 v 10e-5 l -0.0023,0.0068 -0.0151,0.0735 -8e-4,0.0035 -0.0173,0.073 -8e-4,0.0072 -10e-5,-1e-4 -8e-4,0.0075 10e-5,1e-4 -6e-4,0.0071 0.0021,0.075 10e-5,0.0036 V 55.5218 L 8.2798,55.5889 8.227,55.6346 8.2158,55.6391 8.1952,55.6462 v 0 l -0.2187,0.1183 -0.1962,0.1528 -0.1685,0.1829 -0.136,0.2082 -0.0999,0.2277 -0.061,0.2411 v 0 L 7.2944,57.025 v 0 l 0.0205,0.2478 v 0 l 0.061,0.2411 0.0999,0.2277 0.136,0.2082 v 0 l 0.1685,0.1829 0.1962,0.1528 0.2187,0.1183 0.2352,0.0808 0.2453,0.0409 h 0.2486 l 0.2453,-0.0409 0.2352,-0.0808 0.2187,-0.1183 0.1962,-0.1528 0.0144,-0.0156 0.0599,-0.036 0.0699,0.0021 0.0576,0.0395 0.0077,0.0106 0.0826,0.1265 v 0 l 0.1685,0.1829 0.1962,0.1528 0.2187,0.1183 0.0798,0.0274 0.1223,0.042 0.057,0.0404 0.0262,0.0648 -0.0131,0.0686 -0.0481,0.0507 -0.0622,0.0168 H 0.1745 L 0.1075,59.0048 0.0617,58.952 0.0505,58.9005 V 56.025 h 1.6038 l 0.0206,0.2354 v 0 l 0.0612,0.2283 v 0 0 l 0.0605,0.1297 0.0394,0.0844 v 0 l 0.052,0.0744 0.0835,0.1192 0.1671,0.1671 0.0968,0.0678 0.0968,0.0677 v 0 0 l 0.2141,0.0999 0.2283,0.0612 0.1764,0.0154 0.059,0.0052 v 0 0 l 0.059,-0.0052 0.1764,-0.0154 0.2283,-0.0612 0.2141,-0.0999 0.1936,-0.1355 0.1219,-0.1219 0.0613,-0.0335 0.0697,0.005 0.056,0.0418 0.0169,0.031 0.049,0.1314 v 0 l 0.0863,0.1152 v 0 l 0.1152,0.0863 v 0 l 0.1348,0.0503 v 0 l 0.0069,7e-4 0.0527,0.0057 H 6.4479 L 6.5075,57.3691 6.6423,57.3188 6.7575,57.2325 6.8438,57.1173 6.8941,56.9825 6.9005,56.9229 V 55.1271 L 6.8941,55.0675 6.8928,55.0641 6.8438,54.9327 v 0 L 6.7575,54.8175 v 0 L 6.6423,54.7312 v 0 L 6.5109,54.6822 6.455,54.6403 6.4306,54.5749 6.4454,54.5066 6.4666,54.4783 6.5885,54.3564 6.724,54.1628 6.8239,53.9487 6.8851,53.7204 6.9057,53.485 6.8851,53.2496 6.829,53.0403 6.8239,53.0213 v 0 0 L 6.724,52.8072 6.7184,52.7992 6.5885,52.6136 6.4214,52.4465 v 0 L 6.2358,52.3166 6.1922,52.262 6.185,52.1925 6.2165,52.1301 6.2358,52.1134 6.3257,52.0505 6.4214,51.9835 6.5885,51.8164 6.724,51.6228 6.8239,51.4087 6.8851,51.1804 6.9057,50.945 6.8851,50.7096 6.8386,50.5363 6.8239,50.4813 v 0 0 L 6.724,50.2672 6.7184,50.2592 6.5885,50.0736 6.4214,49.9065 v 0 L 6.2358,49.7766 6.1922,49.722 6.185,49.6525 6.2165,49.5901 6.2358,49.5734 6.258,49.5579 6.4214,49.4435 6.5885,49.2764 6.724,49.0828 6.8239,48.8687 6.8851,48.6404 6.9057,48.405 6.8851,48.1696 6.8239,47.9413 6.724,47.7272 6.7184,47.7192 6.5885,47.5336 6.4214,47.3665 v 0 L 6.2358,47.2366 6.1922,47.182 6.185,47.1125 6.2165,47.0501 6.2358,47.0334 6.2687,47.0104 6.4214,46.9035 6.5885,46.7364 6.724,46.5428 6.8239,46.3287 6.8851,46.1004 6.9057,45.865 6.8851,45.6296 6.8301,45.4245 6.8239,45.4013 v 0 0 L 6.724,45.1872 6.7184,45.1792 6.5885,44.9936 6.4214,44.8265 v 0 L 6.2358,44.6966 6.1922,44.642 6.185,44.5725 6.2165,44.5101 6.2358,44.4934 6.2982,44.4498 6.4214,44.3635 6.5885,44.1964 6.724,44.0028 6.8239,43.7887 6.8851,43.5604 6.9057,43.325 6.8851,43.0896 6.8239,42.8613 6.724,42.6472 6.7184,42.6392 6.5885,42.4536 6.4214,42.2865 v 0 L 6.2358,42.1566 6.1922,42.102 6.185,42.0325 6.2165,41.9701 6.2358,41.9534 6.2912,41.9147 6.4214,41.8235 6.5885,41.6564 6.724,41.4628 6.8239,41.2487 6.8851,41.0204 6.9057,40.785 6.8851,40.5496 6.8239,40.3213 6.724,40.1072 6.7184,40.0992 6.5885,39.9136 6.4214,39.7465 v 0 L 6.2358,39.6166 6.1922,39.562 6.185,39.4925 6.2165,39.4301 6.2358,39.4134 6.3297,39.3477 6.4214,39.2835 6.5885,39.1164 6.724,38.9228 6.8239,38.7087 6.8851,38.4804 6.9057,38.245 6.8851,38.0096 6.8239,37.7813 6.724,37.5672 6.7184,37.5592 6.5885,37.3736 6.4214,37.2065 v 0 L 6.2358,37.0766 6.1922,37.022 6.185,36.9525 6.2165,36.8901 6.2358,36.8734 6.272,36.8481 6.4214,36.7435 6.5885,36.5764 6.724,36.3828 6.8239,36.1687 6.8851,35.9404 6.9057,35.705 6.8851,35.4696 6.8239,35.2413 6.724,35.0272 6.7184,35.0192 6.5885,34.8336 6.4214,34.6665 v 0 L 6.2358,34.5366 6.1922,34.482 6.185,34.4125 6.2165,34.3501 6.2358,34.3334 6.258,34.3179 6.4214,34.2035 6.5885,34.0364 6.724,33.8428 6.8239,33.6287 6.8851,33.4004 6.9057,33.165 6.8851,32.9296 6.8239,32.7013 6.724,32.4872 6.7184,32.4792 6.5885,32.2936 6.4214,32.1265 v 0 L 6.2358,31.9966 6.1922,31.942 6.185,31.8725 6.2165,31.8101 6.2358,31.7934 6.3166,31.7369 6.4214,31.6635 6.5885,31.4964 6.724,31.3028 6.8239,31.0887 6.8851,30.8604 6.9057,30.625 6.8851,30.3896 6.8239,30.1613 6.724,29.9472 6.7184,29.9392 6.5885,29.7536 6.4214,29.5865 v 0 L 6.2358,29.4566 6.1922,29.402 6.185,29.3325 6.2165,29.2701 6.2358,29.2534 6.258,29.2379 6.4214,29.1235 6.5885,28.9564 6.724,28.7628 6.8239,28.5487 6.8851,28.3204 6.9057,28.085 6.8851,27.8496 6.8239,27.6213 6.724,27.4072 6.7184,27.3992 6.5885,27.2136 6.4214,27.0465 v 0 L 6.2358,26.9166 6.1922,26.862 6.185,26.7925 6.2165,26.7301 6.2358,26.7134 6.4023,26.5969 6.4214,26.5835 6.5885,26.4164 6.724,26.2228 6.8239,26.0087 6.8851,25.7804 6.9057,25.545 6.8851,25.3096 6.8239,25.0813 6.724,24.8672 6.7184,24.8592 6.5885,24.6736 6.4214,24.5065 v 0 L 6.2358,24.3766 6.1922,24.322 6.185,24.2525 6.2165,24.1901 6.2358,24.1734 6.258,24.1579 6.4214,24.0435 6.5885,23.8764 6.724,23.6828 6.8239,23.4687 6.8851,23.2404 6.9057,23.005 6.8851,22.7696 6.8249,22.5452 6.8239,22.5413 v 0 0 L 6.724,22.3272 6.7184,22.3192 6.5885,22.1336 6.4214,21.9665 v 0 L 6.2358,21.8366 6.1922,21.782 6.185,21.7125 6.2165,21.6501 6.2358,21.6334 6.258,21.6179 6.4214,21.5035 6.5885,21.3364 6.724,21.1428 6.8239,20.9287 6.8851,20.7004 6.9057,20.465 6.9043,20.45 6.8878,20.2604 6.8851,20.2296 6.8239,20.0013 6.724,19.7872 6.7184,19.7792 6.5885,19.5936 6.4214,19.4265 v 0 L 6.2358,19.2966 6.1922,19.242 6.185,19.1725 6.2165,19.1101 6.2358,19.0934 6.297,19.0506 6.4214,18.9635 6.5885,18.7964 6.724,18.6028 6.8239,18.3887 6.8851,18.1604 6.9057,17.925 6.8851,17.6896 6.8239,17.4613 6.724,17.2472 6.7184,17.2392 6.5885,17.0536 6.4214,16.8865 v 0 L 6.2358,16.7566 6.1922,16.702 6.185,16.6325 6.2165,16.5701 6.2358,16.5534 6.2606,16.5361 6.4214,16.4235 6.5885,16.2564 6.724,16.0628 6.8239,15.8487 6.8851,15.6204 6.9057,15.385 6.8851,15.1496 6.8239,14.9213 6.724,14.7072 6.7184,14.6992 6.5885,14.5136 6.4214,14.3465 v 0 L 6.2358,14.2166 6.1922,14.162 6.185,14.0925 6.2165,14.0301 6.2358,14.0134 6.258,13.9979 6.4214,13.8835 6.5885,13.7164 6.724,13.5228 6.8239,13.3087 6.8851,13.0804 6.9057,12.845 6.8851,12.6096 6.8239,12.3813 6.724,12.1672 6.7184,12.1592 6.5885,11.9736 6.4214,11.8065 v 0 L 6.2358,11.6766 6.1922,11.622 6.185,11.5525 6.2165,11.4901 6.2358,11.4734 6.258,11.4579 6.4214,11.3435 6.5885,11.1764 6.724,10.9828 6.8239,10.7687 6.8851,10.5404 6.9057,10.305 6.8851,10.0696 6.8239,9.8413 6.724,9.6272 6.7184,9.6192 6.5885,9.4336 6.4214,9.2665 v 0 L 6.2354,9.1363 6.1918,9.0817 6.1846,9.0122 6.2161,8.9498 6.2354,8.9331 6.4211,8.8031 6.5881,8.6361 6.7236,8.4426 6.8234,8.2285 v 0 L 6.8806,8.015 H 5.9837 L 6.0095,7.9748 6.05,7.8369 V 7.6931 L 6.0095,7.5552 5.9837,7.515 h 0.8969 v 0 L 6.8234,7.3015 v 0 L 6.7236,7.0874 v 0 L 6.5881,6.8939 v 0 L 6.4211,6.7269 6.2276,6.5914 6.0135,6.4916 v 0 L 5.8,6.4344 V 7.3295 L 5.6923,7.2803 5.5858,7.265 H 5.5142 L 5.4077,7.2803 5.3,7.3295 v -0.8951 0 L 5.0865,6.4916 v 0 L 4.8724,6.5914 v 0 L 4.6789,6.7269 v 0 l -0.167,0.167 v 0 L 4.3819,7.0796 4.3273,7.1232 4.2578,7.1304 4.1955,7.0989 4.1787,7.0796 4.0485,6.8936 3.8814,6.7265 v 0 L 3.6878,6.591 v 0 L 3.618,6.5584 3.4737,6.4911 v 0 0 L 3.2454,6.4299 v 0 L 3.01,6.4093 v 0 L 2.7746,6.4299 v 0 L 2.5463,6.4911 v 0 L 2.3322,6.591 v 0 L 2.1386,6.7265 1.9715,6.8936 1.836,7.0872 v 0 L 1.7361,7.3013 v 0 L 1.6749,7.5296 v 0 L 1.6543,7.765 v 0 l 0.0206,0.2354 v 0 l 0.0612,0.2283 v 0 0 l 0.0831,0.1781 0.0168,0.036 v 0 l 0.0925,0.1322 0.043,0.0614 v 0 l 0.1671,0.1671 v 0 L 2.3242,8.9334 2.3678,8.988 2.375,9.0575 2.3435,9.1199 2.3242,9.1366 2.1386,9.2665 1.9715,9.4336 1.836,9.6272 v 0 L 1.7361,9.8413 v 0 l -0.0612,0.2283 v 0 L 1.6543,10.305 v 0 l 0.0206,0.2354 v 0 l 0.0612,0.2283 v 0 0 L 1.74,10.777 1.836,10.9828 v 0 l 0.1083,0.1547 0.0272,0.0389 v 0 l 0.1671,0.1671 v 0 l 0.1856,0.1299 0.0436,0.0546 0.0072,0.0695 -0.0315,0.0624 -0.0193,0.0167 -0.1856,0.1299 -0.1671,0.1671 -0.1355,0.1936 v 0 l -0.0999,0.2141 v 0 l -0.0612,0.2283 v 0 L 1.6543,12.845 v 0 l 0.0206,0.2354 v 0 l 0.0612,0.2283 v 0 0 L 1.74,13.317 1.836,13.5228 v 0 l 0.1083,0.1547 0.0272,0.0389 v 0 l 0.1671,0.1671 v 0 l 0.1856,0.1299 0.0436,0.0546 0.0072,0.0695 -0.0315,0.0624 -0.0193,0.0167 -0.1856,0.1299 -0.1671,0.1671 -0.1355,0.1936 v 0 l -0.0999,0.2141 v 0 l -0.0612,0.2283 v 0 L 1.6543,15.385 v 0 l 0.0206,0.2354 v 0 l 0.0612,0.2283 v 0 0 l 0.0786,0.1686 0.0213,0.0455 v 0 l 0.0488,0.0697 0.0867,0.1239 v 0 l 0.1671,0.1671 v 0 l 0.1856,0.1299 0.0436,0.0546 0.0072,0.0695 -0.0315,0.0624 -0.0193,0.0167 -0.1856,0.1299 -0.1671,0.1671 -0.1355,0.1936 v 0 l -0.0999,0.2141 v 0 l -0.0612,0.2283 v 0 L 1.6543,17.925 v 0 l 0.0206,0.2354 v 0 l 0.0612,0.2283 v 0 0 L 1.74,18.397 1.836,18.6028 v 0 l 0.0899,0.1284 0.0456,0.0652 v 0 l 0.1671,0.1671 v 0 l 0.1856,0.1299 0.0436,0.0546 0.0072,0.0695 -0.0315,0.0624 -0.0193,0.0167 -0.1856,0.1299 -0.1671,0.1671 -0.1355,0.1936 v 0 l -0.0999,0.2141 v 0 l -0.0612,0.2283 v 0 L 1.6543,20.465 v 0 l 0.0206,0.2354 v 0 l 0.0612,0.2283 v 0 0 l 0.0946,0.2028 0.0053,0.0113 v 0 l 0.1083,0.1547 0.0272,0.0389 v 0 l 0.1671,0.1671 v 0 l 0.1856,0.1299 0.0436,0.0546 0.0072,0.0695 -0.0315,0.0624 -0.0193,0.0167 -0.1856,0.1299 -0.1671,0.1671 -0.1355,0.1936 v 0 l -0.0999,0.2141 v 0 l -0.0612,0.2283 v 0 L 1.6543,23.005 v 0 l 0.0206,0.2354 v 0 l 0.0612,0.2283 v 0 0 L 1.74,23.477 1.836,23.6828 v 0 l 0.1083,0.1547 0.0272,0.0389 v 0 l 0.1671,0.1671 v 0 l 0.1856,0.1299 0.0436,0.0546 0.0072,0.0695 -0.0315,0.0624 -0.0193,0.0167 -0.1856,0.1299 -0.1671,0.1671 -0.1355,0.1936 v 0 l -0.0999,0.2141 v 0 l -0.0612,0.2283 v 0 L 1.6543,25.545 v 0 l 0.0206,0.2354 v 0 l 0.0612,0.2283 v 0 0 L 1.7787,26.1 1.836,26.2228 v 0 l 0.0467,0.0668 0.0888,0.1268 v 0 l 0.1671,0.1671 v 0 l 0.1856,0.1299 0.0436,0.0546 0.0072,0.0695 -0.0315,0.0624 -0.0193,0.0167 -0.1856,0.1299 -0.1671,0.1671 -0.1355,0.1936 v 0 l -0.0999,0.2141 v 0 l -0.0612,0.2283 v 0 L 1.6543,28.085 v 0 l 0.0206,0.2354 v 0 l 0.0612,0.2283 v 0 0 l 0.0553,0.1186 0.0446,0.0955 v 0 l 0.0612,0.0874 0.0743,0.1062 v 0 l 0.1671,0.1671 v 0 l 0.1856,0.1299 0.0436,0.0546 0.0072,0.0695 -0.0315,0.0624 -0.0193,0.0167 -0.1856,0.1299 -0.1671,0.1671 -0.1355,0.1936 v 0 l -0.0999,0.2141 v 0 l -0.0612,0.2283 v 0 L 1.6543,30.625 v 0 l 0.0206,0.2354 v 0 l 0.0612,0.2283 v 0 0 l 0.068,0.1459 0.0319,0.0682 v 0 l 0.0675,0.0965 0.068,0.0971 v 0 l 0.1671,0.1671 v 0 l 0.1856,0.1299 0.0436,0.0546 0.0072,0.0695 -0.0315,0.0624 -0.0193,0.0167 -0.1856,0.1299 -0.1671,0.1671 -0.1355,0.1936 v 0 l -0.0999,0.2141 v 0 l -0.0612,0.2283 v 0 L 1.6543,33.165 v 0 l 0.0206,0.2354 v 0 l 0.0612,0.2283 v 0 0 l 0.0669,0.1435 0.033,0.0706 v 0 l 0.0371,0.0531 0.0984,0.1405 v 0 l 0.1671,0.1671 v 0 l 0.1856,0.1299 0.0436,0.0546 0.0072,0.0695 -0.0315,0.0624 -0.0193,0.0167 -0.1856,0.1299 -0.1671,0.1671 -0.1355,0.1936 v 0 l -0.0999,0.2141 v 0 l -0.0612,0.2283 v 0 L 1.6543,35.705 v 0 l 0.0206,0.2354 v 0 l 0.0612,0.2283 v 0 0 l 0.0946,0.2028 0.0053,0.0113 v 0 l 0.0814,0.1164 0.0541,0.0772 v 0 l 0.1671,0.1671 v 0 l 0.1856,0.1299 0.0436,0.0546 0.0072,0.0695 -0.0315,0.0624 -0.0193,0.0167 -0.1856,0.1299 -0.1671,0.1671 -0.1355,0.1936 v 0 l -0.0999,0.2141 v 0 l -0.0612,0.2283 v 0 L 1.6543,38.245 v 0 l 0.0206,0.2354 v 0 l 0.0612,0.2283 v 0 0 l 0.0611,0.1309 0.0388,0.0832 v 0 l 0.0822,0.1175 0.0533,0.0761 v 0 l 0.1671,0.1671 v 0 l 0.1856,0.1299 0.0436,0.0546 0.0072,0.0695 -0.0315,0.0624 -0.0193,0.0167 -0.1856,0.1299 -0.1671,0.1671 -0.1355,0.1936 v 0 l -0.0999,0.2141 v 0 l -0.0612,0.2283 v 0 L 1.6543,40.785 v 0 l 0.0206,0.2354 v 0 l 0.0612,0.2283 v 0 0 l 0.0548,0.1174 0.0451,0.0967 v 0 l 0.1083,0.1547 0.0272,0.0389 v 0 l 0.1671,0.1671 v 0 l 0.1856,0.1299 0.0436,0.0546 0.0072,0.0695 -0.0315,0.0624 -0.0193,0.0167 -0.1856,0.1299 -0.1671,0.1671 -0.1355,0.1936 v 0 l -0.0999,0.2141 v 0 l -0.0612,0.2283 v 0 L 1.6543,43.325 v 0 l 0.0206,0.2354 v 0 l 0.0612,0.2283 v 0 0 L 1.74,43.797 1.836,44.0028 v 0 l 0.1083,0.1547 0.0272,0.0389 v 0 l 0.1671,0.1671 v 0 l 0.1856,0.1299 0.0436,0.0546 0.0072,0.0695 -0.0315,0.0624 -0.0193,0.0167 -0.1856,0.1299 -0.1671,0.1671 -0.1355,0.1936 v 0 l -0.0999,0.2141 v 0 l -0.0612,0.2283 v 0 L 1.6543,45.865 v 0 l 0.0206,0.2354 v 0 l 0.0612,0.2283 v 0 0 L 1.74,46.337 1.836,46.5428 v 0 l 0.1083,0.1547 0.0272,0.0389 v 0 l 0.1671,0.1671 v 0 l 0.1856,0.1299 0.0436,0.0546 0.0072,0.0695 -0.0315,0.0624 -0.0193,0.0167 -0.1856,0.1299 -0.1671,0.1671 -0.1355,0.1936 v 0 l -0.0999,0.2141 v 0 l -0.0612,0.2283 v 0 L 1.6543,48.405 v 0 l 0.0206,0.2354 v 0 l 0.0612,0.2283 v 0 0 l 0.0799,0.1713 0.02,0.0428 v 0 l 0.0163,0.0234 0.1192,0.1702 v 0 l 0.1671,0.1671 v 0 l 0.1856,0.1299 0.0436,0.0546 0.0072,0.0695 -0.0315,0.0624 -0.0193,0.0167 -0.1856,0.1299 -0.1671,0.1671 -0.1355,0.1936 v 0 l -0.0999,0.2141 v 0 l -0.0612,0.2283 v 0 L 1.6543,50.945 v 0 l 0.0206,0.2354 v 0 l 0.0612,0.2283 v 0 0 L 1.74,51.417 1.836,51.6228 v 0 l 0.0858,0.1227 0.0497,0.0709 v 0 l 0.1671,0.1671 v 0 l 0.1856,0.1299 0.0436,0.0546 0.0072,0.0695 -0.0315,0.0624 -0.0193,0.0167 -0.1856,0.1299 -0.1671,0.1671 -0.1355,0.1936 v 0 l -0.0999,0.2141 v 0 l -0.0612,0.2283 v 0 L 1.6543,53.485 v 0 l 0.0206,0.2354 v 0 l 0.0612,0.2283 v 0 0 l 0.0284,0.061 0.0715,0.1531 v 0 l 0.028,0.04 0.1075,0.1536 v 0 l 0.1671,0.1671 v 0 l 0.1856,0.1299 0.0436,0.0546 0.0072,0.0695 -0.0315,0.0624 -0.0193,0.0167 -0.1856,0.1299 -0.1671,0.1671 -0.1355,0.1936 v 0 l -0.0999,0.2141 v 0 l -0.0612,0.2283 v 0 L 1.6543,56.025 v 0 H 0.0505 V 5.209 L 0.0702,5.142 0.123,5.0962 0.1745,5.085 h 22.001 z"
             id="path8319" /><path
             style="fill:#000000;fill-opacity:1;fill-rule:evenodd;stroke:#000000;stroke-width:0;stroke-linecap:round;stroke-linejoin:round;stroke-opacity:1"
             d="m 14.2161,12.1772 0.0569,0.0406 0.0259,0.0649 6e-4,0.0117 v 3.5285 0 l 0.0017,0.0155 -0.0124,0.0687 -0.0476,0.0512 -0.0677,0.0173 -0.0663,-0.0221 -0.0206,-0.0179 -0.0169,-0.0183 -0.1212,-0.0944 -0.075,-0.0584 v 0 0 l -0.2187,-0.1183 v 0 l -0.2352,-0.0808 -0.2453,-0.0409 h -0.2486 l -0.2453,0.0409 -0.2352,0.0808 v 0 l -0.2187,0.1183 -0.1962,0.1528 -0.1685,0.1829 -0.136,0.2082 -0.0999,0.2277 -0.061,0.2411 v 0 l -0.0205,0.2478 v 0 l 0.0205,0.2478 v 0 l 0.061,0.2411 0.0999,0.2277 0.136,0.2082 v 0 l 0.1685,0.1829 0.1962,0.1528 0.008,0.0043 0.0496,0.0492 0.0154,0.0599 v 0.212 l -0.0197,0.067 -0.0528,0.0458 -0.0082,0.0033 -0.0111,0.0042 v 0 l -0.1152,0.0863 v 0 l -0.0863,0.1152 v 0 l -0.0503,0.1348 -0.0064,0.0596 v 0 1.7958 0 l 0.0064,0.0596 0.0503,0.1348 v 0 l 0.0863,0.1152 v 0 l 0.1152,0.0863 v 0 l 0.1348,0.0503 v 0 l 0.0069,7e-4 0.0527,0.0057 h 1.7958 l 0.0596,-0.0064 0.1348,-0.0503 0.1152,-0.0863 0.0863,-0.1152 0.0055,-0.0148 0.0419,-0.0559 0.0655,-0.0244 0.0682,0.0148 0.0494,0.0494 0.0152,0.0595 v 4.3655 l -0.0197,0.067 -0.0528,0.0458 -0.0691,0.0099 -0.0636,-0.029 -0.035,-0.0504 -0.0455,-0.122 v 0 l -0.0863,-0.1152 v 0 l -0.1152,-0.0863 v 0 l -0.1348,-0.0503 v 0 l -0.0596,-0.0064 v 0 0 0 H 13.0222 L 12.9552,25.1548 12.9345,25.1382 9.5868,21.7905 9.5533,21.7291 9.5505,21.7028 v -9.0572 l 0.0197,-0.067 0.0528,-0.0458 0.0691,-0.0099 0.0636,0.029 0.0257,0.0309 0.0669,0.114 v 0 l 0.1509,0.179 v 0 l 0.179,0.1509 v 0 l 0.2018,0.1184 0.219,0.0827 0.2298,0.0444 0.0526,0.0028 v 0 H 11.6 v 0 -0.8163 l 0.0402,0.0258 0.1379,0.0405 h 0.1438 L 12.0598,12.4845 12.1,12.4587 v 0.8163 h 0.7186 v 0 l 0.0526,-0.0028 0.2298,-0.0444 0.219,-0.0827 0.2018,-0.1184 v 0 l 0.179,-0.1509 v 0 l 0.1509,-0.179 v 0 l 0.1184,-0.2018 0.0827,-0.219 0.001,-0.0051 0.032,-0.0621 0.0605,-0.0349 z"
             id="path8321" /></g></g></g></g><g
     inkscape:groupmode="layer"
     id="layer5"
     inkscape:label="Layer 2"><g
       id="g10779"
       transform="translate(-0.00609949,-4.9539061)"><g
         style="fill:#ffffff;fill-opacity:0;stroke:#ffffff;stroke-width:0.15;stroke-linecap:round;stroke-linejoin:round;stroke-opacity:1"
         id="g10513"><text
           x="11.55"
           y="30.365"
           transform="matrix(-1,0,0,1,23.1,0)"
           textLength="3.5833001"
           font-size="1.3333px"
           lengthAdjust="spacingAndGlyphs"
           text-anchor="start"
           opacity="0"
           id="text10215">DES.</text><g
           class="stroked-text"
           id="g10299"><desc
             id="desc10217">DES.</desc><path
             d="m 11.2132,30.2348 v -1"
             id="path10219" /><path
             d="M 11.2132,29.2348 H 10.9751"
             id="path10221" /><path
             d="m 10.9751,29.2348 -0.1428,0.0476"
             id="path10223" /><path
             d="M 10.8323,29.2824 10.737,29.3777"
             id="path10225" /><path
             d="m 10.737,29.3777 -0.0476,0.0952"
             id="path10227" /><path
             d="m 10.6894,29.4729 -0.0476,0.1905"
             id="path10229" /><path
             d="m 10.6418,29.6634 v 0.1428"
             id="path10231" /><path
             d="m 10.6418,29.8062 0.0476,0.1905"
             id="path10233" /><path
             d="M 10.6894,29.9967 10.737,30.092"
             id="path10235" /><path
             d="m 10.737,30.092 0.0953,0.0952"
             id="path10237" /><path
             d="m 10.8323,30.1872 0.1428,0.0476"
             id="path10239" /><path
             d="m 10.9751,30.2348 h 0.2381"
             id="path10241" /><path
             d="M 10.2132,29.711 H 9.8799"
             id="path10243" /><path
             d="m 9.737,30.2348 h 0.4762"
             id="path10245" /><path
             d="m 10.2132,30.2348 v -1"
             id="path10247" /><path
             d="M 10.2132,29.2348 H 9.737"
             id="path10249" /><path
             d="M 9.3561,30.1872 9.2132,30.2348"
             id="path10251" /><path
             d="M 9.2132,30.2348 H 8.9751"
             id="path10253" /><path
             d="M 8.9751,30.2348 8.8799,30.1872"
             id="path10255" /><path
             d="M 8.8799,30.1872 8.8323,30.1396"
             id="path10257" /><path
             d="M 8.8323,30.1396 8.7846,30.0443"
             id="path10259" /><path
             d="M 8.7846,30.0443 V 29.9491"
             id="path10261" /><path
             d="M 8.7846,29.9491 8.8323,29.8539"
             id="path10263" /><path
             d="M 8.8323,29.8539 8.8799,29.8062"
             id="path10265" /><path
             d="M 8.8799,29.8062 8.9751,29.7586"
             id="path10267" /><path
             d="M 8.9751,29.7586 9.1656,29.711"
             id="path10269" /><path
             d="M 9.1656,29.711 9.2608,29.6634"
             id="path10271" /><path
             d="M 9.2608,29.6634 9.3085,29.6158"
             id="path10273" /><path
             d="M 9.3085,29.6158 9.3561,29.5205"
             id="path10275" /><path
             d="M 9.3561,29.5205 V 29.4253"
             id="path10277" /><path
             d="M 9.3561,29.4253 9.3085,29.3301"
             id="path10279" /><path
             d="M 9.3085,29.3301 9.2608,29.2824"
             id="path10281" /><path
             d="M 9.2608,29.2824 9.1656,29.2348"
             id="path10283" /><path
             d="M 9.1656,29.2348 H 8.9275"
             id="path10285" /><path
             d="M 8.9275,29.2348 8.7846,29.2824"
             id="path10287" /><path
             d="M 8.3561,30.1396 8.3085,30.1872"
             id="path10289" /><path
             d="m 8.3085,30.1872 0.0476,0.0476"
             id="path10291" /><path
             d="M 8.3561,30.2348 8.4037,30.1872"
             id="path10293" /><path
             d="M 8.4037,30.1872 8.3561,30.1396"
             id="path10295" /><path
             d="m 8.3561,30.1396 v 0.0952"
             id="path10297" /></g><text
           x="11.55"
           y="31.975"
           transform="matrix(-1,0,0,1,23.1,0)"
           textLength="3.9642999"
           font-size="1.3333px"
           lengthAdjust="spacingAndGlyphs"
           text-anchor="start"
           opacity="0"
           id="text10301">JCR3</text><g
           class="stroked-text"
           id="g10393"><desc
             id="desc10303">JCR3</desc><path
             d="m 10.9275,30.8448 v 0.7143"
             id="path10305" /><path
             d="m 10.9275,31.5591 0.0476,0.1429"
             id="path10307" /><path
             d="m 10.9751,31.702 0.0953,0.0952"
             id="path10309" /><path
             d="m 11.0704,31.7972 0.1428,0.0476"
             id="path10311" /><path
             d="m 11.2132,31.8448 h 0.0953"
             id="path10313" /><path
             d="m 9.8799,31.7496 0.0476,0.0476"
             id="path10315" /><path
             d="m 9.9275,31.7972 0.1429,0.0476"
             id="path10317" /><path
             d="m 10.0704,31.8448 h 0.0952"
             id="path10319" /><path
             d="m 10.1656,31.8448 0.1429,-0.0476"
             id="path10321" /><path
             d="M 10.3085,31.7972 10.4037,31.702"
             id="path10323" /><path
             d="m 10.4037,31.702 0.0476,-0.0953"
             id="path10325" /><path
             d="m 10.4513,31.6067 0.0476,-0.1905"
             id="path10327" /><path
             d="M 10.4989,31.4162 V 31.2734"
             id="path10329" /><path
             d="M 10.4989,31.2734 10.4513,31.0829"
             id="path10331" /><path
             d="M 10.4513,31.0829 10.4037,30.9877"
             id="path10333" /><path
             d="M 10.4037,30.9877 10.3085,30.8924"
             id="path10335" /><path
             d="M 10.3085,30.8924 10.1656,30.8448"
             id="path10337" /><path
             d="M 10.1656,30.8448 H 10.0704"
             id="path10339" /><path
             d="M 10.0704,30.8448 9.9275,30.8924"
             id="path10341" /><path
             d="M 9.9275,30.8924 9.8799,30.9401"
             id="path10343" /><path
             d="M 8.8799,31.8448 9.2132,31.3686"
             id="path10345" /><path
             d="m 9.4513,31.8448 v -1"
             id="path10347" /><path
             d="M 9.4513,30.8448 H 9.0704"
             id="path10349" /><path
             d="M 9.0704,30.8448 8.9751,30.8924"
             id="path10351" /><path
             d="M 8.9751,30.8924 8.9275,30.9401"
             id="path10353" /><path
             d="M 8.9275,30.9401 8.8799,31.0353"
             id="path10355" /><path
             d="m 8.8799,31.0353 v 0.1429"
             id="path10357" /><path
             d="m 8.8799,31.1782 0.0476,0.0952"
             id="path10359" /><path
             d="M 8.9275,31.2734 8.9751,31.321"
             id="path10361" /><path
             d="m 8.9751,31.321 0.0953,0.0476"
             id="path10363" /><path
             d="M 9.0704,31.3686 H 9.4513"
             id="path10365" /><path
             d="M 8.5466,30.8448 H 7.9275"
             id="path10367" /><path
             d="m 7.9275,30.8448 0.3333,0.381"
             id="path10369" /><path
             d="M 8.2608,31.2258 H 8.118"
             id="path10371" /><path
             d="M 8.118,31.2258 8.0227,31.2734"
             id="path10373" /><path
             d="M 8.0227,31.2734 7.9751,31.321"
             id="path10375" /><path
             d="M 7.9751,31.321 7.9275,31.4162"
             id="path10377" /><path
             d="m 7.9275,31.4162 v 0.2381"
             id="path10379" /><path
             d="m 7.9275,31.6543 0.0476,0.0953"
             id="path10381" /><path
             d="m 7.9751,31.7496 0.0476,0.0476"
             id="path10383" /><path
             d="M 8.0227,31.7972 8.118,31.8448"
             id="path10385" /><path
             d="M 8.118,31.8448 H 8.4037"
             id="path10387" /><path
             d="M 8.4037,31.8448 8.4989,31.7972"
             id="path10389" /><path
             d="M 8.4989,31.7972 8.5466,31.7496"
             id="path10391" /></g><text
           x="11.55"
           y="33.584999"
           transform="matrix(-1,0,0,1,23.1,0)"
           textLength="4.0595002"
           font-size="1.3333px"
           lengthAdjust="spacingAndGlyphs"
           text-anchor="start"
           opacity="0"
           id="text10395">2024</text><g
           class="stroked-text"
           id="g10485"><desc
             id="desc10397">2024</desc><path
             d="M 11.2608,32.5501 11.2132,32.5024"
             id="path10399" /><path
             d="M 11.2132,32.5024 11.118,32.4548"
             id="path10401" /><path
             d="M 11.118,32.4548 H 10.8799"
             id="path10403" /><path
             d="m 10.8799,32.4548 -0.0953,0.0476"
             id="path10405" /><path
             d="M 10.7846,32.5024 10.737,32.5501"
             id="path10407" /><path
             d="m 10.737,32.5501 -0.0476,0.0952"
             id="path10409" /><path
             d="m 10.6894,32.6453 v 0.0952"
             id="path10411" /><path
             d="m 10.6894,32.7405 0.0476,0.1429"
             id="path10413" /><path
             d="m 10.737,32.8834 0.5715,0.5714"
             id="path10415" /><path
             d="M 11.3085,33.4548 H 10.6894"
             id="path10417" /><path
             d="M 10.0704,32.4548 H 9.9751"
             id="path10419" /><path
             d="M 9.9751,32.4548 9.8799,32.5024"
             id="path10421" /><path
             d="M 9.8799,32.5024 9.8323,32.5501"
             id="path10423" /><path
             d="M 9.8323,32.5501 9.7846,32.6453"
             id="path10425" /><path
             d="M 9.7846,32.6453 9.737,32.8358"
             id="path10427" /><path
             d="m 9.737,32.8358 v 0.2381"
             id="path10429" /><path
             d="m 9.737,33.0739 0.0476,0.1904"
             id="path10431" /><path
             d="m 9.7846,33.2643 0.0477,0.0953"
             id="path10433" /><path
             d="m 9.8323,33.3596 0.0476,0.0476"
             id="path10435" /><path
             d="m 9.8799,33.4072 0.0952,0.0476"
             id="path10437" /><path
             d="m 9.9751,33.4548 h 0.0953"
             id="path10439" /><path
             d="m 10.0704,33.4548 0.0952,-0.0476"
             id="path10441" /><path
             d="m 10.1656,33.4072 0.0476,-0.0476"
             id="path10443" /><path
             d="m 10.2132,33.3596 0.0476,-0.0953"
             id="path10445" /><path
             d="m 10.2608,33.2643 0.0477,-0.1904"
             id="path10447" /><path
             d="M 10.3085,33.0739 V 32.8358"
             id="path10449" /><path
             d="M 10.3085,32.8358 10.2608,32.6453"
             id="path10451" /><path
             d="M 10.2608,32.6453 10.2132,32.5501"
             id="path10453" /><path
             d="M 10.2132,32.5501 10.1656,32.5024"
             id="path10455" /><path
             d="M 10.1656,32.5024 10.0704,32.4548"
             id="path10457" /><path
             d="M 9.3561,32.5501 9.3085,32.5024"
             id="path10459" /><path
             d="M 9.3085,32.5024 9.2132,32.4548"
             id="path10461" /><path
             d="M 9.2132,32.4548 H 8.9751"
             id="path10463" /><path
             d="M 8.9751,32.4548 8.8799,32.5024"
             id="path10465" /><path
             d="M 8.8799,32.5024 8.8323,32.5501"
             id="path10467" /><path
             d="M 8.8323,32.5501 8.7846,32.6453"
             id="path10469" /><path
             d="m 8.7846,32.6453 v 0.0952"
             id="path10471" /><path
             d="m 8.7846,32.7405 0.0477,0.1429"
             id="path10473" /><path
             d="m 8.8323,32.8834 0.5714,0.5714"
             id="path10475" /><path
             d="M 9.4037,33.4548 H 8.7846"
             id="path10477" /><path
             d="m 7.9275,32.7882 v 0.6666"
             id="path10479" /><path
             d="m 8.1656,32.4072 0.2381,0.7143"
             id="path10481" /><path
             d="M 8.4037,33.1215 H 7.7846"
             id="path10483" /></g><text
           x="8.0500002"
           y="37.025002"
           transform="matrix(-1,0,0,1,16.1,0)"
           textLength="1.9643"
           font-size="1.3333px"
           lengthAdjust="spacingAndGlyphs"
           text-anchor="middle"
           opacity="0"
           id="text10487">J1</text><g
           class="stroked-text"
           id="g10511"><desc
             id="desc10489">J1</desc><path
             d="m 8.3833,35.9798 v 0.7143"
             id="path10491" /><path
             d="M 8.3833,36.6941 8.431,36.837"
             id="path10493" /><path
             d="m 8.431,36.837 0.0952,0.0952"
             id="path10495" /><path
             d="M 8.5262,36.9322 8.669,36.9798"
             id="path10497" /><path
             d="M 8.669,36.9798 H 8.7643"
             id="path10499" /><path
             d="M 7.3833,36.9798 H 7.9548"
             id="path10501" /><path
             d="m 7.669,36.9798 v -1"
             id="path10503" /><path
             d="m 7.669,35.9798 0.0953,0.1429"
             id="path10505" /><path
             d="m 7.7643,36.1227 0.0952,0.0952"
             id="path10507" /><path
             d="m 7.8595,36.2179 0.0953,0.0476"
             id="path10509" /></g></g></g></g><g
     inkscape:groupmode="layer"
     id="layer6"
     inkscape:label="Layer 3"><g
       id="g4922"
       transform="matrix(-1,0,0,1,22.312924,-5.0633578)"><circle
         cx="16.7766"
         cy="17.924999"
         r="0.21996662"
         id="circle595-3-7-25"
         style="display:inline;fill:#ffffff;fill-opacity:1;stroke:none;stroke-width:0;stroke-linecap:round;stroke-linejoin:round;stroke-opacity:1" /><circle
         cx="16.7766"
         cy="20.465"
         r="0.21996662"
         id="circle595-3-6-2"
         style="display:inline;fill:#ffffff;fill-opacity:1;stroke:none;stroke-width:0;stroke-linecap:round;stroke-linejoin:round;stroke-opacity:1" /><circle
         cx="19.316601"
         cy="20.465"
         r="0.21996662"
         id="circle595-3-3-5"
         style="display:inline;fill:#ffffff;fill-opacity:1;stroke:none;stroke-width:0;stroke-linecap:round;stroke-linejoin:round;stroke-opacity:1" /><circle
         cx="19.316601"
         cy="23.004999"
         r="0.21996662"
         id="circle595-3-65-7"
         style="display:inline;fill:#ffffff;fill-opacity:1;stroke:none;stroke-width:0;stroke-linecap:round;stroke-linejoin:round;stroke-opacity:1" /><circle
         cx="16.7766"
         cy="23.004999"
         r="0.21996662"
         id="circle595-3-7-2-5"
         style="display:inline;fill:#ffffff;fill-opacity:1;stroke:none;stroke-width:0;stroke-linecap:round;stroke-linejoin:round;stroke-opacity:1" /><circle
         cx="16.7766"
         cy="25.545"
         r="0.21996662"
         id="circle595-3-6-5-3"
         style="display:inline;fill:#ffffff;fill-opacity:1;stroke:none;stroke-width:0;stroke-linecap:round;stroke-linejoin:round;stroke-opacity:1" /><circle
         cx="19.316601"
         cy="25.545"
         r="0.21996662"
         id="circle595-3-3-4-0"
         style="display:inline;fill:#ffffff;fill-opacity:1;stroke:none;stroke-width:0;stroke-linecap:round;stroke-linejoin:round;stroke-opacity:1" /><circle
         cx="19.316601"
         cy="28.084999"
         r="0.21996662"
         id="circle595-3-1"
         style="display:inline;fill:#ffffff;fill-opacity:1;stroke:none;stroke-width:0;stroke-linecap:round;stroke-linejoin:round;stroke-opacity:1" /><circle
         cx="16.7766"
         cy="28.084999"
         r="0.21996662"
         id="circle595-3-7-9"
         style="display:inline;fill:#ffffff;fill-opacity:1;stroke:none;stroke-width:0;stroke-linecap:round;stroke-linejoin:round;stroke-opacity:1" /><circle
         cx="16.7766"
         cy="30.625"
         r="0.21996662"
         id="circle595-3-6-8"
         style="display:inline;fill:#ffffff;fill-opacity:1;stroke:none;stroke-width:0;stroke-linecap:round;stroke-linejoin:round;stroke-opacity:1" /><circle
         cx="19.316601"
         cy="30.625"
         r="0.21996662"
         id="circle595-3-3-2"
         style="display:inline;fill:#ffffff;fill-opacity:1;stroke:none;stroke-width:0;stroke-linecap:round;stroke-linejoin:round;stroke-opacity:1" /><circle
         cx="19.316601"
         cy="33.165001"
         r="0.21996662"
         id="circle595-3-65-1"
         style="display:inline;fill:#ffffff;fill-opacity:1;stroke:none;stroke-width:0;stroke-linecap:round;stroke-linejoin:round;stroke-opacity:1" /><circle
         cx="16.7766"
         cy="33.165001"
         r="0.21996662"
         id="circle595-3-7-2-4"
         style="display:inline;fill:#ffffff;fill-opacity:1;stroke:none;stroke-width:0;stroke-linecap:round;stroke-linejoin:round;stroke-opacity:1" /><circle
         cx="16.7766"
         cy="35.705002"
         r="0.21996662"
         id="circle595-3-6-5-1"
         style="display:inline;fill:#ffffff;fill-opacity:1;stroke:none;stroke-width:0;stroke-linecap:round;stroke-linejoin:round;stroke-opacity:1" /><circle
         cx="19.316601"
         cy="35.705002"
         r="0.21996662"
         id="circle595-3-3-4-2"
         style="display:inline;fill:#ffffff;fill-opacity:1;stroke:none;stroke-width:0;stroke-linecap:round;stroke-linejoin:round;stroke-opacity:1" /><circle
         cx="19.316601"
         cy="38.245003"
         r="0.21996662"
         id="circle595-3-4"
         style="display:inline;fill:#ffffff;fill-opacity:1;stroke:none;stroke-width:0;stroke-linecap:round;stroke-linejoin:round;stroke-opacity:1" /><circle
         cx="16.7766"
         cy="38.245003"
         r="0.21996662"
         id="circle595-3-7-6"
         style="display:inline;fill:#ffffff;fill-opacity:1;stroke:none;stroke-width:0;stroke-linecap:round;stroke-linejoin:round;stroke-opacity:1" /><circle
         cx="16.7766"
         cy="40.785004"
         r="0.21996662"
         id="circle595-3-6-3"
         style="display:inline;fill:#ffffff;fill-opacity:1;stroke:none;stroke-width:0;stroke-linecap:round;stroke-linejoin:round;stroke-opacity:1" /><circle
         cx="19.316601"
         cy="40.785004"
         r="0.21996662"
         id="circle595-3-3-57"
         style="display:inline;fill:#ffffff;fill-opacity:1;stroke:none;stroke-width:0;stroke-linecap:round;stroke-linejoin:round;stroke-opacity:1" /><circle
         cx="19.316601"
         cy="43.325005"
         r="0.21996662"
         id="circle595-3-65-9"
         style="display:inline;fill:#ffffff;fill-opacity:1;stroke:none;stroke-width:0;stroke-linecap:round;stroke-linejoin:round;stroke-opacity:1" /><circle
         cx="16.7766"
         cy="43.325005"
         r="0.21996662"
         id="circle595-3-7-2-6"
         style="display:inline;fill:#ffffff;fill-opacity:1;stroke:none;stroke-width:0;stroke-linecap:round;stroke-linejoin:round;stroke-opacity:1" /><circle
         cx="16.7766"
         cy="45.865005"
         r="0.21996662"
         id="circle595-3-6-5-2"
         style="display:inline;fill:#ffffff;fill-opacity:1;stroke:none;stroke-width:0;stroke-linecap:round;stroke-linejoin:round;stroke-opacity:1" /><circle
         cx="19.316601"
         cy="45.865005"
         r="0.21996662"
         id="circle595-3-3-4-9"
         style="display:inline;fill:#ffffff;fill-opacity:1;stroke:none;stroke-width:0;stroke-linecap:round;stroke-linejoin:round;stroke-opacity:1" /><circle
         cx="16.7766"
         cy="48.405003"
         r="0.21996662"
         id="circle595-3-6-3-1"
         style="display:inline;fill:#ffffff;fill-opacity:1;stroke:none;stroke-width:0;stroke-linecap:round;stroke-linejoin:round;stroke-opacity:1" /><circle
         cx="19.316601"
         cy="48.405003"
         r="0.21996662"
         id="circle595-3-3-57-1"
         style="display:inline;fill:#ffffff;fill-opacity:1;stroke:none;stroke-width:0;stroke-linecap:round;stroke-linejoin:round;stroke-opacity:1" /><circle
         cx="19.316601"
         cy="50.945004"
         r="0.21996662"
         id="circle595-3-65-9-0"
         style="display:inline;fill:#ffffff;fill-opacity:1;stroke:none;stroke-width:0;stroke-linecap:round;stroke-linejoin:round;stroke-opacity:1" /><circle
         cx="16.7766"
         cy="50.945004"
         r="0.21996662"
         id="circle595-3-7-2-6-2"
         style="display:inline;fill:#ffffff;fill-opacity:1;stroke:none;stroke-width:0;stroke-linecap:round;stroke-linejoin:round;stroke-opacity:1" /><circle
         cx="16.7766"
         cy="53.485004"
         r="0.21996662"
         id="circle595-3-6-5-2-5"
         style="display:inline;fill:#ffffff;fill-opacity:1;stroke:none;stroke-width:0;stroke-linecap:round;stroke-linejoin:round;stroke-opacity:1" /><circle
         cx="19.316601"
         cy="53.485004"
         r="0.21996662"
         id="circle595-3-3-4-9-6"
         style="display:inline;fill:#ffffff;fill-opacity:1;stroke:none;stroke-width:0;stroke-linecap:round;stroke-linejoin:round;stroke-opacity:1" /><circle
         cx="16.7766"
         cy="56.025002"
         r="0.21996662"
         id="circle595-3-6-5-2-5-1"
         style="display:inline;fill:#ffffff;fill-opacity:1;stroke:none;stroke-width:0;stroke-linecap:round;stroke-linejoin:round;stroke-opacity:1" /><circle
         cx="19.316601"
         cy="56.025002"
         r="0.21996662"
         id="circle595-3-3-4-9-6-8"
         style="display:inline;fill:#ffffff;fill-opacity:1;stroke:none;stroke-width:0;stroke-linecap:round;stroke-linejoin:round;stroke-opacity:1" /><circle
         cx="16.7766"
         cy="12.845"
         r="0.21996662"
         id="circle595-3-7-2"
         style="display:inline;fill:#ffffff;fill-opacity:1;stroke:none;stroke-width:0;stroke-linecap:round;stroke-linejoin:round;stroke-opacity:1" /><circle
         cx="16.7766"
         cy="15.385001"
         r="0.21996662"
         id="circle595-3-6-5"
         style="display:inline;fill:#ffffff;fill-opacity:1;stroke:none;stroke-width:0;stroke-linecap:round;stroke-linejoin:round;stroke-opacity:1" /><circle
         cx="19.316601"
         cy="15.385001"
         r="0.21996662"
         id="circle595-3-3-4"
         style="display:inline;fill:#ffffff;fill-opacity:1;stroke:none;stroke-width:0;stroke-linecap:round;stroke-linejoin:round;stroke-opacity:1" /><circle
         cx="19.316601"
         cy="17.924999"
         r="0.21996662"
         id="circle595-3-34"
         style="display:inline;fill:#ffffff;fill-opacity:1;stroke:none;stroke-width:0;stroke-linecap:round;stroke-linejoin:round;stroke-opacity:1" /><circle
         cx="19.316601"
         cy="7.7649999"
         r="0.21996662"
         id="circle595-3"
         style="display:inline;fill:#ffffff;fill-opacity:1;stroke:none;stroke-width:0;stroke-linecap:round;stroke-linejoin:round;stroke-opacity:1" /><circle
         cx="16.7766"
         cy="7.7649999"
         r="0.21996662"
         id="circle595-3-7"
         style="display:inline;fill:#ffffff;fill-opacity:1;stroke:none;stroke-width:0;stroke-linecap:round;stroke-linejoin:round;stroke-opacity:1" /><circle
         cx="16.7766"
         cy="10.305"
         r="0.21996662"
         id="circle595-3-6"
         style="display:inline;fill:#ffffff;fill-opacity:1;stroke:none;stroke-width:0;stroke-linecap:round;stroke-linejoin:round;stroke-opacity:1" /><circle
         cx="19.316601"
         cy="10.305"
         r="0.21996662"
         id="circle595-3-3"
         style="display:inline;fill:#ffffff;fill-opacity:1;stroke:none;stroke-width:0;stroke-linecap:round;stroke-linejoin:round;stroke-opacity:1" /><circle
         cx="19.316601"
         cy="12.845"
         r="0.21996662"
         id="circle595-3-65"
         style="display:inline;fill:#ffffff;fill-opacity:1;stroke:none;stroke-width:0;stroke-linecap:round;stroke-linejoin:round;stroke-opacity:1" /></g><g
       id="g3826"
       transform="matrix(-1,0,0,1,22.312924,-5.0633578)"><circle
         cx="20.025"
         cy="-9.0265999"
         r="0.21996662"
         id="circle595-3-5"
         style="display:inline;fill:#ffffff;fill-opacity:1;stroke:none;stroke-width:0;stroke-linecap:round;stroke-linejoin:round;stroke-opacity:1"
         transform="rotate(90)" /><circle
         cx="20.025"
         cy="-6.4865999"
         r="0.21996662"
         id="circle595-3-3-22"
         style="display:inline;fill:#ffffff;fill-opacity:1;stroke:none;stroke-width:0;stroke-linecap:round;stroke-linejoin:round;stroke-opacity:1"
         transform="rotate(90)" /><circle
         cx="20.025"
         cy="-3.9466"
         r="0.21996662"
         id="circle595-3-65-4"
         style="display:inline;fill:#ffffff;fill-opacity:1;stroke:none;stroke-width:0;stroke-linecap:round;stroke-linejoin:round;stroke-opacity:1"
         transform="rotate(90)" /></g><g
       id="g3852"
       transform="matrix(-1,0,0,1,22.312924,-5.0633578)"><circle
         cx="26.525"
         cy="-9.0665998"
         r="0.21996662"
         id="circle595-3-5-4"
         style="display:inline;fill:#ffffff;fill-opacity:1;stroke:none;stroke-width:0;stroke-linecap:round;stroke-linejoin:round;stroke-opacity:1"
         transform="rotate(90)" /><circle
         cx="26.525"
         cy="-6.5265999"
         r="0.21996662"
         id="circle595-3-3-22-8"
         style="display:inline;fill:#ffffff;fill-opacity:1;stroke:none;stroke-width:0;stroke-linecap:round;stroke-linejoin:round;stroke-opacity:1"
         transform="rotate(90)" /><circle
         cx="26.525"
         cy="-3.9865999"
         r="0.21996662"
         id="circle595-3-65-4-8"
         style="display:inline;fill:#ffffff;fill-opacity:1;stroke:none;stroke-width:0;stroke-linecap:round;stroke-linejoin:round;stroke-opacity:1"
         transform="rotate(90)" /></g><g
       id="g3878"
       transform="matrix(-1,0,0,1,22.312924,-5.0633578)"><circle
         cx="32.77248"
         cy="-9.0666008"
         r="0.21996662"
         id="circle595-3-5-47"
         style="display:inline;fill:#ffffff;fill-opacity:1;stroke:none;stroke-width:0;stroke-linecap:round;stroke-linejoin:round;stroke-opacity:1"
         transform="rotate(90)" /><circle
         cx="32.77248"
         cy="-6.5265999"
         r="0.21996662"
         id="circle595-3-3-22-1"
         style="display:inline;fill:#ffffff;fill-opacity:1;stroke:none;stroke-width:0;stroke-linecap:round;stroke-linejoin:round;stroke-opacity:1"
         transform="rotate(90)" /><circle
         cx="32.77248"
         cy="-3.9865999"
         r="0.21996662"
         id="circle595-3-65-4-2"
         style="display:inline;fill:#ffffff;fill-opacity:1;stroke:none;stroke-width:0;stroke-linecap:round;stroke-linejoin:round;stroke-opacity:1"
         transform="rotate(90)" /></g><g
       id="g3904"
       transform="matrix(-1,0,0,1,22.312924,-5.0633578)"><circle
         cx="46.775002"
         cy="-9.3166008"
         r="0.21996662"
         id="circle595-3-5-7"
         style="display:inline;fill:#ffffff;fill-opacity:1;stroke:none;stroke-width:0;stroke-linecap:round;stroke-linejoin:round;stroke-opacity:1"
         transform="rotate(90)" /><circle
         cx="46.775002"
         cy="-6.7766004"
         r="0.21996662"
         id="circle595-3-3-22-4"
         style="display:inline;fill:#ffffff;fill-opacity:1;stroke:none;stroke-width:0;stroke-linecap:round;stroke-linejoin:round;stroke-opacity:1"
         transform="rotate(90)" /><circle
         cx="46.775002"
         cy="-4.2365999"
         r="0.21996662"
         id="circle595-3-65-4-6"
         style="display:inline;fill:#ffffff;fill-opacity:1;stroke:none;stroke-width:0;stroke-linecap:round;stroke-linejoin:round;stroke-opacity:1"
         transform="rotate(90)" /></g><g
       id="g3930"
       transform="matrix(-1,0,0,1,22.312924,-5.0633578)"><circle
         cx="53.525002"
         cy="-9.3165989"
         r="0.21996662"
         id="circle595-3-5-1"
         style="display:inline;fill:#ffffff;fill-opacity:1;stroke:none;stroke-width:0;stroke-linecap:round;stroke-linejoin:round;stroke-opacity:1"
         transform="rotate(90)" /><circle
         cx="53.525002"
         cy="-6.7765999"
         r="0.21996662"
         id="circle595-3-3-22-0"
         style="display:inline;fill:#ffffff;fill-opacity:1;stroke:none;stroke-width:0;stroke-linecap:round;stroke-linejoin:round;stroke-opacity:1"
         transform="rotate(90)" /><circle
         cx="53.525002"
         cy="-4.2365999"
         r="0.21996662"
         id="circle595-3-65-4-81"
         style="display:inline;fill:#ffffff;fill-opacity:1;stroke:none;stroke-width:0;stroke-linecap:round;stroke-linejoin:round;stroke-opacity:1"
         transform="rotate(90)" /></g><g
       id="g3979"
       transform="matrix(-1,0,0,1,22.312924,-5.0633578)"><circle
         cx="39.525002"
         cy="-10.3566"
         r="0.21996662"
         id="circle595-3-5-0"
         style="display:inline;fill:#ffffff;fill-opacity:1;stroke:none;stroke-width:0;stroke-linecap:round;stroke-linejoin:round;stroke-opacity:1"
         transform="rotate(90)" /><circle
         cx="39.525002"
         cy="-7.8165998"
         r="0.21996662"
         id="circle595-3-3-22-7"
         style="display:inline;fill:#ffffff;fill-opacity:1;stroke:none;stroke-width:0;stroke-linecap:round;stroke-linejoin:round;stroke-opacity:1"
         transform="rotate(90)" /><circle
         cx="39.525002"
         cy="-5.2765999"
         r="0.21996662"
         id="circle595-3-65-4-4"
         style="display:inline;fill:#ffffff;fill-opacity:1;stroke:none;stroke-width:0;stroke-linecap:round;stroke-linejoin:round;stroke-opacity:1"
         transform="rotate(90)" /><circle
         cx="39.525002"
         cy="-2.7365999"
         r="0.21996662"
         id="circle595-3-65-4-4-9"
         style="display:inline;fill:#ffffff;fill-opacity:1;stroke:none;stroke-width:0;stroke-linecap:round;stroke-linejoin:round;stroke-opacity:1"
         transform="rotate(90)" /></g><circle
       cx="38.461647"
       cy="13.036324"
       r="0.21996662"
       id="circle595-3-65-4-4-5"
       style="display:inline;fill:#ffffff;fill-opacity:1;stroke:none;stroke-width:0;stroke-linecap:round;stroke-linejoin:round;stroke-opacity:1"
       transform="matrix(0,1,1,0,0,0)" /><circle
       cx="24.711641"
       cy="13.786324"
       r="0.21996662"
       id="circle595-3-65-4-4-6"
       style="display:inline;fill:#ffffff;fill-opacity:1;stroke:none;stroke-width:0;stroke-linecap:round;stroke-linejoin:round;stroke-opacity:1"
       transform="matrix(0,1,1,0,0,0)" /><circle
       cx="11.961642"
       cy="13.036324"
       r="0.21996662"
       id="circle595-3-65-4-4-3"
       style="display:inline;fill:#ffffff;fill-opacity:1;stroke:none;stroke-width:0;stroke-linecap:round;stroke-linejoin:round;stroke-opacity:1"
       transform="matrix(0,1,1,0,0,0)" /><circle
       cx="2.2116427"
       cy="8.7863235"
       r="0.21996662"
       id="circle595-3-65-4-4-91"
       style="display:inline;fill:#ffffff;fill-opacity:1;stroke:none;stroke-width:0;stroke-linecap:round;stroke-linejoin:round;stroke-opacity:1"
       transform="matrix(0,1,1,0,0,0)" /><circle
       cx="45.421646"
       cy="12.996325"
       r="0.21996662"
       id="circle595-3-65-4-4-2"
       style="display:inline;fill:#ffffff;fill-opacity:1;stroke:none;stroke-width:0;stroke-linecap:round;stroke-linejoin:round;stroke-opacity:1"
       transform="matrix(0,1,1,0,0,0)" /><circle
       cx="51.711647"
       cy="14.786324"
       r="0.21996662"
       id="circle595-3-65-4-4-56"
       style="display:inline;fill:#ffffff;fill-opacity:1;stroke:none;stroke-width:0;stroke-linecap:round;stroke-linejoin:round;stroke-opacity:1"
       transform="matrix(0,1,1,0,0,0)" /><circle
       cx="52.271645"
       cy="11.286324"
       r="0.21996662"
       id="circle595-3-65-4-4-58"
       style="display:inline;fill:#ffffff;fill-opacity:1;stroke:none;stroke-width:0;stroke-linecap:round;stroke-linejoin:round;stroke-opacity:1"
       transform="matrix(0,1,1,0,0,0)" /><circle
       cx="51.961647"
       cy="8.7863235"
       r="0.21996662"
       id="circle595-3-65-4-4-7"
       style="display:inline;fill:#ffffff;fill-opacity:1;stroke:none;stroke-width:0;stroke-linecap:round;stroke-linejoin:round;stroke-opacity:1"
       transform="matrix(0,1,1,0,0,0)" /><g
       id="g4788"
       transform="matrix(-1,0,0,1,22.312924,-5.0633578)"><circle
         cx="4.9415679"
         cy="14.025"
         r="0.21996662"
         id="circle595-3-65-4-4-1-3-7"
         style="display:inline;fill:#ffffff;fill-opacity:1;stroke:none;stroke-width:0;stroke-linecap:round;stroke-linejoin:round;stroke-opacity:1" /><circle
         cx="5.7765999"
         cy="14.025"
         r="0.21996662"
         id="circle595-3-65-4-4-4-7-3"
         style="display:inline;fill:#ffffff;fill-opacity:1;stroke:none;stroke-width:0;stroke-linecap:round;stroke-linejoin:round;stroke-opacity:1" /><circle
         cx="6.6116319"
         cy="14.025"
         r="0.21996662"
         id="circle595-3-65-4-4-4-9-9-2"
         style="display:inline;fill:#ffffff;fill-opacity:1;stroke:none;stroke-width:0;stroke-linecap:round;stroke-linejoin:round;stroke-opacity:1" /></g><g
       id="g4814"
       transform="matrix(-1,0,0,1,22.312924,-5.0633578)"><circle
         cx="4.9415679"
         cy="8.0249996"
         r="0.21996662"
         id="circle595-3-65-4-4-1-3-7-5"
         style="display:inline;fill:#ffffff;fill-opacity:1;stroke:none;stroke-width:0;stroke-linecap:round;stroke-linejoin:round;stroke-opacity:1" /><circle
         cx="5.7765999"
         cy="8.0249996"
         r="0.21996662"
         id="circle595-3-65-4-4-4-7-3-0"
         style="display:inline;fill:#ffffff;fill-opacity:1;stroke:none;stroke-width:0;stroke-linecap:round;stroke-linejoin:round;stroke-opacity:1" /><circle
         cx="6.6116319"
         cy="8.0249996"
         r="0.21996662"
         id="circle595-3-65-4-4-4-9-9-2-1"
         style="display:inline;fill:#ffffff;fill-opacity:1;stroke:none;stroke-width:0;stroke-linecap:round;stroke-linejoin:round;stroke-opacity:1" /></g><g
       id="g4840"
       transform="matrix(-1,0,0,1,22.312924,-5.0633578)"><circle
         cx="10.189968"
         cy="-10.4766"
         r="0.21996662"
         id="circle595-3-65-4-4-1-3-7-2"
         style="display:inline;fill:#ffffff;fill-opacity:1;stroke:none;stroke-width:0;stroke-linecap:round;stroke-linejoin:round;stroke-opacity:1"
         transform="rotate(90)" /><circle
         cx="11.025"
         cy="-10.4766"
         r="0.21996662"
         id="circle595-3-65-4-4-4-7-3-4"
         style="display:inline;fill:#ffffff;fill-opacity:1;stroke:none;stroke-width:0;stroke-linecap:round;stroke-linejoin:round;stroke-opacity:1"
         transform="rotate(90)" /><circle
         cx="11.860031"
         cy="-10.4766"
         r="0.21996662"
         id="circle595-3-65-4-4-4-9-9-2-4"
         style="display:inline;fill:#ffffff;fill-opacity:1;stroke:none;stroke-width:0;stroke-linecap:round;stroke-linejoin:round;stroke-opacity:1"
         transform="rotate(90)" /></g></g></svg>
