<?xml version="1.0" encoding="UTF-8" standalone="no"?>
<svg
   version="1.1"
   width="22.323317mm"
   height="53.939503mm"
   viewBox="0 0 22.323318 53.939504"
   id="svg352"
   sodipodi:docname="rhobot_v2_photomask_F_Cu.svg"
   inkscape:version="1.2.2 (732a01da63, 2022-12-09)"
   xml:space="preserve"
   inkscape:export-filename="rhobot_v2_photomask_F_Cu.pdf"
   inkscape:export-xdpi="96"
   inkscape:export-ydpi="96"
   xmlns:inkscape="http://www.inkscape.org/namespaces/inkscape"
   xmlns:sodipodi="http://sodipodi.sourceforge.net/DTD/sodipodi-0.dtd"
   xmlns="http://www.w3.org/2000/svg"
   xmlns:svg="http://www.w3.org/2000/svg"
   xmlns:rdf="http://www.w3.org/1999/02/22-rdf-syntax-ns#"
   xmlns:cc="http://creativecommons.org/ns#"
   xmlns:dc="http://purl.org/dc/elements/1.1/"><defs
     id="defs356" /><sodipodi:namedview
     id="namedview354"
     pagecolor="#ffffff"
     bordercolor="#999999"
     borderopacity="1"
     inkscape:showpageshadow="0"
     inkscape:pageopacity="0"
     inkscape:pagecheckerboard="0"
     inkscape:deskcolor="#d1d1d1"
     inkscape:document-units="mm"
     showgrid="false"
     inkscape:zoom="5.5543553"
     inkscape:cx="39.06844"
     inkscape:cy="52.571358"
     inkscape:window-width="1858"
     inkscape:window-height="1057"
     inkscape:window-x="54"
     inkscape:window-y="94"
     inkscape:window-maximized="1"
     inkscape:current-layer="layer3" /><title
     id="title2">SVG Image created as rhobot_circuit_v2-F_Cu.svg date 2024/02/15 13:03:29 </title><desc
     id="desc4">Image generated by PCBNEW </desc><metadata
     id="metadata639"><rdf:RDF><cc:Work
         rdf:about=""><dc:title>SVG Image created as rhobot_circuit_v2-F_Cu.svg date 2024/02/15 13:03:29 </dc:title></cc:Work></rdf:RDF></metadata><g
     inkscape:groupmode="layer"
     id="layer1"
     inkscape:label="Layer 1"
     transform="translate(-0.0270995,-5.0849995)"><g
       style="fill:#ffffff;fill-opacity:1;stroke:#ffffff;stroke-linecap:round;stroke-linejoin:round;stroke-opacity:1"
       id="g6" /><g
       style="fill:#ffffff;fill-opacity:0;stroke:#ffffff;stroke-width:0;stroke-linecap:round;stroke-linejoin:round;stroke-opacity:1"
       id="g8" /><g
       style="fill:#000000;fill-opacity:1;stroke:#000000;stroke-width:0.0212;stroke-linecap:round;stroke-linejoin:round;stroke-opacity:1"
       id="g322"><g
         id="g14"
         style="fill:#000000;stroke:#000000" /><g
         style="fill:#000000;fill-opacity:1;stroke:#000000;stroke-width:0;stroke-linecap:round;stroke-linejoin:round;stroke-opacity:1"
         id="g22"><path
           style="fill:#000000;fill-opacity:1;fill-rule:evenodd;stroke:#000000;stroke-width:0;stroke-linecap:round;stroke-linejoin:round;stroke-opacity:1"
           d="m 8.1766,20.875 h 1.7 v -1.7 h -1.7 z"
           id="path16" /><circle
           cx="6.4865999"
           cy="20.025"
           r="0.85000002"
           id="circle18"
           style="fill:#000000;stroke:#000000" /><circle
           cx="3.9466"
           cy="20.025"
           r="0.85000002"
           id="circle20"
           style="fill:#000000;stroke:#000000" /></g><g
         id="g24"
         style="fill:#000000;stroke:#000000" /><g
         style="fill:#000000;fill-opacity:1;stroke:#000000;stroke-width:0;stroke-linecap:round;stroke-linejoin:round;stroke-opacity:1"
         id="g34"><path
           style="fill:#000000;fill-opacity:1;fill-rule:evenodd;stroke:#000000;stroke-width:0;stroke-linecap:round;stroke-linejoin:round;stroke-opacity:1"
           d="m 9.5066,40.375 h 1.7 v -1.7 h -1.7 z"
           id="path26" /><circle
           cx="7.8165998"
           cy="39.525002"
           r="0.85000002"
           id="circle28"
           style="fill:#000000;stroke:#000000" /><circle
           cx="5.2765999"
           cy="39.525002"
           r="0.85000002"
           id="circle30"
           style="fill:#000000;stroke:#000000" /><circle
           cx="2.7365999"
           cy="39.525002"
           r="0.85000002"
           id="circle32"
           style="fill:#000000;stroke:#000000" /></g><g
         id="g36"
         style="fill:#000000;stroke:#000000" /><g
         style="fill:#000000;fill-opacity:1;stroke:#000000;stroke-width:0;stroke-linecap:round;stroke-linejoin:round;stroke-opacity:1"
         id="g44"><path
           style="fill:#000000;fill-opacity:1;fill-rule:evenodd;stroke:#000000;stroke-width:0;stroke-linecap:round;stroke-linejoin:round;stroke-opacity:1"
           d="m 8.4666,54.375 h 1.7 v -1.7 h -1.7 z"
           id="path38" /><circle
           cx="6.7765999"
           cy="53.525002"
           r="0.85000002"
           id="circle40"
           style="fill:#000000;stroke:#000000" /><circle
           cx="4.2365999"
           cy="53.525002"
           r="0.85000002"
           id="circle42"
           style="fill:#000000;stroke:#000000" /></g><g
         id="g46"
         style="fill:#000000;stroke:#000000" /><g
         style="fill:#000000;fill-opacity:1;stroke:#000000;stroke-width:0;stroke-linecap:round;stroke-linejoin:round;stroke-opacity:1"
         id="g54"><path
           style="fill:#000000;fill-opacity:1;fill-rule:evenodd;stroke:#000000;stroke-width:0;stroke-linecap:round;stroke-linejoin:round;stroke-opacity:1"
           d="m 8.4666,47.625 h 1.7 v -1.7 h -1.7 z"
           id="path48" /><circle
           cx="6.7765999"
           cy="46.775002"
           r="0.85000002"
           id="circle50"
           style="fill:#000000;stroke:#000000" /><circle
           cx="4.2365999"
           cy="46.775002"
           r="0.85000002"
           id="circle52"
           style="fill:#000000;stroke:#000000" /></g><g
         id="g56"
         style="fill:#000000;stroke:#000000" /><g
         style="fill:#000000;fill-opacity:1;stroke:#000000;stroke-width:0;stroke-linecap:round;stroke-linejoin:round;stroke-opacity:1"
         id="g64"><path
           style="fill:#000000;fill-opacity:1;fill-rule:evenodd;stroke:#000000;stroke-width:0;stroke-linecap:round;stroke-linejoin:round;stroke-opacity:1"
           d="m 8.2166,33.625 h 1.7 v -1.7 h -1.7 z"
           id="path58" /><circle
           cx="6.5265999"
           cy="32.775002"
           r="0.85000002"
           id="circle60"
           style="fill:#000000;stroke:#000000" /><circle
           cx="3.9865999"
           cy="32.775002"
           r="0.85000002"
           id="circle62"
           style="fill:#000000;stroke:#000000" /></g><g
         id="g66"
         style="fill:#000000;stroke:#000000" /><g
         style="fill:#000000;fill-opacity:1;stroke:#000000;stroke-width:0;stroke-linecap:round;stroke-linejoin:round;stroke-opacity:1"
         id="g74"><path
           style="fill:#000000;fill-opacity:1;fill-rule:evenodd;stroke:#000000;stroke-width:0;stroke-linecap:round;stroke-linejoin:round;stroke-opacity:1"
           d="m 8.2166,27.375 h 1.7 v -1.7 h -1.7 z"
           id="path68" /><circle
           cx="6.5265999"
           cy="26.525"
           r="0.85000002"
           id="circle70"
           style="fill:#000000;stroke:#000000" /><circle
           cx="3.9865999"
           cy="26.525"
           r="0.85000002"
           id="circle72"
           style="fill:#000000;stroke:#000000" /></g><g
         id="g76"
         style="fill:#000000;stroke:#000000" /><g
         style="fill:#000000;fill-opacity:1;stroke:#000000;stroke-width:0;stroke-linecap:round;stroke-linejoin:round;stroke-opacity:1"
         id="g84"><path
           style="fill:#000000;fill-opacity:1;fill-rule:evenodd;stroke:#000000;stroke-width:0;stroke-linecap:round;stroke-linejoin:round;stroke-opacity:1"
           d="m 7.5266,12.275 h -3.5 v 3.5 h 3.5 z"
           id="path78" /><path
           style="fill:#000000;fill-opacity:1;fill-rule:evenodd;stroke:#000000;stroke-width:0;stroke-linecap:round;stroke-linejoin:round;stroke-opacity:1"
           d="M 4.7766,6.525 4.6249,6.5405 4.4596,6.5953 4.3114,6.6867 4.1883,6.8098 4.0969,6.958 4.0421,7.1233 4.0266,7.275 v 1.5 L 4.0421,8.9267 4.0969,9.092 4.1883,9.2402 4.3114,9.3633 4.4596,9.4547 4.6249,9.5095 4.7766,9.525 h 2 L 6.9283,9.5095 7.0936,9.4547 7.2418,9.3633 7.3649,9.2402 7.4563,9.092 7.5111,8.9267 7.5266,8.775 v -1.5 L 7.5111,7.1233 7.4563,6.958 7.3649,6.8098 7.2418,6.6867 7.0936,6.5953 6.9283,6.5405 6.7766,6.525 Z"
           id="path80" /><path
           style="fill:#000000;fill-opacity:1;fill-rule:evenodd;stroke:#000000;stroke-width:0;stroke-linecap:round;stroke-linejoin:round;stroke-opacity:1"
           d="M 9.6016,9.275 9.4835,9.283 9.2999,9.3287 9.1304,9.4127 8.9829,9.5313 8.8643,9.6788 8.7803,9.8483 8.7346,10.0319 8.7266,10.15 v 1.75 l 0.008,0.1181 0.0457,0.1836 0.084,0.1695 0.1186,0.1475 0.1475,0.1186 0.1695,0.084 0.1836,0.0457 0.1181,0.008 h 1.75 l 0.1181,-0.008 0.1836,-0.0457 0.1695,-0.084 0.1475,-0.1186 0.1186,-0.1475 0.084,-0.1695 0.0457,-0.1836 0.008,-0.1181 V 10.15 L 12.2186,10.0319 12.1729,9.8483 12.0889,9.6788 11.9703,9.5313 11.8228,9.4127 11.6533,9.3287 11.4697,9.283 11.3516,9.275 Z"
           id="path82" /></g><g
         id="g86"
         style="fill:#000000;stroke:#000000" /><g
         style="fill:#000000;fill-opacity:1;stroke:#000000;stroke-width:0;stroke-linecap:round;stroke-linejoin:round;stroke-opacity:1"
         id="g168"><path
           style="fill:#000000;fill-opacity:1;fill-rule:evenodd;stroke:#000000;stroke-width:0;stroke-linecap:round;stroke-linejoin:round;stroke-opacity:1"
           d="m 17.6266,56.875 v -1.7 h -1.7 v 1.7 z"
           id="path88" /><circle
           cx="19.316601"
           cy="56.025002"
           r="0.85000002"
           id="circle90"
           style="fill:#000000;stroke:#000000" /><circle
           cx="16.7766"
           cy="53.485001"
           r="0.85000002"
           id="circle92"
           style="fill:#000000;stroke:#000000" /><circle
           cx="19.316601"
           cy="53.485001"
           r="0.85000002"
           id="circle94"
           style="fill:#000000;stroke:#000000" /><circle
           cx="16.7766"
           cy="50.945"
           r="0.85000002"
           id="circle96"
           style="fill:#000000;stroke:#000000" /><circle
           cx="19.316601"
           cy="50.945"
           r="0.85000002"
           id="circle98"
           style="fill:#000000;stroke:#000000" /><circle
           cx="16.7766"
           cy="48.404999"
           r="0.85000002"
           id="circle100"
           style="fill:#000000;stroke:#000000" /><circle
           cx="19.316601"
           cy="48.404999"
           r="0.85000002"
           id="circle102"
           style="fill:#000000;stroke:#000000" /><circle
           cx="16.7766"
           cy="45.865002"
           r="0.85000002"
           id="circle104"
           style="fill:#000000;stroke:#000000" /><circle
           cx="19.316601"
           cy="45.865002"
           r="0.85000002"
           id="circle106"
           style="fill:#000000;stroke:#000000" /><circle
           cx="16.7766"
           cy="43.325001"
           r="0.85000002"
           id="circle108"
           style="fill:#000000;stroke:#000000" /><circle
           cx="19.316601"
           cy="43.325001"
           r="0.85000002"
           id="circle110"
           style="fill:#000000;stroke:#000000" /><circle
           cx="16.7766"
           cy="40.785"
           r="0.85000002"
           id="circle112"
           style="fill:#000000;stroke:#000000" /><circle
           cx="19.316601"
           cy="40.785"
           r="0.85000002"
           id="circle114"
           style="fill:#000000;stroke:#000000" /><circle
           cx="16.7766"
           cy="38.244999"
           r="0.85000002"
           id="circle116"
           style="fill:#000000;stroke:#000000" /><circle
           cx="19.316601"
           cy="38.244999"
           r="0.85000002"
           id="circle118"
           style="fill:#000000;stroke:#000000" /><circle
           cx="16.7766"
           cy="35.705002"
           r="0.85000002"
           id="circle120"
           style="fill:#000000;stroke:#000000" /><circle
           cx="19.316601"
           cy="35.705002"
           r="0.85000002"
           id="circle122"
           style="fill:#000000;stroke:#000000" /><circle
           cx="16.7766"
           cy="33.165001"
           r="0.85000002"
           id="circle124"
           style="fill:#000000;stroke:#000000" /><circle
           cx="19.316601"
           cy="33.165001"
           r="0.85000002"
           id="circle126"
           style="fill:#000000;stroke:#000000" /><circle
           cx="16.7766"
           cy="30.625"
           r="0.85000002"
           id="circle128"
           style="fill:#000000;stroke:#000000" /><circle
           cx="19.316601"
           cy="30.625"
           r="0.85000002"
           id="circle130"
           style="fill:#000000;stroke:#000000" /><circle
           cx="16.7766"
           cy="28.084999"
           r="0.85000002"
           id="circle132"
           style="fill:#000000;stroke:#000000" /><circle
           cx="19.316601"
           cy="28.084999"
           r="0.85000002"
           id="circle134"
           style="fill:#000000;stroke:#000000" /><circle
           cx="16.7766"
           cy="25.545"
           r="0.85000002"
           id="circle136"
           style="fill:#000000;stroke:#000000" /><circle
           cx="19.316601"
           cy="25.545"
           r="0.85000002"
           id="circle138"
           style="fill:#000000;stroke:#000000" /><circle
           cx="16.7766"
           cy="23.004999"
           r="0.85000002"
           id="circle140"
           style="fill:#000000;stroke:#000000" /><circle
           cx="19.316601"
           cy="23.004999"
           r="0.85000002"
           id="circle142"
           style="fill:#000000;stroke:#000000" /><circle
           cx="16.7766"
           cy="20.465"
           r="0.85000002"
           id="circle144"
           style="fill:#000000;stroke:#000000" /><circle
           cx="19.316601"
           cy="20.465"
           r="0.85000002"
           id="circle146"
           style="fill:#000000;stroke:#000000" /><circle
           cx="16.7766"
           cy="17.924999"
           r="0.85000002"
           id="circle148"
           style="fill:#000000;stroke:#000000" /><circle
           cx="19.316601"
           cy="17.924999"
           r="0.85000002"
           id="circle150"
           style="fill:#000000;stroke:#000000" /><circle
           cx="16.7766"
           cy="15.385"
           r="0.85000002"
           id="circle152"
           style="fill:#000000;stroke:#000000" /><circle
           cx="19.316601"
           cy="15.385"
           r="0.85000002"
           id="circle154"
           style="fill:#000000;stroke:#000000" /><circle
           cx="16.7766"
           cy="12.845"
           r="0.85000002"
           id="circle156"
           style="fill:#000000;stroke:#000000" /><circle
           cx="19.316601"
           cy="12.845"
           r="0.85000002"
           id="circle158"
           style="fill:#000000;stroke:#000000" /><circle
           cx="16.7766"
           cy="10.305"
           r="0.85000002"
           id="circle160"
           style="fill:#000000;stroke:#000000" /><circle
           cx="19.316601"
           cy="10.305"
           r="0.85000002"
           id="circle162"
           style="fill:#000000;stroke:#000000" /><circle
           cx="16.7766"
           cy="7.7649999"
           r="0.85000002"
           id="circle164"
           style="fill:#000000;stroke:#000000" /><circle
           cx="19.316601"
           cy="7.7649999"
           r="0.85000002"
           id="circle166"
           style="fill:#000000;stroke:#000000" /></g><g
         id="g170"
         style="fill:#000000;stroke:#000000" /><g
         style="fill:#000000;fill-opacity:1;stroke:#000000;stroke-width:0;stroke-linecap:round;stroke-linejoin:round;stroke-opacity:1"
         id="g174"><circle
           cx="7.5265999"
           cy="56.775002"
           r="1"
           id="circle172"
           style="fill:#000000;stroke:#000000" /></g><g
         style="fill:#000000;fill-opacity:1;stroke:#000000;stroke-width:0.0212;stroke-linecap:round;stroke-linejoin:round;stroke-opacity:1"
         id="g176" /><g
         style="fill:#000000;fill-opacity:1;stroke:#000000;stroke-width:0;stroke-linecap:round;stroke-linejoin:round;stroke-opacity:1"
         id="g180"><circle
           cx="11.2766"
           cy="14.525"
           r="1"
           id="circle178"
           style="fill:#000000;stroke:#000000" /></g><g
         style="fill:#000000;fill-opacity:1;stroke:#000000;stroke-width:0.0212;stroke-linecap:round;stroke-linejoin:round;stroke-opacity:1"
         id="g182" /><g
         style="fill:#000000;fill-opacity:1;stroke:#000000;stroke-width:0;stroke-linecap:round;stroke-linejoin:round;stroke-opacity:1"
         id="g186"><circle
           cx="13.5266"
           cy="57.025002"
           r="1"
           id="circle184"
           style="fill:#000000;stroke:#000000" /></g><g
         style="fill:#000000;fill-opacity:1;stroke:#000000;stroke-width:0.0212;stroke-linecap:round;stroke-linejoin:round;stroke-opacity:1"
         id="g188" /><g
         style="fill:#000000;fill-opacity:1;stroke:#000000;stroke-width:0;stroke-linecap:round;stroke-linejoin:round;stroke-opacity:1"
         id="g192"><circle
           cx="11.0266"
           cy="57.334999"
           r="1"
           id="circle190"
           style="fill:#000000;stroke:#000000" /></g><g
         style="fill:#000000;fill-opacity:1;stroke:#000000;stroke-width:0.0212;stroke-linecap:round;stroke-linejoin:round;stroke-opacity:1"
         id="g194" /><g
         style="fill:#000000;fill-opacity:1;stroke:#000000;stroke-width:0;stroke-linecap:round;stroke-linejoin:round;stroke-opacity:1"
         id="g198"><circle
           cx="9.3165998"
           cy="50.485001"
           r="1"
           id="circle196"
           style="fill:#000000;stroke:#000000" /></g><g
         style="fill:#000000;fill-opacity:1;stroke:#000000;stroke-width:0.0212;stroke-linecap:round;stroke-linejoin:round;stroke-opacity:1"
         id="g200" /><g
         style="fill:#000000;fill-opacity:1;stroke:#000000;stroke-width:0;stroke-linecap:round;stroke-linejoin:round;stroke-opacity:1"
         id="g204"><circle
           cx="8.5265999"
           cy="29.775"
           r="1"
           id="circle202"
           style="fill:#000000;stroke:#000000" /></g><g
         style="fill:#000000;fill-opacity:1;stroke:#000000;stroke-width:0.0212;stroke-linecap:round;stroke-linejoin:round;stroke-opacity:1"
         id="g206" /><g
         style="fill:#000000;fill-opacity:1;stroke:#000000;stroke-width:0;stroke-linecap:round;stroke-linejoin:round;stroke-opacity:1"
         id="g210"><circle
           cx="9.2765999"
           cy="43.525002"
           r="1"
           id="circle208"
           style="fill:#000000;stroke:#000000" /></g><g
         style="fill:#000000;fill-opacity:1;stroke:#000000;stroke-width:0.0212;stroke-linecap:round;stroke-linejoin:round;stroke-opacity:1"
         id="g212" /><g
         style="fill:#000000;fill-opacity:1;stroke:#000000;stroke-width:0;stroke-linecap:round;stroke-linejoin:round;stroke-opacity:1"
         id="g216"><circle
           cx="13.5266"
           cy="7.2750001"
           r="1"
           id="circle214"
           style="fill:#000000;stroke:#000000" /></g><g
         style="fill:#000000;fill-opacity:1;stroke:#000000;stroke-width:0.0212;stroke-linecap:round;stroke-linejoin:round;stroke-opacity:1"
         id="g218" /><g
         style="fill:#000000;fill-opacity:1;stroke:#000000;stroke-width:0;stroke-linecap:round;stroke-linejoin:round;stroke-opacity:1"
         id="g222"><circle
           cx="9.2765999"
           cy="17.025"
           r="1"
           id="circle220"
           style="fill:#000000;stroke:#000000" /></g><g
         style="fill:#000000;fill-opacity:1;stroke:#000000;stroke-width:0.0212;stroke-linecap:round;stroke-linejoin:round;stroke-opacity:1"
         id="g224" /><g
         id="g226"
         style="fill:#000000;stroke:#000000" /><g
         style="fill:#000000;fill-opacity:1;stroke:#000000;stroke-width:0.0212;stroke-linecap:round;stroke-linejoin:round;stroke-opacity:1"
         id="g228" /><g
         style="fill:#000000;fill-opacity:1;stroke:#000000;stroke-width:1;stroke-linecap:round;stroke-linejoin:round;stroke-opacity:1"
         id="g230" /><g
         style="fill:#000000;fill-opacity:0;stroke:#000000;stroke-width:1;stroke-linecap:round;stroke-linejoin:round;stroke-opacity:1"
         id="g248"><path
           d="m 7.5266,56.775 h 1.64"
           id="path232"
           style="fill:#000000;stroke:#000000" /><path
           d="m 15.2266,54.475 1.55,1.55"
           id="path234"
           style="fill:#000000;stroke:#000000" /><path
           d="m 9.1666,56.775 2.3,-2.3"
           id="path236"
           style="fill:#000000;stroke:#000000" /><path
           d="m 11.4666,54.475 h 3.76"
           id="path238"
           style="fill:#000000;stroke:#000000" /><path
           d="m 11.5266,14.525 3,-3"
           id="path240"
           style="fill:#000000;stroke:#000000" /><path
           d="m 11.2766,14.525 h 0.25"
           id="path242"
           style="fill:#000000;stroke:#000000" /><path
           d="m 14.5266,11.525 v -1.51"
           id="path244"
           style="fill:#000000;stroke:#000000" /><path
           d="m 14.5266,10.015 2.25,-2.25"
           id="path246"
           style="fill:#000000;stroke:#000000" /></g><g
         style="fill:#000000;fill-opacity:0;stroke:#000000;stroke-width:0.5;stroke-linecap:round;stroke-linejoin:round;stroke-opacity:1"
         id="g308"><path
           d="m 21.0266,50.115 -1.71,-1.71"
           id="path250"
           style="fill:#000000;stroke:#000000" /><path
           d="m 20.2766,57.775 0.75,-0.75"
           id="path252"
           style="fill:#000000;stroke:#000000" /><path
           d="m 14.2766,57.775 h 6"
           id="path254"
           style="fill:#000000;stroke:#000000" /><path
           d="m 13.5266,57.025 0.75,0.75"
           id="path256"
           style="fill:#000000;stroke:#000000" /><path
           d="m 21.0266,57.025 v -6.91"
           id="path258"
           style="fill:#000000;stroke:#000000" /><path
           d="m 11.0266,57.335 1.14,1.14"
           id="path260"
           style="fill:#000000;stroke:#000000" /><path
           d="m 21.7266,48.275 -2.41,-2.41"
           id="path262"
           style="fill:#000000;stroke:#000000" /><path
           d="m 20.5665,58.475 1.1601,-1.1601"
           id="path264"
           style="fill:#000000;stroke:#000000" /><path
           d="M 21.7266,57.3149 V 48.275"
           id="path266"
           style="fill:#000000;stroke:#000000" /><path
           d="m 12.1666,58.475 h 8.3999"
           id="path268"
           style="fill:#000000;stroke:#000000" /><path
           d="m 9.3166,50.485 h 0.3"
           id="path270"
           style="fill:#000000;stroke:#000000" /><path
           d="m 9.6166,50.485 7.16,-7.16"
           id="path272"
           style="fill:#000000;stroke:#000000" /><path
           d="M 2.2766,27.275 V 8.0779"
           id="path274"
           style="fill:#000000;stroke:#000000" /><path
           d="m 21.7266,40.915 -2.41,2.41"
           id="path276"
           style="fill:#000000;stroke:#000000" /><path
           d="m 8.5266,29.775 h -3.75"
           id="path278"
           style="fill:#000000;stroke:#000000" /><path
           d="M 2.2766,8.0779 4.7795,5.575"
           id="path280"
           style="fill:#000000;stroke:#000000" /><path
           d="m 20.3165,5.575 1.4101,1.4101"
           id="path282"
           style="fill:#000000;stroke:#000000" /><path
           d="m 4.7795,5.575 h 15.537"
           id="path284"
           style="fill:#000000;stroke:#000000" /><path
           d="M 21.7266,6.9851 V 40.915"
           id="path286"
           style="fill:#000000;stroke:#000000" /><path
           d="m 4.7766,29.775 -2.5,-2.5"
           id="path288"
           style="fill:#000000;stroke:#000000" /><path
           d="m 14.0366,43.525 2.74,-2.74"
           id="path290"
           style="fill:#000000;stroke:#000000" /><path
           d="m 9.2766,43.525 h 4.76"
           id="path292"
           style="fill:#000000;stroke:#000000" /><path
           d="m 20.0266,6.275 1,1"
           id="path294"
           style="fill:#000000;stroke:#000000" /><path
           d="m 21.0266,7.275 v 8.94"
           id="path296"
           style="fill:#000000;stroke:#000000" /><path
           d="m 13.5266,7.275 1,-1"
           id="path298"
           style="fill:#000000;stroke:#000000" /><path
           d="m 14.5266,6.275 h 5.5"
           id="path300"
           style="fill:#000000;stroke:#000000" /><path
           d="m 21.0266,16.215 -1.71,1.71"
           id="path302"
           style="fill:#000000;stroke:#000000" /><path
           d="m 9.2766,17.025 h 5.86"
           id="path304"
           style="fill:#000000;stroke:#000000" /><path
           d="m 15.1366,17.025 1.64,-1.64"
           id="path306"
           style="fill:#000000;stroke:#000000" /></g><g
         id="g310"
         style="fill:#000000;stroke:#000000" /><g
         style="fill:#000000;fill-opacity:0;stroke:#000000;stroke-width:0.5;stroke-linecap:round;stroke-linejoin:round;stroke-opacity:1"
         id="g320"><g
           id="g312"
           style="fill:#000000;stroke:#000000" /><g
           style="fill:#000000;fill-opacity:1;stroke:#000000;stroke-width:0;stroke-linecap:round;stroke-linejoin:round;stroke-opacity:1"
           id="g318"><path
             style="fill:#000000;fill-opacity:1;fill-rule:evenodd;stroke:#000000;stroke-width:0;stroke-linecap:round;stroke-linejoin:round;stroke-opacity:1"
             d="M 0.0841,5.1047 0.0383,5.1575 0.0271,5.209 v 53.6915 l 0.0197,0.067 0.0528,0.0458 0.0515,0.0112 h 10.4326 l 0.067,-0.0197 0.0457,-0.0528 0.01,-0.0691 -0.029,-0.0636 -0.0535,-0.0361 -0.0915,-0.0314 -0.1106,-0.038 -0.2187,-0.1183 -0.1962,-0.1528 -0.1685,-0.1829 -0.136,-0.2082 -0.0999,-0.2277 v 0 L 9.6009,57.819 9.5988,57.8197 9.568,57.7674 9.5056,57.736 9.4583,57.7365 9.4099,57.7464 9.4007,57.7487 9.344,57.7649 9.3137,57.7672 9.2981,57.7694 9.2683,57.7755 v 0 H 9.2094 l -0.0095,4e-4 -0.0588,0.0044 -0.0302,-0.0038 -0.0156,-10e-4 H 8.6995 l -0.0671,0.0197 -0.0242,0.0203 -0.0619,0.0672 v 0 L 8.3501,58.0355 8.1314,58.1538 7.8962,58.2346 7.6509,58.2755 H 7.4023 L 7.157,58.2346 6.9218,58.1538 6.7031,58.0355 6.5069,57.8827 6.3384,57.6998 6.2024,57.4916 6.1025,57.2639 6.0415,57.0228 6.04,57.0048 6.021,56.775 v 0 l 0.0205,-0.2478 v 0 l 0.061,-0.2411 0.0999,-0.2277 0.136,-0.2082 0.0734,-0.0797 0.0951,-0.1032 0.1962,-0.1528 v 0 0 l 0.2187,-0.1183 v 0 L 7.157,55.3154 7.4023,55.2745 h 0.2486 l 0.2453,0.0409 0.2352,0.0808 v 0 l 0.2187,0.1183 0.1962,0.1528 v 0 l 0.0619,0.0672 0.0599,0.036 0.0314,0.004 H 8.7008 L 8.7679,55.7548 8.7885,55.7382 9.4395,55.0872 9.473,55.0259 9.468,54.9562 9.4261,54.9002 9.3607,54.8758 9.3518,54.8755 H 8.4187 v 0 L 8.3591,54.8691 8.2243,54.8188 8.1091,54.7325 8.0228,54.6173 7.9738,54.4859 7.9319,54.43 7.8665,54.4056 7.7982,54.4204 7.7699,54.4416 7.648,54.5635 7.5512,54.6313 7.4544,54.699 v 0 0 l -0.2141,0.0999 v 0 0 l -0.055,0.0147 -0.1733,0.0465 -0.18,0.0157 -0.0554,0.0049 v 0 0 L 6.7212,54.8758 6.5412,54.8601 6.3129,54.7989 6.0988,54.699 5.9052,54.5635 5.7381,54.3964 5.6079,54.2104 5.5533,54.1668 5.4838,54.1596 l -0.0624,0.0315 -0.0167,0.0193 -0.13,0.1857 -0.167,0.167 -0.1935,0.1355 -0.2141,0.0998 v 0 L 4.4866,54.8556 V 53.9605 L 4.3789,54.0097 4.2724,54.025 H 4.2008 L 4.0943,54.0097 3.9866,53.9605 v 0.8951 L 3.7731,54.7984 v 0 L 3.559,54.6986 3.3655,54.5631 3.1985,54.3961 3.063,54.2026 2.9632,53.9885 v 0 L 2.906,53.775 H 3.8029 L 3.7771,53.7348 3.7366,53.5969 V 53.4531 L 3.7771,53.3152 3.8029,53.275 H 2.906 v 0 l 0.0572,-0.2135 v 0 L 3.063,52.8474 v 0 l 0.1355,-0.1935 v 0 l 0.167,-0.167 0.1935,-0.1355 0.2141,-0.0998 v 0 l 0.2135,-0.0572 v 0.8951 L 4.0943,53.0403 4.2008,53.025 h 0.0716 l 0.1065,0.0153 0.1077,0.0492 v -0.8951 0 l 0.2135,0.0572 v 0 l 0.2141,0.0998 v 0 l 0.1935,0.1355 v 0 l 0.167,0.167 v 0 l 0.13,0.1857 0.0546,0.0436 0.0695,0.0072 0.0623,-0.0315 0.0168,-0.0193 0.1302,-0.186 0.1671,-0.1671 v 0 L 6.0988,52.351 v 0 0 l 0.2141,-0.0999 v 0 0 l 0.2283,-0.0612 v 0 l 0.2354,-0.0206 v 0 l 0.2354,0.0206 v 0 l 0.2283,0.0612 v 0 l 0.2141,0.0999 v 0 l 0.1936,0.1355 0.1219,0.1219 0.0613,0.0335 0.0697,-0.005 0.056,-0.0418 0.0169,-0.031 0.049,-0.1314 v 0 l 0.0863,-0.1152 v 0 l 0.1152,-0.0863 v 0 l 0.1348,-0.0503 v 0 l 0.0596,-0.0064 v 0 0 0 h 0.455 L 8.9407,52.1548 8.9864,52.102 8.9964,52.0329 8.9674,51.9693 8.9139,51.9332 8.8596,51.9146 8.7118,51.8638 8.4931,51.7455 8.2969,51.5927 8.1284,51.4098 7.9924,51.2016 7.8925,50.9739 7.8315,50.7328 v 0 L 7.811,50.485 v 0 l 0.0205,-0.2478 v 0 l 0.061,-0.2411 0.0999,-0.2277 0.136,-0.2082 0.1075,-0.1167 0.061,-0.0662 0.1962,-0.1528 v 0 0 l 0.2187,-0.1183 v 0 L 8.947,49.0254 9.1923,48.9845 h 0.2486 l 0.2453,0.0409 0.1714,0.0589 0.0698,0.0031 0.0582,-0.0327 1.3818,-1.3818 h -0.7003 v 0 l -0.0064,0.0596 -0.0503,0.1348 v 0 l -0.0863,0.1152 v 0 l -0.1152,0.0863 v 0 l -0.1348,0.0503 v 0 l -0.0069,7e-4 -0.0527,0.0057 H 8.4187 L 8.3591,48.1191 8.2243,48.0688 8.1091,47.9825 8.0228,47.8673 7.9738,47.7359 7.9319,47.68 7.8665,47.6556 7.7982,47.6704 7.7699,47.6916 7.648,47.8135 7.5678,47.8697 7.4544,47.949 v 0 0 l -0.2141,0.0999 -0.2283,0.0612 -0.1764,0.0154 -0.059,0.0052 v 0 0 L 6.7176,48.1255 6.5412,48.1101 6.3129,48.0489 6.0988,47.949 5.9052,47.8135 5.7381,47.6464 5.6079,47.4604 5.5533,47.4168 5.4838,47.4096 l -0.0624,0.0315 -0.0167,0.0193 -0.13,0.1857 -0.167,0.167 -0.1935,0.1355 -0.2141,0.0998 v 0 L 4.4866,48.1056 V 47.2105 L 4.3789,47.2597 4.2724,47.275 H 4.2008 L 4.0943,47.2597 3.9866,47.2105 v 0.8951 L 3.7731,48.0484 v 0 L 3.559,47.9486 3.3655,47.8131 3.1985,47.6461 3.063,47.4526 2.9632,47.2385 v 0 L 2.906,47.025 H 3.8029 L 3.7771,46.9848 3.7366,46.8469 V 46.7031 L 3.7771,46.5652 3.8029,46.525 H 2.906 v 0 l 0.0572,-0.2135 v 0 L 3.063,46.0974 v 0 l 0.1355,-0.1935 v 0 l 0.167,-0.167 0.1935,-0.1355 0.2141,-0.0998 v 0 l 0.2135,-0.0572 v 0.8951 L 4.0943,46.2903 4.2008,46.275 h 0.0716 l 0.1065,0.0153 0.1077,0.0492 v -0.8951 0 l 0.2135,0.0572 v 0 l 0.2141,0.0998 v 0 l 0.1935,0.1355 v 0 l 0.167,0.167 v 0 l 0.13,0.1857 0.0546,0.0436 0.0695,0.0072 0.0623,-0.0315 0.0168,-0.0193 0.1302,-0.186 0.1671,-0.1671 v 0 L 6.0988,45.601 v 0 0 l 0.2141,-0.0999 v 0 0 l 0.2283,-0.0612 v 0 l 0.2354,-0.0206 v 0 l 0.2354,0.0206 v 0 l 0.2283,0.0612 v 0 l 0.2141,0.0999 v 0 l 0.1936,0.1355 0.1219,0.1219 0.0613,0.0335 0.0697,-0.005 0.056,-0.0418 0.0169,-0.031 0.049,-0.1314 v 0 l 0.0863,-0.1152 v 0 l 0.1152,-0.0863 v 0 l 0.1348,-0.0503 v 0 l 0.0596,-0.0064 v 0 0 0 h 1.7958 v 0 l 0.0596,0.0064 0.1348,0.0503 v 0 l 0.1152,0.0863 v 0 l 0.0863,0.1152 v 0 l 0.0503,0.1348 0.0064,0.0596 v 0 1.7958 h 0.7003 l 4.0363,-4.0364 0.0335,-0.0613 0.0024,-0.0372 -0.0012,-0.013 -0.0042,-0.0482 -0.0254,-0.065 -0.0566,-0.041 -0.0698,-0.0039 -0.0594,0.0331 -0.6107,0.6106 -0.0117,0.0137 -0.0144,0.0192 -0.0379,0.0319 -0.008,0.0073 -0.0039,0.0039 -0.0243,0.0192 -0.0028,0.0023 -0.0278,0.0233 -0.0297,0.0249 v 0 l -0.006,0.004 v 0 l -0.0063,0.0041 -1e-4,-1e-4 -0.0061,0.0038 -0.068,0.0317 -0.0032,0.0016 -0.0671,0.0336 v 0 l -0.0068,0.0025 10e-5,1e-4 -0.0072,0.0024 v 0 l -0.0068,0.0023 v 0 0 l -0.0735,0.0151 -0.0034,8e-4 -0.0731,0.0173 v 0 l -0.0072,8e-4 10e-5,1e-4 -0.0075,8e-4 -10e-5,-1e-4 -0.0071,6e-4 v 0 0 l -0.075,-0.0021 -0.0036,-10e-5 h -3.3782 l -0.067,0.0197 -0.0368,0.0365 -0.0771,0.1181 -0.1685,0.1829 -0.1962,0.1528 -0.2187,0.1183 -0.2352,0.0808 -0.2453,0.0409 H 9.1523 L 8.907,44.9846 8.6718,44.9038 8.4531,44.7855 8.2569,44.6327 8.0884,44.4498 7.9524,44.2416 7.8525,44.0139 7.7915,43.7728 7.7764,43.5906 7.771,43.525 v 0 l 0.0205,-0.2478 v 0 l 0.061,-0.2411 0.0999,-0.2277 0.136,-0.2082 0.0216,-0.0235 0.1469,-0.1594 0.1962,-0.1528 v 0 0 l 0.2187,-0.1183 v 0 L 8.907,42.0654 9.1523,42.0245 h 0.2486 l 0.2453,0.0409 0.2352,0.0808 v 0 l 0.2187,0.1183 0.0282,0.022 0.168,0.1308 0.1685,0.1829 0.0771,0.1181 0.0532,0.0454 0.0506,0.0108 h 3.0287 l 0.067,-0.0197 0.0207,-0.0166 1.6416,-1.6417 0.0335,-0.0613 0.0024,-0.0372 -6e-4,-0.0067 -0.0181,-0.2063 0.0206,-0.2354 0.034,-0.1267 h -3.7684 v 0 l -0.0064,0.0596 -0.0503,0.1348 v 0 l -0.0863,0.1152 v 0 l -0.1152,0.0863 v 0 l -0.1348,0.0503 v 0 l -0.0069,7e-4 -0.0527,0.0057 H 9.4587 L 9.3991,40.8691 9.2643,40.8188 9.1491,40.7325 9.0628,40.6173 9.0138,40.4859 8.9719,40.43 8.9065,40.4056 8.8382,40.4204 8.8099,40.4416 8.688,40.5635 8.5912,40.6313 8.4944,40.699 v 0 0 l -0.2141,0.0999 -0.2283,0.0612 -0.1764,0.0154 -0.059,0.0052 v 0 0 L 7.7576,40.8755 7.5812,40.8601 7.3529,40.7989 7.1388,40.699 6.9452,40.5635 6.7781,40.3964 6.6482,40.2108 6.5936,40.1672 6.5241,40.16 6.4617,40.1915 6.445,40.2108 l -0.1297,0.1853 -2e-4,3e-4 -0.1671,0.1671 -0.0968,0.0678 -0.0968,0.0677 v 0 0 l -0.2141,0.0999 -0.2283,0.0612 -0.1764,0.0154 -0.059,0.0052 v 0 0 L 5.2176,40.8755 5.0412,40.8601 4.8129,40.7989 4.5988,40.699 4.4052,40.5635 4.2381,40.3964 4.1079,40.2104 4.0533,40.1668 3.9838,40.1596 l -0.0624,0.0315 -0.0167,0.0193 -0.13,0.1857 -0.167,0.167 -0.1935,0.1355 -0.2141,0.0998 v 0 L 2.9866,40.8556 V 39.9605 L 2.8789,40.0097 2.7724,40.025 H 2.7008 L 2.5943,40.0097 2.4866,39.9605 v 0.8951 L 2.2731,40.7984 v 0 L 2.059,40.6986 1.8655,40.5631 1.6985,40.3961 1.563,40.2026 1.4632,39.9885 v 0 L 1.406,39.775 H 2.3029 L 2.2771,39.7348 2.2366,39.5969 V 39.4531 L 2.2771,39.3152 2.3029,39.275 H 1.406 v 0 l 0.0572,-0.2135 v 0 L 1.563,38.8474 v 0 l 0.1355,-0.1935 v 0 l 0.167,-0.167 0.1935,-0.1355 0.2141,-0.0998 v 0 l 0.2135,-0.0572 v 0.8951 L 2.5943,39.0403 2.7008,39.025 h 0.0716 l 0.1065,0.0153 0.1077,0.0492 v -0.8951 0 l 0.2135,0.0572 v 0 l 0.2141,0.0998 v 0 l 0.1935,0.1355 v 0 l 0.167,0.167 v 0 l 0.13,0.1857 0.0546,0.0436 0.0695,0.0072 0.0623,-0.0315 0.0168,-0.0193 0.1302,-0.186 0.1671,-0.1671 v 0 L 4.4139,38.4804 4.4821,38.4327 4.5988,38.351 v 0 0 l 0.2141,-0.0999 v 0 0 l 0.2283,-0.0612 v 0 l 0.2354,-0.0206 v 0 l 0.2354,0.0206 v 0 l 0.2283,0.0612 v 0 l 0.2141,0.0999 v 0 l 0.1936,0.1355 0.1671,0.1671 0.1299,0.1856 0.0546,0.0436 0.0695,0.0072 0.0624,-0.0315 0.0167,-0.0193 0.1299,-0.1856 0.1671,-0.1671 v 0 L 6.9539,38.4804 7.0221,38.4327 7.1388,38.351 v 0 0 l 0.2141,-0.0999 v 0 0 l 0.2283,-0.0612 v 0 l 0.2354,-0.0206 v 0 l 0.2354,0.0206 v 0 l 0.2283,0.0612 v 0 l 0.2141,0.0999 v 0 l 0.1936,0.1355 0.1219,0.1219 0.0613,0.0335 0.0697,-0.005 0.056,-0.0418 0.0169,-0.031 0.049,-0.1314 v 0 l 0.0863,-0.1152 v 0 l 0.1152,-0.0863 v 0 l 0.1348,-0.0503 v 0 l 0.0596,-0.0064 v 0 0 0 h 1.7958 v 0 l 0.0596,0.0064 0.1348,0.0503 v 0 l 0.1152,0.0863 v 0 l 0.0863,0.1152 v 0 l 0.0503,0.1348 0.0064,0.0596 v 0 1.7958 h 3.7684 l 0.0272,-0.1016 0.0999,-0.2141 0.0056,-0.008 0.1299,-0.1856 0.1671,-0.1671 v 0 l 0.1856,-0.1299 0.0436,-0.0546 0.0072,-0.0695 -0.0315,-0.0624 -0.0193,-0.0167 -0.1404,-0.0982 -0.0452,-0.0317 -0.1671,-0.1671 -0.1355,-0.1936 -0.0999,-0.2141 -0.0612,-0.2283 -0.0206,-0.2354 0.0206,-0.2354 0.0612,-0.2283 0.0999,-0.2141 0.0056,-0.008 0.1299,-0.1856 0.1671,-0.1671 v 0 l 0.1856,-0.1299 0.0436,-0.0546 0.0072,-0.0695 -0.0315,-0.0624 -0.0193,-0.0167 -0.0222,-0.0155 -0.1634,-0.1144 -0.1671,-0.1671 -0.1355,-0.1936 -0.0999,-0.2141 -0.0612,-0.2283 -0.0206,-0.2354 0.0206,-0.2354 0.0612,-0.2283 0.0999,-0.2141 0.0056,-0.008 0.1299,-0.1856 0.1671,-0.1671 v 0 l 0.1856,-0.1299 0.0436,-0.0546 0.0072,-0.0695 -0.0315,-0.0624 -0.0193,-0.0167 -0.0222,-0.0155 -0.1634,-0.1144 -0.1671,-0.1671 -0.1355,-0.1936 -0.0999,-0.2141 -0.0612,-0.2283 -0.0206,-0.2354 0.0206,-0.2354 0.0612,-0.2283 0.0999,-0.2141 0.0056,-0.008 0.1299,-0.1856 0.1671,-0.1671 v 0 l 0.1856,-0.1299 0.0436,-0.0546 0.0072,-0.0695 -0.0315,-0.0624 -0.0193,-0.0167 -0.0808,-0.0565 -0.1048,-0.0734 -0.1671,-0.1671 -0.1355,-0.1936 -0.0999,-0.2141 -0.0612,-0.2283 -0.0206,-0.2354 0.0206,-0.2354 0.0612,-0.2283 0.0999,-0.2141 0.0056,-0.008 0.1299,-0.1856 0.1671,-0.1671 v 0 l 0.1856,-0.1299 0.0436,-0.0546 0.0072,-0.0695 -0.0315,-0.0624 -0.0193,-0.0167 -0.0222,-0.0155 -0.1634,-0.1144 -0.1671,-0.1671 -0.1355,-0.1936 -0.0999,-0.2141 -0.0612,-0.2283 -0.0206,-0.2354 0.0206,-0.2354 0.0612,-0.2283 0.0999,-0.2141 0.0011,-0.0016 0.1344,-0.192 0.1671,-0.1671 v 0 l 0.1856,-0.1299 0.0436,-0.0546 0.0072,-0.0695 -0.0315,-0.0624 -0.0193,-0.0167 -0.1665,-0.1165 -0.0191,-0.0134 -0.1671,-0.1671 -0.1355,-0.1936 -0.0999,-0.2141 -0.0612,-0.2283 -0.0206,-0.2354 0.0206,-0.2354 0.0612,-0.2283 0.0999,-0.2141 0.0056,-0.008 0.1299,-0.1856 0.1671,-0.1671 v 0 l 0.1856,-0.1299 0.0436,-0.0546 0.0072,-0.0695 -0.0315,-0.0624 -0.0193,-0.0167 -0.0222,-0.0155 -0.1634,-0.1144 -0.1671,-0.1671 -0.1355,-0.1936 -0.0999,-0.2141 -0.0612,-0.2283 -0.0206,-0.2354 0.0206,-0.2354 0.0612,-0.2283 0.0999,-0.2141 0.0056,-0.008 0.1299,-0.1856 0.1671,-0.1671 v 0 l 0.1856,-0.1299 0.0436,-0.0546 0.0072,-0.0695 -0.0315,-0.0624 -0.0193,-0.0167 -0.0222,-0.0155 -0.1634,-0.1144 -0.1671,-0.1671 -0.1355,-0.1936 -0.0999,-0.2141 -0.0612,-0.2283 -0.0206,-0.2354 0.0014,-0.015 0.0165,-0.1896 0.0027,-0.0308 0.0612,-0.2283 0.0999,-0.2141 0.0056,-0.008 0.1299,-0.1856 0.1671,-0.1671 v 0 l 0.1856,-0.1299 0.0436,-0.0546 0.0072,-0.0695 -0.0315,-0.0624 -0.0193,-0.0167 -0.1522,-0.1065 -0.0334,-0.0234 -0.1671,-0.1671 -0.1355,-0.1936 -0.0999,-0.2141 -0.0612,-0.2283 -0.0206,-0.2354 0.0026,-0.0292 -0.0138,-0.0685 -0.0486,-0.0502 -0.068,-0.0159 -0.0217,0.0031 -0.0471,0.0112 v 0 0 0 l -0.0072,8e-4 10e-5,10e-5 -0.0075,8e-4 -10e-5,-10e-5 -0.0071,6e-4 v 0 0 l -0.075,-0.0021 -0.0036,-10e-5 h -4.4782 l -0.067,0.0197 -0.0368,0.0365 -0.0771,0.1181 -0.1685,0.1829 -0.1962,0.1528 -0.2187,0.1183 -0.0856,0.0294 -0.057,0.0404 -0.0261,0.0648 0.013,0.0686 0.0481,0.0507 0.0623,0.0168 h 0.0884 v 0 l 0.0596,0.0064 0.1348,0.0503 v 0 l 0.1152,0.0863 v 0 l 0.0863,0.1152 v 0 l 0.0503,0.1348 0.0064,0.0596 v 0 1.7958 0 l -0.0064,0.0596 -0.0503,0.1348 v 0 l -0.0863,0.1152 v 0 l -0.1152,0.0863 v 0 l -0.1348,0.0503 v 0 l -0.0069,7e-4 -0.0527,0.0057 H 8.1287 L 8.0691,21.3691 7.9343,21.3188 7.8191,21.2325 7.7328,21.1173 7.6838,20.9859 7.6419,20.93 7.5765,20.9056 7.5082,20.9204 7.4799,20.9416 7.358,21.0635 7.2612,21.1313 7.1644,21.199 v 0 0 l -0.2141,0.0999 -0.2283,0.0612 -0.1764,0.0154 -0.059,0.0052 v 0 0 L 6.4276,21.3755 6.2512,21.3601 6.0229,21.2989 5.8088,21.199 5.6152,21.0635 5.4481,20.8964 5.3179,20.7104 5.2633,20.6668 5.1938,20.6596 l -0.0624,0.0315 -0.0167,0.0193 -0.13,0.1857 -0.167,0.167 -0.1935,0.1355 -0.2141,0.0998 v 0 L 4.1966,21.3556 V 20.4605 L 4.0889,20.5097 3.9824,20.525 H 3.9108 L 3.8043,20.5097 3.6966,20.4605 v 0.8951 L 3.4831,21.2984 v 0 L 3.269,21.1986 3.2222,21.1658 3.156,21.1435 l -0.0677,0.017 -0.0479,0.051 -0.0133,0.0559 v 4.0432 l 0.0197,0.067 0.0528,0.0458 0.0691,0.0099 0.0535,-0.0211 0.0868,-0.0608 v 0 l 0.2141,-0.0998 v 0 l 0.2135,-0.0572 v 0.8951 L 3.8443,26.0403 3.9508,26.025 h 0.0716 l 0.1065,0.0153 0.1077,0.0492 v -0.8951 0 l 0.2135,0.0572 v 0 l 0.2141,0.0998 v 0 l 0.1935,0.1355 v 0 l 0.167,0.167 v 0 l 0.13,0.1857 0.0546,0.0436 0.0695,0.0072 0.0623,-0.0315 0.0168,-0.0193 0.1302,-0.186 0.1671,-0.1671 v 0 L 5.8488,25.351 v 0 0 l 0.2141,-0.0999 v 0 0 l 0.2283,-0.0612 v 0 l 0.2354,-0.0206 v 0 l 0.2354,0.0206 v 0 l 0.2283,0.0612 v 0 l 0.2141,0.0999 v 0 l 0.1936,0.1355 0.1219,0.1219 0.0613,0.0335 0.0697,-0.005 0.056,-0.0418 0.0169,-0.031 0.049,-0.1314 v 0 l 0.0863,-0.1152 v 0 l 0.1152,-0.0863 v 0 l 0.1348,-0.0503 v 0 l 0.0596,-0.0064 v 0 0 0 h 1.7958 v 0 l 0.0596,0.0064 0.1348,0.0503 v 0 l 0.1152,0.0863 v 0 l 0.0863,0.1152 v 0 l 0.0503,0.1348 0.0064,0.0596 v 0 1.7958 0 l -0.0064,0.0596 -0.0503,0.1348 v 0 l -0.0863,0.1152 v 0 l -0.1152,0.0863 v 0 l -0.1348,0.0503 v 0 l -0.0069,7e-4 -0.0527,0.0057 H 8.1687 L 8.1091,27.8691 7.9743,27.8188 7.8591,27.7325 7.7728,27.6173 7.7238,27.4859 7.6819,27.43 7.6165,27.4056 7.5482,27.4204 7.5199,27.4416 7.398,27.5635 7.3154,27.6213 7.2044,27.699 v 0 0 l -0.2141,0.0999 -0.2283,0.0612 -0.1764,0.0154 -0.059,0.0052 v 0 0 L 6.4676,27.8755 6.2912,27.8601 6.0629,27.7989 5.8488,27.699 5.6552,27.5635 5.4881,27.3964 5.3579,27.2104 5.3033,27.1668 5.2338,27.1596 l -0.0624,0.0315 -0.0167,0.0193 -0.13,0.1857 -0.167,0.167 -0.1935,0.1355 -0.2141,0.0998 v 0 l -0.2282,0.0612 v 0 l -0.0104,9e-4 -0.065,0.0254 -0.041,0.0566 -0.0039,0.0698 0.0331,0.0594 0.9164,0.9165 0.0614,0.0335 0.0263,0.0028 h 2.0187 l 0.067,-0.0197 0.0368,-0.0365 0.0078,-0.0119 0.0693,-0.1062 0.1685,-0.1829 0.1962,-0.1528 v 0 0 l 0.2187,-0.1183 v 0 L 8.157,28.3154 8.4023,28.2745 h 0.2486 l 0.2453,0.0409 0.2352,0.0808 v 0 l 0.2187,0.1183 0.1962,0.1528 0.1685,0.1829 0.136,0.2082 0.0999,0.2277 0.061,0.2411 v 0 l 0.0205,0.2478 v 0 l -0.0205,0.2478 v 0 l -0.061,0.2411 -0.0999,0.2277 -0.136,0.2082 v 0 0 l -0.1685,0.1829 -0.1962,0.1528 -0.1093,0.0592 -0.1094,0.0591 v 0 l -0.0856,0.0294 -0.057,0.0404 -0.0261,0.0648 0.013,0.0686 0.0481,0.0507 0.0623,0.0168 h 0.8784 v 0 l 0.0596,0.0064 0.1348,0.0503 v 0 l 0.1152,0.0863 v 0 l 0.0863,0.1152 v 0 l 0.0503,0.1348 0.0064,0.0596 v 0 1.7958 0 l -0.0064,0.0596 -0.0503,0.1348 v 0 l -0.0863,0.1152 v 0 l -0.1152,0.0863 v 0 l -0.1348,0.0503 v 0 l -0.0069,7e-4 -0.0527,0.0057 H 8.1687 L 8.1091,34.1191 7.9743,34.0688 7.8591,33.9825 7.7728,33.8673 7.7238,33.7359 7.6819,33.68 7.6165,33.6556 7.5482,33.6704 7.5199,33.6916 7.398,33.8135 7.3012,33.8813 7.2044,33.949 v 0 0 l -0.2141,0.0999 -0.2283,0.0612 -0.1764,0.0154 -0.059,0.0052 v 0 0 L 6.4676,34.1255 6.2912,34.1101 6.0629,34.0489 5.8488,33.949 5.6552,33.8135 5.4881,33.6464 5.3579,33.4604 5.3033,33.4168 5.2338,33.4096 l -0.0624,0.0315 -0.0167,0.0193 -0.13,0.1857 -0.167,0.167 -0.1935,0.1355 -0.2141,0.0998 v 0 L 4.2366,34.1056 V 33.2105 L 4.1289,33.2597 4.0224,33.275 H 3.9508 L 3.8443,33.2597 3.7366,33.2105 v 0.8951 L 3.5231,34.0484 v 0 L 3.309,33.9486 3.1155,33.8131 2.9485,33.6461 2.813,33.4526 2.7132,33.2385 v 0 L 2.656,33.025 H 3.5529 L 3.5271,32.9848 3.4866,32.8469 V 32.7031 L 3.5271,32.5652 3.5529,32.525 H 2.656 v 0 l 0.0572,-0.2135 v 0 L 2.813,32.0974 v 0 l 0.1355,-0.1935 v 0 l 0.167,-0.167 0.1935,-0.1355 0.2141,-0.0998 v 0 l 0.2135,-0.0572 v 0.8951 L 3.8443,32.2903 3.9508,32.275 h 0.0716 l 0.1065,0.0153 0.1077,0.0492 v -0.8951 0 l 0.2135,0.0572 v 0 l 0.2141,0.0998 v 0 l 0.1935,0.1355 v 0 l 0.167,0.167 v 0 l 0.13,0.1857 0.0546,0.0436 0.0695,0.0072 0.0623,-0.0315 0.0168,-0.0193 0.1302,-0.186 0.1671,-0.1671 v 0 L 5.8488,31.601 v 0 0 l 0.2141,-0.0999 v 0 0 l 0.2283,-0.0612 v 0 l 0.2354,-0.0206 v 0 l 0.2354,0.0206 v 0 l 0.2283,0.0612 v 0 l 0.2141,0.0999 v 0 l 0.1936,0.1355 0.1219,0.1219 0.0613,0.0335 0.0697,-0.005 0.056,-0.0418 0.0169,-0.031 0.049,-0.1314 v 0 l 0.0863,-0.1152 v 0 l 0.1152,-0.0863 v 0 L 8.0817,31.4411 8.1376,31.3993 8.1621,31.3338 8.1472,31.2655 8.0978,31.2161 8.0786,31.2077 7.9218,31.1538 v 0 0 L 7.7031,31.0355 7.5069,30.8827 7.3384,30.6998 7.2613,30.5817 7.2081,30.5363 7.1575,30.5255 H 4.8403 L 4.8223,30.5268 4.7986,30.5303 4.7492,30.526 4.7384,30.5255 H 4.7329 v 0 L 4.702,30.5219 4.6986,30.5215 4.6238,30.515 v 0 L 4.6167,30.5135 v 10e-5 L 4.6094,30.512 v -10e-5 l -0.007,-0.0017 h -1e-4 L 4.5318,30.4846 4.5285,30.4834 4.4573,30.4598 v 0 l -0.0066,-0.003 v 0 L 4.4439,30.4535 v 0 L 4.4375,30.4502 v 0 L 4.3748,30.409 4.3719,30.4071 4.3079,30.3677 v 0 l -0.0056,-0.0045 -10e-5,10e-5 -0.0058,-0.0048 v 0 L 4.2909,30.3538 v 0 L 4.2394,30.2993 4.237,30.2967 1.791,27.8507 1.7773,27.8389 1.7581,27.8246 1.7262,27.7867 1.7189,27.7787 1.715,27.7748 v 0 0 L 1.6958,27.7504 1.6935,27.7477 1.6453,27.6902 v 0 l -0.004,-0.006 v 0 l -0.0041,-0.0063 10e-5,-10e-5 -0.0038,-0.0061 v 0 L 1.6018,27.6037 1.6002,27.6005 1.5666,27.5334 v 0 l -0.0025,-0.0068 -10e-5,1e-4 -0.0024,-0.0072 v 0 L 1.5593,27.5127 1.5531,27.4825 1.5442,27.4391 1.5434,27.4358 1.5261,27.3627 v 0 l -8e-4,-0.0072 -1e-4,10e-5 -8e-4,-0.0075 10e-5,-10e-5 -6e-4,-0.0071 0.0021,-0.075 10e-5,-0.0036 V 8.1416 L 1.5248,8.1237 1.5215,8.101 1.5213,8.0999 1.5217,8.0958 1.5256,8.0506 1.5261,8.0398 v -0.0056 0 L 1.5297,8.0035 1.5301,7.9999 1.5366,7.9251 1.5381,7.9181 H 1.538 L 1.5396,7.9107 h 10e-5 l 0.0017,-0.007 v 0 L 1.567,7.8332 1.5682,7.8299 1.5918,7.7586 v 0 L 1.5948,7.7521 V 7.752 L 1.5981,7.7453 v 0 L 1.6014,7.7388 1.6426,7.6762 1.6445,7.6731 1.6839,7.6093 1.6884,7.6036 H 1.6883 L 1.6931,7.5977 v 1e-4 L 1.6978,7.5922 1.7523,7.5408 1.7549,7.5383 3.9965,5.2967 4.03,5.2354 4.025,5.1657 3.9831,5.1097 3.9177,5.0853 3.9088,5.085 H 0.1511 Z"
             id="path314" /><path
             style="fill:#000000;fill-opacity:1;fill-rule:evenodd;stroke:#000000;stroke-width:0;stroke-linecap:round;stroke-linejoin:round;stroke-opacity:1"
             d="M 7.8092,6.3452 7.7634,6.398 7.7535,6.4671 7.7743,6.5201 7.8682,6.6556 v 0 l 0.093,0.2049 0.055,0.2182 0.0104,0.1321 V 7.775 H 7.2103 L 7.2361,7.8152 7.2766,7.9531 V 8.0969 L 7.2361,8.2348 7.2103,8.275 H 8.0266 V 8.8392 L 8.0162,8.9713 7.9612,9.1895 7.8682,9.3944 v 0 L 7.74,9.5793 v 0 L 7.5809,9.7384 v 0 L 7.396,9.8666 v 0 L 7.1911,9.9596 6.9729,10.0146 6.8408,10.025 H 6.0266 v 0 -1.5 h -0.5 v 1.5 H 4.7124 v 0 L 4.5803,10.0146 4.3621,9.9596 4.1572,9.8666 v 0 L 3.9723,9.7384 v 0 L 3.8132,9.5793 v 0 L 3.685,9.3944 v 0 L 3.592,9.1895 3.537,8.9713 3.5266,8.8392 V 8.1887 L 3.5069,8.1216 3.4541,8.0759 3.385,8.0659 3.3214,8.095 3.3149,8.101 3.0634,8.3525 3.0299,8.4138 3.0271,8.4402 v 10.3424 l 0.0197,0.067 0.0528,0.0458 0.0691,0.0099 0.0535,-0.0211 0.0468,-0.0328 v 0 l 0.2141,-0.0998 v 0 l 0.2135,-0.0572 v 0.8951 L 3.8043,19.5403 3.9108,19.525 h 0.0716 l 0.1065,0.0153 0.1077,0.0492 v -0.8951 0 l 0.2135,0.0572 v 0 l 0.2141,0.0998 v 0 l 0.1935,0.1355 v 0 l 0.167,0.167 v 0 l 0.13,0.1857 0.0546,0.0436 0.0695,0.0072 0.0623,-0.0315 0.0168,-0.0193 0.1302,-0.186 0.1671,-0.1671 v 0 L 5.8088,18.851 v 0 l 0.0028,-0.0014 0.2113,-0.0985 v 0 0 l 0.2283,-0.0612 v 0 l 0.2354,-0.0206 v 0 l 0.2354,0.0206 v 0 l 0.2283,0.0612 v 0 l 0.2141,0.0999 v 0 l 0.1936,0.1355 0.1219,0.1219 0.0613,0.0335 0.0697,-0.005 0.056,-0.0418 0.0169,-0.031 0.049,-0.1314 v 0 l 0.0863,-0.1152 v 0 l 0.1152,-0.0863 v 0 l 0.1348,-0.0503 v 0 l 0.0596,-0.0064 v 0 0 0 H 8.7171 L 8.7842,18.6548 8.8299,18.602 8.8399,18.5329 8.8109,18.4693 8.7574,18.4332 8.6718,18.4038 v 0 0 L 8.4531,18.2855 8.2569,18.1327 8.0884,17.9498 7.9524,17.7416 7.8525,17.5139 7.7915,17.2728 v 0 L 7.771,17.025 v 0 l 0.0205,-0.2478 v 0 l 0.061,-0.2411 0.0651,-0.1482 0.0089,-0.0693 -0.03,-0.0631 -0.0593,-0.0369 -0.0699,0.001 -0.0066,0.0023 -0.1266,0.0472 v 0 l -0.0069,7e-4 -0.0527,0.0057 H 3.9787 L 3.9191,16.2691 3.7843,16.2188 3.6691,16.1325 3.5828,16.0173 3.5325,15.8825 3.5261,15.8229 v -3.5958 l 0.0064,-0.0596 10e-5,-3e-4 0.0502,-0.1345 v 0 l 0.0863,-0.1152 v 0 l 0.1152,-0.0863 v 0 l 0.1348,-0.0503 v 0 l 0.0596,-0.0064 v 0 0 0 h 3.5958 v 0 l 0.0596,0.0064 0.1348,0.0503 v 0 l 0.1152,0.0863 v 0 l 0.0863,0.1152 v 0 l 0.0182,0.0488 0.0419,0.0559 0.0654,0.0245 0.0683,-0.0149 0.0494,-0.0494 0.015,-0.066 -0.002,-0.038 v 0 -0.7186 h 1.75 v -0.5 h -1.75 v -0.7186 0 L 8.2294,10.0038 8.2738,9.774 8.3565,9.555 8.4749,9.3532 v 0 l 0.1509,-0.179 v 0 l 0.179,-0.1509 v 0 L 9.0066,8.9049 9.2256,8.8222 9.4554,8.7778 9.508,8.775 v 0 h 0.7186 V 9.5913 L 10.2668,9.5655 10.4047,9.525 h 0.1438 l 0.1379,0.0405 0.0402,0.0258 V 8.775 h 0.7186 v 0 l 0.0526,0.0028 0.2298,0.0444 0.219,0.0827 0.2018,0.1184 v 0 l 0.179,0.1509 v 0 l 0.1509,0.179 v 0 l 0.1184,0.2018 0.0827,0.219 0.0444,0.2298 v 0 l 0.0028,0.0526 v 0 0.7186 h -1.75 v 0.5 h 1.75 v 0.7186 l -0.0028,0.0526 -0.0444,0.2298 -0.0827,0.219 -0.1184,0.2018 v 0 l -0.1509,0.179 v 0 l -0.179,0.1509 v 0 l -0.2018,0.1184 -0.219,0.0827 -0.2298,0.0444 -0.0526,0.0028 v 0 h -0.7186 v 0 -0.8163 l -0.0402,0.0258 -0.1379,0.0405 H 10.4047 L 10.2668,12.4845 10.2266,12.4587 V 13.275 H 9.508 v 0 L 9.4554,13.2722 9.2256,13.2278 9.0066,13.1451 8.8048,13.0267 v 0 l -0.179,-0.1509 v 0 l -0.1509,-0.179 v 0 L 8.3565,12.495 8.2738,12.276 8.2728,12.2709 8.2408,12.2088 8.1803,12.1739 l -0.0698,0.0033 -0.0569,0.0406 -0.0259,0.0649 -6e-4,0.0117 v 3.5285 0 l -0.0017,0.0155 0.0124,0.0687 0.0476,0.0512 0.0677,0.0173 0.0663,-0.0221 0.0206,-0.0179 0.0169,-0.0183 0.1212,-0.0944 0.075,-0.0584 v 0 0 l 0.2187,-0.1183 v 0 L 8.907,15.5654 9.1523,15.5245 h 0.2486 l 0.2453,0.0409 0.2352,0.0808 v 0 l 0.2187,0.1183 0.1962,0.1528 0.1685,0.1829 0.0771,0.1181 0.0532,0.0454 0.0506,0.0108 h 4.1287 l 0.067,-0.0197 0.0207,-0.0166 0.5416,-0.5417 0.0335,-0.0613 0.0024,-0.0372 -0.0187,-0.213 v 0 l 0.0206,-0.2354 v 0 l 0.0612,-0.2283 0.0999,-0.2141 0.0056,-0.008 0.1299,-0.1856 0.1671,-0.1671 v 0 l 0.1856,-0.1299 0.0436,-0.0546 0.0072,-0.0695 -0.0315,-0.0624 -0.0193,-0.0167 -0.0222,-0.0155 -0.1634,-0.1144 -0.1671,-0.1671 -0.1355,-0.1936 -0.0999,-0.2141 -0.0612,-0.2283 -0.0206,-0.2354 0.0206,-0.2354 0.0612,-0.2283 0.0999,-0.2141 0.0056,-0.008 0.1299,-0.1856 0.1671,-0.1671 v 0 l 0.1856,-0.1299 0.0436,-0.0546 0.0072,-0.0695 -0.0315,-0.0624 -0.0193,-0.0167 -0.0222,-0.0155 -0.1634,-0.1144 -0.1671,-0.1671 -0.1355,-0.1936 -0.0999,-0.2141 -0.0612,-0.2283 -0.0206,-0.2354 0.0206,-0.2354 0.0612,-0.2283 0.0999,-0.2141 0.0056,-0.008 0.1299,-0.1856 0.1671,-0.1671 v 0 L 16.0912,9.1363 16.1348,9.0817 16.142,9.0122 16.1105,8.9498 16.0912,8.9331 15.9055,8.8031 15.7385,8.6361 15.603,8.4426 15.5032,8.2285 v 0 L 15.446,8.015 h 0.8969 L 16.3171,7.9748 16.2766,7.8369 V 7.6931 L 16.3171,7.5552 16.3429,7.515 H 15.446 v 0 l 0.0572,-0.2135 v 0 L 15.5496,7.2019 15.5601,7.1328 15.5316,7.069 15.4731,7.0308 15.4372,7.0255 H 15.1463 L 15.0792,7.0452 15.0335,7.098 15.0227,7.1597 15.0322,7.275 v 0 l -0.0205,0.2478 v 0 l -0.061,0.2411 -0.0999,0.2277 -0.136,0.2082 v 0 l -0.1685,0.1829 -0.1962,0.1528 v 0 L 14.1636,8.6364 14.1314,8.6538 13.8962,8.7346 13.6509,8.7755 H 13.4023 L 13.157,8.7346 12.9218,8.6538 12.7031,8.5355 12.5069,8.3827 12.3384,8.1998 12.2024,7.9916 12.1025,7.7639 12.0415,7.5228 12.0231,7.3013 12.021,7.275 v 0 l 0.0205,-0.2478 v 0 L 12.1025,6.7861 12.2024,6.5584 12.2293,6.5173 12.2494,6.4504 12.2303,6.3832 12.1778,6.3371 12.1255,6.3255 H 7.8762 Z"
             id="path316" /></g></g></g><g
       style="fill:#000000;fill-opacity:1;stroke:#000000;stroke-width:0;stroke-linecap:round;stroke-linejoin:round;stroke-opacity:1"
       id="g324" /></g><g
     inkscape:groupmode="layer"
     id="layer2"
     inkscape:label="Layer 2"
     transform="translate(-0.0270995,-5.0849995)"><g
       id="g2013"
       transform="translate(-5.8282869,0.02012289)"><g
         style="fill:#ffffff;fill-opacity:0;stroke:#ffffff;stroke-width:0.15;stroke-linecap:round;stroke-linejoin:round;stroke-opacity:1"
         id="g1519"><g
           transform="rotate(90,18.3432,37.085)"
           id="g983"><text
             x="18.343201"
             y="37.084999"
             transform="matrix(-1,0,0,1,36.6864,0)"
             textLength="9.2024002"
             font-size="1.3333px"
             lengthAdjust="spacingAndGlyphs"
             text-anchor="start"
             opacity="0"
             id="text981">Rhobot PCB</text></g><g
           class="stroked-text"
           id="g1207"
           transform="translate(0.52916667,0.52916667)"><desc
             id="desc985">Rhobot PCB</desc><path
             d="m 18.4734,36.1768 0.4762,0.3333"
             id="path987" /><path
             d="m 18.4734,36.7482 h 1"
             id="path989" /><path
             d="M 19.4734,36.7482 V 36.3673"
             id="path991" /><path
             d="M 19.4734,36.3673 19.4258,36.272"
             id="path993" /><path
             d="M 19.4258,36.272 19.3781,36.2244"
             id="path995" /><path
             d="M 19.3781,36.2244 19.2829,36.1768"
             id="path997" /><path
             d="M 19.2829,36.1768 H 19.14"
             id="path999" /><path
             d="m 19.14,36.1768 -0.0952,0.0476"
             id="path1001" /><path
             d="M 19.0448,36.2244 18.9972,36.272"
             id="path1003" /><path
             d="m 18.9972,36.272 -0.0476,0.0953"
             id="path1005" /><path
             d="m 18.9496,36.3673 v 0.3809"
             id="path1007" /><path
             d="m 18.4734,35.7482 h 1"
             id="path1009" /><path
             d="m 18.4734,35.3196 h 0.5238"
             id="path1011" /><path
             d="m 18.9972,35.3196 0.0952,0.0477"
             id="path1013" /><path
             d="M 19.0924,35.3673 19.14,35.4625"
             id="path1015" /><path
             d="m 19.14,35.4625 v 0.1429"
             id="path1017" /><path
             d="m 19.14,35.6054 -0.0476,0.0952"
             id="path1019" /><path
             d="m 19.0924,35.7006 -0.0476,0.0476"
             id="path1021" /><path
             d="m 18.4734,34.7006 0.0476,0.0952"
             id="path1023" /><path
             d="m 18.521,34.7958 0.0476,0.0477"
             id="path1025" /><path
             d="m 18.5686,34.8435 0.0953,0.0476"
             id="path1027" /><path
             d="m 18.6639,34.8911 h 0.2857"
             id="path1029" /><path
             d="m 18.9496,34.8911 0.0952,-0.0476"
             id="path1031" /><path
             d="m 19.0448,34.8435 0.0476,-0.0477"
             id="path1033" /><path
             d="M 19.0924,34.7958 19.14,34.7006"
             id="path1035" /><path
             d="M 19.14,34.7006 V 34.5577"
             id="path1037" /><path
             d="M 19.14,34.5577 19.0924,34.4625"
             id="path1039" /><path
             d="M 19.0924,34.4625 19.0448,34.4149"
             id="path1041" /><path
             d="M 19.0448,34.4149 18.9496,34.3673"
             id="path1043" /><path
             d="M 18.9496,34.3673 H 18.6639"
             id="path1045" /><path
             d="m 18.6639,34.3673 -0.0953,0.0476"
             id="path1047" /><path
             d="M 18.5686,34.4149 18.521,34.4625"
             id="path1049" /><path
             d="m 18.521,34.4625 -0.0476,0.0952"
             id="path1051" /><path
             d="m 18.4734,34.5577 v 0.1429"
             id="path1053" /><path
             d="m 18.4734,33.9387 h 1"
             id="path1055" /><path
             d="M 19.0924,33.9387 19.14,33.8435"
             id="path1057" /><path
             d="M 19.14,33.8435 V 33.653"
             id="path1059" /><path
             d="M 19.14,33.653 19.0924,33.5577"
             id="path1061" /><path
             d="M 19.0924,33.5577 19.0448,33.5101"
             id="path1063" /><path
             d="M 19.0448,33.5101 18.9496,33.4625"
             id="path1065" /><path
             d="M 18.9496,33.4625 H 18.6639"
             id="path1067" /><path
             d="m 18.6639,33.4625 -0.0953,0.0476"
             id="path1069" /><path
             d="M 18.5686,33.5101 18.521,33.5577"
             id="path1071" /><path
             d="M 18.521,33.5577 18.4734,33.653"
             id="path1073" /><path
             d="m 18.4734,33.653 v 0.1905"
             id="path1075" /><path
             d="m 18.4734,33.8435 0.0476,0.0952"
             id="path1077" /><path
             d="m 18.4734,32.8911 0.0476,0.0952"
             id="path1079" /><path
             d="m 18.521,32.9863 0.0476,0.0476"
             id="path1081" /><path
             d="m 18.5686,33.0339 0.0953,0.0477"
             id="path1083" /><path
             d="m 18.6639,33.0816 h 0.2857"
             id="path1085" /><path
             d="m 18.9496,33.0816 0.0952,-0.0477"
             id="path1087" /><path
             d="m 19.0448,33.0339 0.0476,-0.0476"
             id="path1089" /><path
             d="M 19.0924,32.9863 19.14,32.8911"
             id="path1091" /><path
             d="M 19.14,32.8911 V 32.7482"
             id="path1093" /><path
             d="M 19.14,32.7482 19.0924,32.653"
             id="path1095" /><path
             d="M 19.0924,32.653 19.0448,32.6054"
             id="path1097" /><path
             d="M 19.0448,32.6054 18.9496,32.5577"
             id="path1099" /><path
             d="M 18.9496,32.5577 H 18.6639"
             id="path1101" /><path
             d="m 18.6639,32.5577 -0.0953,0.0477"
             id="path1103" /><path
             d="M 18.5686,32.6054 18.521,32.653"
             id="path1105" /><path
             d="m 18.521,32.653 -0.0476,0.0952"
             id="path1107" /><path
             d="m 18.4734,32.7482 v 0.1429"
             id="path1109" /><path
             d="M 19.14,32.272 V 31.8911"
             id="path1111" /><path
             d="M 19.4734,32.1292 H 18.6162"
             id="path1113" /><path
             d="M 18.6162,32.1292 18.521,32.0816"
             id="path1115" /><path
             d="M 18.521,32.0816 18.4734,31.9863"
             id="path1117" /><path
             d="M 18.4734,31.9863 V 31.8911"
             id="path1119" /><path
             d="m 18.4734,30.7958 h 1"
             id="path1121" /><path
             d="M 19.4734,30.7958 V 30.4149"
             id="path1123" /><path
             d="M 19.4734,30.4149 19.4258,30.3196"
             id="path1125" /><path
             d="M 19.4258,30.3196 19.3781,30.272"
             id="path1127" /><path
             d="M 19.3781,30.272 19.2829,30.2244"
             id="path1129" /><path
             d="M 19.2829,30.2244 H 19.14"
             id="path1131" /><path
             d="M 19.14,30.2244 19.0448,30.272"
             id="path1133" /><path
             d="m 19.0448,30.272 -0.0476,0.0476"
             id="path1135" /><path
             d="m 18.9972,30.3196 -0.0476,0.0953"
             id="path1137" /><path
             d="m 18.9496,30.4149 v 0.3809"
             id="path1139" /><path
             d="M 18.5686,29.2244 18.521,29.272"
             id="path1141" /><path
             d="m 18.521,29.272 -0.0476,0.1429"
             id="path1143" /><path
             d="m 18.4734,29.4149 v 0.0952"
             id="path1145" /><path
             d="M 18.4734,29.5101 18.521,29.653"
             id="path1147" /><path
             d="m 18.521,29.653 0.0952,0.0952"
             id="path1149" /><path
             d="m 18.6162,29.7482 0.0953,0.0476"
             id="path1151" /><path
             d="m 18.7115,29.7958 0.1905,0.0477"
             id="path1153" /><path
             d="m 18.902,29.8435 h 0.1428"
             id="path1155" /><path
             d="m 19.0448,29.8435 0.1905,-0.0477"
             id="path1157" /><path
             d="m 19.2353,29.7958 0.0952,-0.0476"
             id="path1159" /><path
             d="M 19.3305,29.7482 19.4258,29.653"
             id="path1161" /><path
             d="m 19.4258,29.653 0.0476,-0.1429"
             id="path1163" /><path
             d="M 19.4734,29.5101 V 29.4149"
             id="path1165" /><path
             d="M 19.4734,29.4149 19.4258,29.272"
             id="path1167" /><path
             d="M 19.4258,29.272 19.3781,29.2244"
             id="path1169" /><path
             d="M 18.9972,28.4625 18.9496,28.3196"
             id="path1171" /><path
             d="M 18.9496,28.3196 18.902,28.272"
             id="path1173" /><path
             d="M 18.902,28.272 18.8067,28.2244"
             id="path1175" /><path
             d="M 18.8067,28.2244 H 18.6639"
             id="path1177" /><path
             d="M 18.6639,28.2244 18.5686,28.272"
             id="path1179" /><path
             d="M 18.5686,28.272 18.521,28.3196"
             id="path1181" /><path
             d="m 18.521,28.3196 -0.0476,0.0953"
             id="path1183" /><path
             d="m 18.4734,28.4149 v 0.3809"
             id="path1185" /><path
             d="m 18.4734,28.7958 h 1"
             id="path1187" /><path
             d="M 19.4734,28.7958 V 28.4625"
             id="path1189" /><path
             d="M 19.4734,28.4625 19.4258,28.3673"
             id="path1191" /><path
             d="M 19.4258,28.3673 19.3781,28.3196"
             id="path1193" /><path
             d="M 19.3781,28.3196 19.2829,28.272"
             id="path1195" /><path
             d="M 19.2829,28.272 H 19.1877"
             id="path1197" /><path
             d="m 19.1877,28.272 -0.0953,0.0476"
             id="path1199" /><path
             d="m 19.0924,28.3196 -0.0476,0.0477"
             id="path1201" /><path
             d="m 19.0448,28.3673 -0.0476,0.0952"
             id="path1203" /><path
             d="m 18.9972,28.4625 v 0.3333"
             id="path1205" /></g><g
           transform="rotate(90,17.3432,20.025)"
           id="g1211"><text
             x="17.343201"
             y="20.525"
             transform="matrix(-1,0,0,1,34.6864,0)"
             textLength="1.9643"
             font-size="1.3333px"
             lengthAdjust="spacingAndGlyphs"
             text-anchor="middle"
             opacity="0"
             id="text1209">J3</text></g><g
           class="stroked-text"
           id="g1251"><desc
             id="desc1213">J3</desc><path
             d="M 17.8884,20.3583 H 17.1741"
             id="path1215" /><path
             d="M 17.1741,20.3583 17.0312,20.406"
             id="path1217" /><path
             d="M 17.0312,20.406 16.936,20.5012"
             id="path1219" /><path
             d="M 16.936,20.5012 16.8884,20.644"
             id="path1221" /><path
             d="m 16.8884,20.644 v 0.0953"
             id="path1223" /><path
             d="M 17.8884,19.9774 V 19.3583"
             id="path1225" /><path
             d="m 17.8884,19.3583 -0.381,0.3334"
             id="path1227" /><path
             d="M 17.5074,19.6917 V 19.5488"
             id="path1229" /><path
             d="M 17.5074,19.5488 17.4598,19.4536"
             id="path1231" /><path
             d="M 17.4598,19.4536 17.4122,19.406"
             id="path1233" /><path
             d="M 17.4122,19.406 17.317,19.3583"
             id="path1235" /><path
             d="M 17.317,19.3583 H 17.0789"
             id="path1237" /><path
             d="M 17.0789,19.3583 16.9836,19.406"
             id="path1239" /><path
             d="M 16.9836,19.406 16.936,19.4536"
             id="path1241" /><path
             d="m 16.936,19.4536 -0.0476,0.0952"
             id="path1243" /><path
             d="m 16.8884,19.5488 v 0.2857"
             id="path1245" /><path
             d="m 16.8884,19.8345 0.0476,0.0953"
             id="path1247" /><path
             d="m 16.936,19.9298 0.0476,0.0476"
             id="path1249" /></g><text
           x="11.5932"
           y="43.025002"
           transform="matrix(-1,0,0,1,23.1864,0)"
           textLength="1.9643"
           font-size="1.3333px"
           lengthAdjust="spacingAndGlyphs"
           text-anchor="middle"
           opacity="0"
           id="text1253">J7</text><g
           class="stroked-text"
           id="g1271"><desc
             id="desc1255">J7</desc><path
             d="m 11.9265,41.9798 v 0.7143"
             id="path1257" /><path
             d="m 11.9265,42.6941 0.0477,0.1429"
             id="path1259" /><path
             d="m 11.9742,42.837 0.0952,0.0952"
             id="path1261" /><path
             d="m 12.0694,42.9322 0.1428,0.0476"
             id="path1263" /><path
             d="m 12.2122,42.9798 h 0.0953"
             id="path1265" /><path
             d="M 11.5456,41.9798 H 10.8789"
             id="path1267" /><path
             d="m 10.8789,41.9798 0.4286,1"
             id="path1269" /></g><g
           transform="rotate(90,6.8432,53.775)"
           id="g1275"><text
             x="6.8432002"
             y="54.275002"
             transform="matrix(-1,0,0,1,13.6864,0)"
             textLength="1.9643"
             font-size="1.3333px"
             lengthAdjust="spacingAndGlyphs"
             text-anchor="middle"
             opacity="0"
             id="text1273">J4</text></g><g
           class="stroked-text"
           id="g1295"><desc
             id="desc1277">J4</desc><path
             d="M 7.3884,54.1083 H 6.6741"
             id="path1279" /><path
             d="M 6.6741,54.1083 6.5312,54.156"
             id="path1281" /><path
             d="M 6.5312,54.156 6.436,54.2512"
             id="path1283" /><path
             d="M 6.436,54.2512 6.3884,54.394"
             id="path1285" /><path
             d="m 6.3884,54.394 v 0.0953"
             id="path1287" /><path
             d="M 7.055,53.2036 H 6.3884"
             id="path1289" /><path
             d="M 7.436,53.4417 6.7217,53.6798"
             id="path1291" /><path
             d="M 6.7217,53.6798 V 53.0607"
             id="path1293" /></g><g
           transform="rotate(90,7.0932,47.275)"
           id="g1299"><text
             x="7.0932002"
             y="47.775002"
             transform="matrix(-1,0,0,1,14.1864,0)"
             textLength="1.9643"
             font-size="1.3333px"
             lengthAdjust="spacingAndGlyphs"
             text-anchor="middle"
             opacity="0"
             id="text1297">J5</text></g><g
           class="stroked-text"
           id="g1343"><desc
             id="desc1301">J5</desc><path
             d="M 7.6384,47.6083 H 6.9241"
             id="path1303" /><path
             d="M 6.9241,47.6083 6.7812,47.656"
             id="path1305" /><path
             d="M 6.7812,47.656 6.686,47.7512"
             id="path1307" /><path
             d="M 6.686,47.7512 6.6384,47.894"
             id="path1309" /><path
             d="m 6.6384,47.894 v 0.0953"
             id="path1311" /><path
             d="m 7.6384,46.656 v 0.4761"
             id="path1313" /><path
             d="M 7.6384,47.1321 7.1622,47.1798"
             id="path1315" /><path
             d="M 7.1622,47.1798 7.2098,47.1321"
             id="path1317" /><path
             d="M 7.2098,47.1321 7.2574,47.0369"
             id="path1319" /><path
             d="M 7.2574,47.0369 V 46.7988"
             id="path1321" /><path
             d="M 7.2574,46.7988 7.2098,46.7036"
             id="path1323" /><path
             d="M 7.2098,46.7036 7.1622,46.656"
             id="path1325" /><path
             d="M 7.1622,46.656 7.067,46.6083"
             id="path1327" /><path
             d="M 7.067,46.6083 H 6.8289"
             id="path1329" /><path
             d="M 6.8289,46.6083 6.7336,46.656"
             id="path1331" /><path
             d="M 6.7336,46.656 6.686,46.7036"
             id="path1333" /><path
             d="M 6.686,46.7036 6.6384,46.7988"
             id="path1335" /><path
             d="m 6.6384,46.7988 v 0.2381"
             id="path1337" /><path
             d="M 6.6384,47.0369 6.686,47.1321"
             id="path1339" /><path
             d="m 6.686,47.1321 0.0476,0.0477"
             id="path1341" /></g><text
           x="14.8432"
           y="36.334999"
           transform="matrix(-1,0,0,1,29.6864,0)"
           textLength="1.9643"
           font-size="1.3333px"
           lengthAdjust="spacingAndGlyphs"
           text-anchor="middle"
           opacity="0"
           id="text1345">J6</text><g
           class="stroked-text"
           id="g1401"><desc
             id="desc1347">J6</desc><path
             d="m 15.1765,35.2898 v 0.7143"
             id="path1349" /><path
             d="m 15.1765,36.0041 0.0477,0.1429"
             id="path1351" /><path
             d="m 15.2242,36.147 0.0952,0.0952"
             id="path1353" /><path
             d="m 15.3194,36.2422 0.1428,0.0476"
             id="path1355" /><path
             d="m 15.4622,36.2898 h 0.0953"
             id="path1357" /><path
             d="m 14.2718,35.2898 h 0.1904"
             id="path1359" /><path
             d="m 14.4622,35.2898 0.0953,0.0476"
             id="path1361" /><path
             d="m 14.5575,35.3374 0.0476,0.0477"
             id="path1363" /><path
             d="m 14.6051,35.3851 0.0952,0.1428"
             id="path1365" /><path
             d="m 14.7003,35.5279 0.0477,0.1905"
             id="path1367" /><path
             d="m 14.748,35.7184 v 0.3809"
             id="path1369" /><path
             d="m 14.748,36.0993 -0.0477,0.0953"
             id="path1371" /><path
             d="m 14.7003,36.1946 -0.0476,0.0476"
             id="path1373" /><path
             d="m 14.6527,36.2422 -0.0952,0.0476"
             id="path1375" /><path
             d="M 14.5575,36.2898 H 14.367"
             id="path1377" /><path
             d="M 14.367,36.2898 14.2718,36.2422"
             id="path1379" /><path
             d="M 14.2718,36.2422 14.2242,36.1946"
             id="path1381" /><path
             d="M 14.2242,36.1946 14.1765,36.0993"
             id="path1383" /><path
             d="M 14.1765,36.0993 V 35.8612"
             id="path1385" /><path
             d="M 14.1765,35.8612 14.2242,35.766"
             id="path1387" /><path
             d="m 14.2242,35.766 0.0476,-0.0476"
             id="path1389" /><path
             d="M 14.2718,35.7184 14.367,35.6708"
             id="path1391" /><path
             d="m 14.367,35.6708 h 0.1905"
             id="path1393" /><path
             d="m 14.5575,35.6708 0.0952,0.0476"
             id="path1395" /><path
             d="m 14.6527,35.7184 0.0476,0.0476"
             id="path1397" /><path
             d="m 14.7003,35.766 0.0477,0.0952"
             id="path1399" /></g><g
           transform="rotate(90,17.3432,26.525)"
           id="g1405"><text
             x="17.343201"
             y="27.025"
             transform="matrix(-1,0,0,1,34.6864,0)"
             textLength="1.9643"
             font-size="1.3333px"
             lengthAdjust="spacingAndGlyphs"
             text-anchor="middle"
             opacity="0"
             id="text1403">J2</text></g><g
           class="stroked-text"
           id="g1439"><desc
             id="desc1407">J2</desc><path
             d="M 17.8884,26.8583 H 17.1741"
             id="path1409" /><path
             d="M 17.1741,26.8583 17.0312,26.906"
             id="path1411" /><path
             d="M 17.0312,26.906 16.936,27.0012"
             id="path1413" /><path
             d="M 16.936,27.0012 16.8884,27.144"
             id="path1415" /><path
             d="m 16.8884,27.144 v 0.0953"
             id="path1417" /><path
             d="m 17.7931,26.4298 0.0477,-0.0477"
             id="path1419" /><path
             d="m 17.8408,26.3821 0.0476,-0.0952"
             id="path1421" /><path
             d="M 17.8884,26.2869 V 26.0488"
             id="path1423" /><path
             d="M 17.8884,26.0488 17.8408,25.9536"
             id="path1425" /><path
             d="M 17.8408,25.9536 17.7931,25.906"
             id="path1427" /><path
             d="M 17.7931,25.906 17.6979,25.8583"
             id="path1429" /><path
             d="M 17.6979,25.8583 H 17.6027"
             id="path1431" /><path
             d="M 17.6027,25.8583 17.4598,25.906"
             id="path1433" /><path
             d="m 17.4598,25.906 -0.5714,0.5714"
             id="path1435" /><path
             d="M 16.8884,26.4774 V 25.8583"
             id="path1437" /></g><text
           x="17.343201"
           y="8.0249996"
           transform="matrix(-1,0,0,1,34.6864,0)"
           textLength="1.9643"
           font-size="1.3333px"
           lengthAdjust="spacingAndGlyphs"
           text-anchor="middle"
           opacity="0"
           id="text1441">J8</text><g
           class="stroked-text"
           id="g1517"
           transform="translate(-1.0583333)"><desc
             id="desc1443">J8</desc><path
             d="M 17.6765,6.9798 V 7.6941"
             id="path1445" /><path
             d="M 17.6765,7.6941 17.7242,7.837"
             id="path1447" /><path
             d="m 17.7242,7.837 0.0952,0.0952"
             id="path1449" /><path
             d="m 17.8194,7.9322 0.1428,0.0476"
             id="path1451" /><path
             d="m 17.9622,7.9798 h 0.0953"
             id="path1453" /><path
             d="M 17.0575,7.4084 17.1527,7.3608"
             id="path1455" /><path
             d="M 17.1527,7.3608 17.2003,7.3132"
             id="path1457" /><path
             d="M 17.2003,7.3132 17.248,7.2179"
             id="path1459" /><path
             d="M 17.248,7.2179 V 7.1703"
             id="path1461" /><path
             d="M 17.248,7.1703 17.2003,7.0751"
             id="path1463" /><path
             d="M 17.2003,7.0751 17.1527,7.0274"
             id="path1465" /><path
             d="M 17.1527,7.0274 17.0575,6.9798"
             id="path1467" /><path
             d="M 17.0575,6.9798 H 16.867"
             id="path1469" /><path
             d="M 16.867,6.9798 16.7718,7.0274"
             id="path1471" /><path
             d="M 16.7718,7.0274 16.7242,7.0751"
             id="path1473" /><path
             d="M 16.7242,7.0751 16.6765,7.1703"
             id="path1475" /><path
             d="M 16.6765,7.1703 V 7.2179"
             id="path1477" /><path
             d="m 16.6765,7.2179 0.0477,0.0953"
             id="path1479" /><path
             d="m 16.7242,7.3132 0.0476,0.0476"
             id="path1481" /><path
             d="M 16.7718,7.3608 16.867,7.4084"
             id="path1483" /><path
             d="m 16.867,7.4084 h 0.1905"
             id="path1485" /><path
             d="M 17.0575,7.4084 17.1527,7.456"
             id="path1487" /><path
             d="m 17.1527,7.456 0.0476,0.0476"
             id="path1489" /><path
             d="M 17.2003,7.5036 17.248,7.5989"
             id="path1491" /><path
             d="M 17.248,7.5989 V 7.7893"
             id="path1493" /><path
             d="M 17.248,7.7893 17.2003,7.8846"
             id="path1495" /><path
             d="M 17.2003,7.8846 17.1527,7.9322"
             id="path1497" /><path
             d="M 17.1527,7.9322 17.0575,7.9798"
             id="path1499" /><path
             d="M 17.0575,7.9798 H 16.867"
             id="path1501" /><path
             d="M 16.867,7.9798 16.7718,7.9322"
             id="path1503" /><path
             d="M 16.7718,7.9322 16.7242,7.8846"
             id="path1505" /><path
             d="M 16.7242,7.8846 16.6765,7.7893"
             id="path1507" /><path
             d="M 16.6765,7.7893 V 7.5989"
             id="path1509" /><path
             d="M 16.6765,7.5989 16.7242,7.5036"
             id="path1511" /><path
             d="M 16.7242,7.5036 16.7718,7.456"
             id="path1513" /><path
             d="M 16.7718,7.456 16.867,7.4084"
             id="path1515" /></g></g></g></g><g
     inkscape:groupmode="layer"
     id="layer3"
     inkscape:label="Layer 3"
     transform="translate(-0.0270995,-5.0849995)"><g
       id="g4922"><circle
         cx="16.7766"
         cy="17.924999"
         r="0.21996662"
         id="circle595-3-7-25"
         style="display:inline;fill:#ffffff;fill-opacity:1;stroke:none;stroke-width:0;stroke-linecap:round;stroke-linejoin:round;stroke-opacity:1" /><circle
         cx="16.7766"
         cy="20.465"
         r="0.21996662"
         id="circle595-3-6-2"
         style="display:inline;fill:#ffffff;fill-opacity:1;stroke:none;stroke-width:0;stroke-linecap:round;stroke-linejoin:round;stroke-opacity:1" /><circle
         cx="19.316601"
         cy="20.465"
         r="0.21996662"
         id="circle595-3-3-5"
         style="display:inline;fill:#ffffff;fill-opacity:1;stroke:none;stroke-width:0;stroke-linecap:round;stroke-linejoin:round;stroke-opacity:1" /><circle
         cx="19.316601"
         cy="23.004999"
         r="0.21996662"
         id="circle595-3-65-7"
         style="display:inline;fill:#ffffff;fill-opacity:1;stroke:none;stroke-width:0;stroke-linecap:round;stroke-linejoin:round;stroke-opacity:1" /><circle
         cx="16.7766"
         cy="23.004999"
         r="0.21996662"
         id="circle595-3-7-2-5"
         style="display:inline;fill:#ffffff;fill-opacity:1;stroke:none;stroke-width:0;stroke-linecap:round;stroke-linejoin:round;stroke-opacity:1" /><circle
         cx="16.7766"
         cy="25.545"
         r="0.21996662"
         id="circle595-3-6-5-3"
         style="display:inline;fill:#ffffff;fill-opacity:1;stroke:none;stroke-width:0;stroke-linecap:round;stroke-linejoin:round;stroke-opacity:1" /><circle
         cx="19.316601"
         cy="25.545"
         r="0.21996662"
         id="circle595-3-3-4-0"
         style="display:inline;fill:#ffffff;fill-opacity:1;stroke:none;stroke-width:0;stroke-linecap:round;stroke-linejoin:round;stroke-opacity:1" /><circle
         cx="19.316601"
         cy="28.084999"
         r="0.21996662"
         id="circle595-3-1"
         style="display:inline;fill:#ffffff;fill-opacity:1;stroke:none;stroke-width:0;stroke-linecap:round;stroke-linejoin:round;stroke-opacity:1" /><circle
         cx="16.7766"
         cy="28.084999"
         r="0.21996662"
         id="circle595-3-7-9"
         style="display:inline;fill:#ffffff;fill-opacity:1;stroke:none;stroke-width:0;stroke-linecap:round;stroke-linejoin:round;stroke-opacity:1" /><circle
         cx="16.7766"
         cy="30.625"
         r="0.21996662"
         id="circle595-3-6-8"
         style="display:inline;fill:#ffffff;fill-opacity:1;stroke:none;stroke-width:0;stroke-linecap:round;stroke-linejoin:round;stroke-opacity:1" /><circle
         cx="19.316601"
         cy="30.625"
         r="0.21996662"
         id="circle595-3-3-2"
         style="display:inline;fill:#ffffff;fill-opacity:1;stroke:none;stroke-width:0;stroke-linecap:round;stroke-linejoin:round;stroke-opacity:1" /><circle
         cx="19.316601"
         cy="33.165001"
         r="0.21996662"
         id="circle595-3-65-1"
         style="display:inline;fill:#ffffff;fill-opacity:1;stroke:none;stroke-width:0;stroke-linecap:round;stroke-linejoin:round;stroke-opacity:1" /><circle
         cx="16.7766"
         cy="33.165001"
         r="0.21996662"
         id="circle595-3-7-2-4"
         style="display:inline;fill:#ffffff;fill-opacity:1;stroke:none;stroke-width:0;stroke-linecap:round;stroke-linejoin:round;stroke-opacity:1" /><circle
         cx="16.7766"
         cy="35.705002"
         r="0.21996662"
         id="circle595-3-6-5-1"
         style="display:inline;fill:#ffffff;fill-opacity:1;stroke:none;stroke-width:0;stroke-linecap:round;stroke-linejoin:round;stroke-opacity:1" /><circle
         cx="19.316601"
         cy="35.705002"
         r="0.21996662"
         id="circle595-3-3-4-2"
         style="display:inline;fill:#ffffff;fill-opacity:1;stroke:none;stroke-width:0;stroke-linecap:round;stroke-linejoin:round;stroke-opacity:1" /><circle
         cx="19.316601"
         cy="38.245003"
         r="0.21996662"
         id="circle595-3-4"
         style="display:inline;fill:#ffffff;fill-opacity:1;stroke:none;stroke-width:0;stroke-linecap:round;stroke-linejoin:round;stroke-opacity:1" /><circle
         cx="16.7766"
         cy="38.245003"
         r="0.21996662"
         id="circle595-3-7-6"
         style="display:inline;fill:#ffffff;fill-opacity:1;stroke:none;stroke-width:0;stroke-linecap:round;stroke-linejoin:round;stroke-opacity:1" /><circle
         cx="16.7766"
         cy="40.785004"
         r="0.21996662"
         id="circle595-3-6-3"
         style="display:inline;fill:#ffffff;fill-opacity:1;stroke:none;stroke-width:0;stroke-linecap:round;stroke-linejoin:round;stroke-opacity:1" /><circle
         cx="19.316601"
         cy="40.785004"
         r="0.21996662"
         id="circle595-3-3-57"
         style="display:inline;fill:#ffffff;fill-opacity:1;stroke:none;stroke-width:0;stroke-linecap:round;stroke-linejoin:round;stroke-opacity:1" /><circle
         cx="19.316601"
         cy="43.325005"
         r="0.21996662"
         id="circle595-3-65-9"
         style="display:inline;fill:#ffffff;fill-opacity:1;stroke:none;stroke-width:0;stroke-linecap:round;stroke-linejoin:round;stroke-opacity:1" /><circle
         cx="16.7766"
         cy="43.325005"
         r="0.21996662"
         id="circle595-3-7-2-6"
         style="display:inline;fill:#ffffff;fill-opacity:1;stroke:none;stroke-width:0;stroke-linecap:round;stroke-linejoin:round;stroke-opacity:1" /><circle
         cx="16.7766"
         cy="45.865005"
         r="0.21996662"
         id="circle595-3-6-5-2"
         style="display:inline;fill:#ffffff;fill-opacity:1;stroke:none;stroke-width:0;stroke-linecap:round;stroke-linejoin:round;stroke-opacity:1" /><circle
         cx="19.316601"
         cy="45.865005"
         r="0.21996662"
         id="circle595-3-3-4-9"
         style="display:inline;fill:#ffffff;fill-opacity:1;stroke:none;stroke-width:0;stroke-linecap:round;stroke-linejoin:round;stroke-opacity:1" /><circle
         cx="16.7766"
         cy="48.405003"
         r="0.21996662"
         id="circle595-3-6-3-1"
         style="display:inline;fill:#ffffff;fill-opacity:1;stroke:none;stroke-width:0;stroke-linecap:round;stroke-linejoin:round;stroke-opacity:1" /><circle
         cx="19.316601"
         cy="48.405003"
         r="0.21996662"
         id="circle595-3-3-57-1"
         style="display:inline;fill:#ffffff;fill-opacity:1;stroke:none;stroke-width:0;stroke-linecap:round;stroke-linejoin:round;stroke-opacity:1" /><circle
         cx="19.316601"
         cy="50.945004"
         r="0.21996662"
         id="circle595-3-65-9-0"
         style="display:inline;fill:#ffffff;fill-opacity:1;stroke:none;stroke-width:0;stroke-linecap:round;stroke-linejoin:round;stroke-opacity:1" /><circle
         cx="16.7766"
         cy="50.945004"
         r="0.21996662"
         id="circle595-3-7-2-6-2"
         style="display:inline;fill:#ffffff;fill-opacity:1;stroke:none;stroke-width:0;stroke-linecap:round;stroke-linejoin:round;stroke-opacity:1" /><circle
         cx="16.7766"
         cy="53.485004"
         r="0.21996662"
         id="circle595-3-6-5-2-5"
         style="display:inline;fill:#ffffff;fill-opacity:1;stroke:none;stroke-width:0;stroke-linecap:round;stroke-linejoin:round;stroke-opacity:1" /><circle
         cx="19.316601"
         cy="53.485004"
         r="0.21996662"
         id="circle595-3-3-4-9-6"
         style="display:inline;fill:#ffffff;fill-opacity:1;stroke:none;stroke-width:0;stroke-linecap:round;stroke-linejoin:round;stroke-opacity:1" /><circle
         cx="16.7766"
         cy="56.025002"
         r="0.21996662"
         id="circle595-3-6-5-2-5-1"
         style="display:inline;fill:#ffffff;fill-opacity:1;stroke:none;stroke-width:0;stroke-linecap:round;stroke-linejoin:round;stroke-opacity:1" /><circle
         cx="19.316601"
         cy="56.025002"
         r="0.21996662"
         id="circle595-3-3-4-9-6-8"
         style="display:inline;fill:#ffffff;fill-opacity:1;stroke:none;stroke-width:0;stroke-linecap:round;stroke-linejoin:round;stroke-opacity:1" /><circle
         cx="16.7766"
         cy="12.845"
         r="0.21996662"
         id="circle595-3-7-2"
         style="display:inline;fill:#ffffff;fill-opacity:1;stroke:none;stroke-width:0;stroke-linecap:round;stroke-linejoin:round;stroke-opacity:1" /><circle
         cx="16.7766"
         cy="15.385001"
         r="0.21996662"
         id="circle595-3-6-5"
         style="display:inline;fill:#ffffff;fill-opacity:1;stroke:none;stroke-width:0;stroke-linecap:round;stroke-linejoin:round;stroke-opacity:1" /><circle
         cx="19.316601"
         cy="15.385001"
         r="0.21996662"
         id="circle595-3-3-4"
         style="display:inline;fill:#ffffff;fill-opacity:1;stroke:none;stroke-width:0;stroke-linecap:round;stroke-linejoin:round;stroke-opacity:1" /><circle
         cx="19.316601"
         cy="17.924999"
         r="0.21996662"
         id="circle595-3-34"
         style="display:inline;fill:#ffffff;fill-opacity:1;stroke:none;stroke-width:0;stroke-linecap:round;stroke-linejoin:round;stroke-opacity:1" /><circle
         cx="19.316601"
         cy="7.7649999"
         r="0.21996662"
         id="circle595-3"
         style="display:inline;fill:#ffffff;fill-opacity:1;stroke:none;stroke-width:0;stroke-linecap:round;stroke-linejoin:round;stroke-opacity:1" /><circle
         cx="16.7766"
         cy="7.7649999"
         r="0.21996662"
         id="circle595-3-7"
         style="display:inline;fill:#ffffff;fill-opacity:1;stroke:none;stroke-width:0;stroke-linecap:round;stroke-linejoin:round;stroke-opacity:1" /><circle
         cx="16.7766"
         cy="10.305"
         r="0.21996662"
         id="circle595-3-6"
         style="display:inline;fill:#ffffff;fill-opacity:1;stroke:none;stroke-width:0;stroke-linecap:round;stroke-linejoin:round;stroke-opacity:1" /><circle
         cx="19.316601"
         cy="10.305"
         r="0.21996662"
         id="circle595-3-3"
         style="display:inline;fill:#ffffff;fill-opacity:1;stroke:none;stroke-width:0;stroke-linecap:round;stroke-linejoin:round;stroke-opacity:1" /><circle
         cx="19.316601"
         cy="12.845"
         r="0.21996662"
         id="circle595-3-65"
         style="display:inline;fill:#ffffff;fill-opacity:1;stroke:none;stroke-width:0;stroke-linecap:round;stroke-linejoin:round;stroke-opacity:1" /></g><g
       id="g3826"><circle
         cx="20.025"
         cy="-9.0265999"
         r="0.21996662"
         id="circle595-3-5"
         style="display:inline;fill:#ffffff;fill-opacity:1;stroke:none;stroke-width:0;stroke-linecap:round;stroke-linejoin:round;stroke-opacity:1"
         transform="rotate(90)" /><circle
         cx="20.025"
         cy="-6.4865999"
         r="0.21996662"
         id="circle595-3-3-22"
         style="display:inline;fill:#ffffff;fill-opacity:1;stroke:none;stroke-width:0;stroke-linecap:round;stroke-linejoin:round;stroke-opacity:1"
         transform="rotate(90)" /><circle
         cx="20.025"
         cy="-3.9466"
         r="0.21996662"
         id="circle595-3-65-4"
         style="display:inline;fill:#ffffff;fill-opacity:1;stroke:none;stroke-width:0;stroke-linecap:round;stroke-linejoin:round;stroke-opacity:1"
         transform="rotate(90)" /></g><g
       id="g3852"><circle
         cx="26.525"
         cy="-9.0665998"
         r="0.21996662"
         id="circle595-3-5-4"
         style="display:inline;fill:#ffffff;fill-opacity:1;stroke:none;stroke-width:0;stroke-linecap:round;stroke-linejoin:round;stroke-opacity:1"
         transform="rotate(90)" /><circle
         cx="26.525"
         cy="-6.5265999"
         r="0.21996662"
         id="circle595-3-3-22-8"
         style="display:inline;fill:#ffffff;fill-opacity:1;stroke:none;stroke-width:0;stroke-linecap:round;stroke-linejoin:round;stroke-opacity:1"
         transform="rotate(90)" /><circle
         cx="26.525"
         cy="-3.9865999"
         r="0.21996662"
         id="circle595-3-65-4-8"
         style="display:inline;fill:#ffffff;fill-opacity:1;stroke:none;stroke-width:0;stroke-linecap:round;stroke-linejoin:round;stroke-opacity:1"
         transform="rotate(90)" /></g><g
       id="g3878"><circle
         cx="32.77248"
         cy="-9.0666008"
         r="0.21996662"
         id="circle595-3-5-47"
         style="display:inline;fill:#ffffff;fill-opacity:1;stroke:none;stroke-width:0;stroke-linecap:round;stroke-linejoin:round;stroke-opacity:1"
         transform="rotate(90)" /><circle
         cx="32.77248"
         cy="-6.5265999"
         r="0.21996662"
         id="circle595-3-3-22-1"
         style="display:inline;fill:#ffffff;fill-opacity:1;stroke:none;stroke-width:0;stroke-linecap:round;stroke-linejoin:round;stroke-opacity:1"
         transform="rotate(90)" /><circle
         cx="32.77248"
         cy="-3.9865999"
         r="0.21996662"
         id="circle595-3-65-4-2"
         style="display:inline;fill:#ffffff;fill-opacity:1;stroke:none;stroke-width:0;stroke-linecap:round;stroke-linejoin:round;stroke-opacity:1"
         transform="rotate(90)" /></g><g
       id="g3904"><circle
         cx="46.775002"
         cy="-9.3166008"
         r="0.21996662"
         id="circle595-3-5-7"
         style="display:inline;fill:#ffffff;fill-opacity:1;stroke:none;stroke-width:0;stroke-linecap:round;stroke-linejoin:round;stroke-opacity:1"
         transform="rotate(90)" /><circle
         cx="46.775002"
         cy="-6.7766004"
         r="0.21996662"
         id="circle595-3-3-22-4"
         style="display:inline;fill:#ffffff;fill-opacity:1;stroke:none;stroke-width:0;stroke-linecap:round;stroke-linejoin:round;stroke-opacity:1"
         transform="rotate(90)" /><circle
         cx="46.775002"
         cy="-4.2365999"
         r="0.21996662"
         id="circle595-3-65-4-6"
         style="display:inline;fill:#ffffff;fill-opacity:1;stroke:none;stroke-width:0;stroke-linecap:round;stroke-linejoin:round;stroke-opacity:1"
         transform="rotate(90)" /></g><g
       id="g3930"><circle
         cx="53.525002"
         cy="-9.3165989"
         r="0.21996662"
         id="circle595-3-5-1"
         style="display:inline;fill:#ffffff;fill-opacity:1;stroke:none;stroke-width:0;stroke-linecap:round;stroke-linejoin:round;stroke-opacity:1"
         transform="rotate(90)" /><circle
         cx="53.525002"
         cy="-6.7765999"
         r="0.21996662"
         id="circle595-3-3-22-0"
         style="display:inline;fill:#ffffff;fill-opacity:1;stroke:none;stroke-width:0;stroke-linecap:round;stroke-linejoin:round;stroke-opacity:1"
         transform="rotate(90)" /><circle
         cx="53.525002"
         cy="-4.2365999"
         r="0.21996662"
         id="circle595-3-65-4-81"
         style="display:inline;fill:#ffffff;fill-opacity:1;stroke:none;stroke-width:0;stroke-linecap:round;stroke-linejoin:round;stroke-opacity:1"
         transform="rotate(90)" /></g><g
       id="g3979"><circle
         cx="39.525002"
         cy="-10.3566"
         r="0.21996662"
         id="circle595-3-5-0"
         style="display:inline;fill:#ffffff;fill-opacity:1;stroke:none;stroke-width:0;stroke-linecap:round;stroke-linejoin:round;stroke-opacity:1"
         transform="rotate(90)" /><circle
         cx="39.525002"
         cy="-7.8165998"
         r="0.21996662"
         id="circle595-3-3-22-7"
         style="display:inline;fill:#ffffff;fill-opacity:1;stroke:none;stroke-width:0;stroke-linecap:round;stroke-linejoin:round;stroke-opacity:1"
         transform="rotate(90)" /><circle
         cx="39.525002"
         cy="-5.2765999"
         r="0.21996662"
         id="circle595-3-65-4-4"
         style="display:inline;fill:#ffffff;fill-opacity:1;stroke:none;stroke-width:0;stroke-linecap:round;stroke-linejoin:round;stroke-opacity:1"
         transform="rotate(90)" /><circle
         cx="39.525002"
         cy="-2.7365999"
         r="0.21996662"
         id="circle595-3-65-4-4-9"
         style="display:inline;fill:#ffffff;fill-opacity:1;stroke:none;stroke-width:0;stroke-linecap:round;stroke-linejoin:round;stroke-opacity:1"
         transform="rotate(90)" /></g><circle
       cx="43.525002"
       cy="-9.2765999"
       r="0.21996662"
       id="circle595-3-65-4-4-5"
       style="display:inline;fill:#ffffff;fill-opacity:1;stroke:none;stroke-width:0;stroke-linecap:round;stroke-linejoin:round;stroke-opacity:1"
       transform="rotate(90)" /><circle
       cx="29.775"
       cy="-8.5265999"
       r="0.21996662"
       id="circle595-3-65-4-4-6"
       style="display:inline;fill:#ffffff;fill-opacity:1;stroke:none;stroke-width:0;stroke-linecap:round;stroke-linejoin:round;stroke-opacity:1"
       transform="rotate(90)" /><circle
       cx="17.025"
       cy="-9.2765999"
       r="0.21996662"
       id="circle595-3-65-4-4-3"
       style="display:inline;fill:#ffffff;fill-opacity:1;stroke:none;stroke-width:0;stroke-linecap:round;stroke-linejoin:round;stroke-opacity:1"
       transform="rotate(90)" /><circle
       cx="7.2750001"
       cy="-13.5266"
       r="0.21996662"
       id="circle595-3-65-4-4-91"
       style="display:inline;fill:#ffffff;fill-opacity:1;stroke:none;stroke-width:0;stroke-linecap:round;stroke-linejoin:round;stroke-opacity:1"
       transform="rotate(90)" /><circle
       cx="50.485001"
       cy="-9.3165998"
       r="0.21996662"
       id="circle595-3-65-4-4-2"
       style="display:inline;fill:#ffffff;fill-opacity:1;stroke:none;stroke-width:0;stroke-linecap:round;stroke-linejoin:round;stroke-opacity:1"
       transform="rotate(90)" /><circle
       cx="56.775002"
       cy="-7.5265999"
       r="0.21996662"
       id="circle595-3-65-4-4-56"
       style="display:inline;fill:#ffffff;fill-opacity:1;stroke:none;stroke-width:0;stroke-linecap:round;stroke-linejoin:round;stroke-opacity:1"
       transform="rotate(90)" /><circle
       cx="57.334999"
       cy="-11.0266"
       r="0.21996662"
       id="circle595-3-65-4-4-58"
       style="display:inline;fill:#ffffff;fill-opacity:1;stroke:none;stroke-width:0;stroke-linecap:round;stroke-linejoin:round;stroke-opacity:1"
       transform="rotate(90)" /><circle
       cx="57.025002"
       cy="-13.5266"
       r="0.21996662"
       id="circle595-3-65-4-4-7"
       style="display:inline;fill:#ffffff;fill-opacity:1;stroke:none;stroke-width:0;stroke-linecap:round;stroke-linejoin:round;stroke-opacity:1"
       transform="rotate(90)" /><g
       id="g4788"><circle
         cx="4.9415679"
         cy="14.025"
         r="0.21996662"
         id="circle595-3-65-4-4-1-3-7"
         style="display:inline;fill:#ffffff;fill-opacity:1;stroke:none;stroke-width:0;stroke-linecap:round;stroke-linejoin:round;stroke-opacity:1" /><circle
         cx="5.7765999"
         cy="14.025"
         r="0.21996662"
         id="circle595-3-65-4-4-4-7-3"
         style="display:inline;fill:#ffffff;fill-opacity:1;stroke:none;stroke-width:0;stroke-linecap:round;stroke-linejoin:round;stroke-opacity:1" /><circle
         cx="6.6116319"
         cy="14.025"
         r="0.21996662"
         id="circle595-3-65-4-4-4-9-9-2"
         style="display:inline;fill:#ffffff;fill-opacity:1;stroke:none;stroke-width:0;stroke-linecap:round;stroke-linejoin:round;stroke-opacity:1" /></g><g
       id="g4814"><circle
         cx="4.9415679"
         cy="8.0249996"
         r="0.21996662"
         id="circle595-3-65-4-4-1-3-7-5"
         style="display:inline;fill:#ffffff;fill-opacity:1;stroke:none;stroke-width:0;stroke-linecap:round;stroke-linejoin:round;stroke-opacity:1" /><circle
         cx="5.7765999"
         cy="8.0249996"
         r="0.21996662"
         id="circle595-3-65-4-4-4-7-3-0"
         style="display:inline;fill:#ffffff;fill-opacity:1;stroke:none;stroke-width:0;stroke-linecap:round;stroke-linejoin:round;stroke-opacity:1" /><circle
         cx="6.6116319"
         cy="8.0249996"
         r="0.21996662"
         id="circle595-3-65-4-4-4-9-9-2-1"
         style="display:inline;fill:#ffffff;fill-opacity:1;stroke:none;stroke-width:0;stroke-linecap:round;stroke-linejoin:round;stroke-opacity:1" /></g><g
       id="g4840"><circle
         cx="10.189968"
         cy="-10.4766"
         r="0.21996662"
         id="circle595-3-65-4-4-1-3-7-2"
         style="display:inline;fill:#ffffff;fill-opacity:1;stroke:none;stroke-width:0;stroke-linecap:round;stroke-linejoin:round;stroke-opacity:1"
         transform="rotate(90)" /><circle
         cx="11.025"
         cy="-10.4766"
         r="0.21996662"
         id="circle595-3-65-4-4-4-7-3-4"
         style="display:inline;fill:#ffffff;fill-opacity:1;stroke:none;stroke-width:0;stroke-linecap:round;stroke-linejoin:round;stroke-opacity:1"
         transform="rotate(90)" /><circle
         cx="11.860031"
         cy="-10.4766"
         r="0.21996662"
         id="circle595-3-65-4-4-4-9-9-2-4"
         style="display:inline;fill:#ffffff;fill-opacity:1;stroke:none;stroke-width:0;stroke-linecap:round;stroke-linejoin:round;stroke-opacity:1"
         transform="rotate(90)" /></g></g></svg>
